<?xml version="1.0" encoding="utf-8"?>
<svg xmlns="http://www.w3.org/2000/svg" xmlns:xlink="http://www.w3.org/1999/xlink" width="1250" height="750" viewBox="0 0 5000 3000">
<defs>
  <clipPath id="clip520">
    <rect x="0" y="0" width="5000" height="3000"/>
  </clipPath>
</defs>
<path clip-path="url(#clip520)" d="M0 3000 L5000 3000 L5000 0 L0 0  Z" fill="#ffffff" fill-rule="evenodd" fill-opacity="1"/>
<defs>
  <clipPath id="clip521">
    <rect x="1000" y="0" width="3501" height="3000"/>
  </clipPath>
</defs>
<path clip-path="url(#clip520)" d="M166.696 2875.9 L4952.76 2875.9 L4952.76 47.2441 L166.696 47.2441  Z" fill="#ffffff" fill-rule="evenodd" fill-opacity="1"/>
<defs>
  <clipPath id="clip522">
    <rect x="166" y="47" width="4787" height="2830"/>
  </clipPath>
</defs>
<polyline clip-path="url(#clip522)" style="stroke:#000000; stroke-linecap:round; stroke-linejoin:round; stroke-width:2; stroke-opacity:0.1; fill:none" points="429.937,2875.9 429.937,47.2441 "/>
<polyline clip-path="url(#clip522)" style="stroke:#000000; stroke-linecap:round; stroke-linejoin:round; stroke-width:2; stroke-opacity:0.1; fill:none" points="1720.72,2875.9 1720.72,47.2441 "/>
<polyline clip-path="url(#clip522)" style="stroke:#000000; stroke-linecap:round; stroke-linejoin:round; stroke-width:2; stroke-opacity:0.1; fill:none" points="3011.5,2875.9 3011.5,47.2441 "/>
<polyline clip-path="url(#clip522)" style="stroke:#000000; stroke-linecap:round; stroke-linejoin:round; stroke-width:2; stroke-opacity:0.1; fill:none" points="4302.28,2875.9 4302.28,47.2441 "/>
<polyline clip-path="url(#clip522)" style="stroke:#000000; stroke-linecap:round; stroke-linejoin:round; stroke-width:2; stroke-opacity:0.1; fill:none" points="429.937,2875.9 429.937,47.2441 "/>
<polyline clip-path="url(#clip522)" style="stroke:#000000; stroke-linecap:round; stroke-linejoin:round; stroke-width:2; stroke-opacity:0.1; fill:none" points="1720.72,2875.9 1720.72,47.2441 "/>
<polyline clip-path="url(#clip522)" style="stroke:#000000; stroke-linecap:round; stroke-linejoin:round; stroke-width:2; stroke-opacity:0.1; fill:none" points="3011.5,2875.9 3011.5,47.2441 "/>
<polyline clip-path="url(#clip522)" style="stroke:#000000; stroke-linecap:round; stroke-linejoin:round; stroke-width:2; stroke-opacity:0.1; fill:none" points="4302.28,2875.9 4302.28,47.2441 "/>
<polyline clip-path="url(#clip522)" style="stroke:#000000; stroke-linecap:round; stroke-linejoin:round; stroke-width:2; stroke-opacity:0.1; fill:none" points="166.696,2875.9 4952.76,2875.9 "/>
<polyline clip-path="url(#clip522)" style="stroke:#000000; stroke-linecap:round; stroke-linejoin:round; stroke-width:2; stroke-opacity:0.1; fill:none" points="166.696,2150.61 4952.76,2150.61 "/>
<polyline clip-path="url(#clip522)" style="stroke:#000000; stroke-linecap:round; stroke-linejoin:round; stroke-width:2; stroke-opacity:0.1; fill:none" points="166.696,1425.31 4952.76,1425.31 "/>
<polyline clip-path="url(#clip522)" style="stroke:#000000; stroke-linecap:round; stroke-linejoin:round; stroke-width:2; stroke-opacity:0.1; fill:none" points="166.696,700.012 4952.76,700.012 "/>
<polyline clip-path="url(#clip522)" style="stroke:#000000; stroke-linecap:round; stroke-linejoin:round; stroke-width:2; stroke-opacity:0.1; fill:none" points="166.696,2875.9 4952.76,2875.9 "/>
<polyline clip-path="url(#clip522)" style="stroke:#000000; stroke-linecap:round; stroke-linejoin:round; stroke-width:2; stroke-opacity:0.1; fill:none" points="166.696,2150.61 4952.76,2150.61 "/>
<polyline clip-path="url(#clip522)" style="stroke:#000000; stroke-linecap:round; stroke-linejoin:round; stroke-width:2; stroke-opacity:0.1; fill:none" points="166.696,1425.31 4952.76,1425.31 "/>
<polyline clip-path="url(#clip522)" style="stroke:#000000; stroke-linecap:round; stroke-linejoin:round; stroke-width:2; stroke-opacity:0.1; fill:none" points="166.696,700.012 4952.76,700.012 "/>
<polyline clip-path="url(#clip520)" style="stroke:#000000; stroke-linecap:round; stroke-linejoin:round; stroke-width:4; stroke-opacity:1; fill:none" points="166.696,2875.9 4952.76,2875.9 "/>
<polyline clip-path="url(#clip520)" style="stroke:#000000; stroke-linecap:round; stroke-linejoin:round; stroke-width:4; stroke-opacity:1; fill:none" points="166.696,47.2441 4952.76,47.2441 "/>
<polyline clip-path="url(#clip520)" style="stroke:#000000; stroke-linecap:round; stroke-linejoin:round; stroke-width:4; stroke-opacity:1; fill:none" points="429.937,2875.9 429.937,2857.01 "/>
<polyline clip-path="url(#clip520)" style="stroke:#000000; stroke-linecap:round; stroke-linejoin:round; stroke-width:4; stroke-opacity:1; fill:none" points="1720.72,2875.9 1720.72,2857.01 "/>
<polyline clip-path="url(#clip520)" style="stroke:#000000; stroke-linecap:round; stroke-linejoin:round; stroke-width:4; stroke-opacity:1; fill:none" points="3011.5,2875.9 3011.5,2857.01 "/>
<polyline clip-path="url(#clip520)" style="stroke:#000000; stroke-linecap:round; stroke-linejoin:round; stroke-width:4; stroke-opacity:1; fill:none" points="4302.28,2875.9 4302.28,2857.01 "/>
<polyline clip-path="url(#clip520)" style="stroke:#000000; stroke-linecap:round; stroke-linejoin:round; stroke-width:4; stroke-opacity:1; fill:none" points="429.937,47.2441 429.937,66.1417 "/>
<polyline clip-path="url(#clip520)" style="stroke:#000000; stroke-linecap:round; stroke-linejoin:round; stroke-width:4; stroke-opacity:1; fill:none" points="1720.72,47.2441 1720.72,66.1417 "/>
<polyline clip-path="url(#clip520)" style="stroke:#000000; stroke-linecap:round; stroke-linejoin:round; stroke-width:4; stroke-opacity:1; fill:none" points="3011.5,47.2441 3011.5,66.1417 "/>
<polyline clip-path="url(#clip520)" style="stroke:#000000; stroke-linecap:round; stroke-linejoin:round; stroke-width:4; stroke-opacity:1; fill:none" points="4302.28,47.2441 4302.28,66.1417 "/>
<path clip-path="url(#clip520)" d="M388.618 2940.47 Q391.975 2941.19 393.85 2943.46 Q395.748 2945.72 395.748 2949.06 Q395.748 2954.17 392.229 2956.97 Q388.711 2959.78 382.229 2959.78 Q380.053 2959.78 377.739 2959.34 Q375.447 2958.92 372.993 2958.06 L372.993 2953.55 Q374.938 2954.68 377.252 2955.26 Q379.567 2955.84 382.09 2955.84 Q386.489 2955.84 388.78 2954.1 Q391.095 2952.37 391.095 2949.06 Q391.095 2946 388.942 2944.29 Q386.813 2942.55 382.993 2942.55 L378.965 2942.55 L378.965 2938.71 L383.178 2938.71 Q386.627 2938.71 388.456 2937.34 Q390.285 2935.96 390.285 2933.36 Q390.285 2930.7 388.387 2929.29 Q386.512 2927.85 382.993 2927.85 Q381.072 2927.85 378.873 2928.27 Q376.674 2928.69 374.035 2929.57 L374.035 2925.4 Q376.697 2924.66 379.012 2924.29 Q381.35 2923.92 383.41 2923.92 Q388.734 2923.92 391.836 2926.35 Q394.938 2928.76 394.938 2932.88 Q394.938 2935.75 393.294 2937.74 Q391.651 2939.71 388.618 2940.47 Z" fill="#000000" fill-rule="nonzero" fill-opacity="1" /><path clip-path="url(#clip520)" d="M414.613 2927.62 Q411.002 2927.62 409.174 2931.19 Q407.368 2934.73 407.368 2941.86 Q407.368 2948.97 409.174 2952.53 Q411.002 2956.07 414.613 2956.07 Q418.248 2956.07 420.053 2952.53 Q421.882 2948.97 421.882 2941.86 Q421.882 2934.73 420.053 2931.19 Q418.248 2927.62 414.613 2927.62 M414.613 2923.92 Q420.424 2923.92 423.479 2928.53 Q426.558 2933.11 426.558 2941.86 Q426.558 2950.59 423.479 2955.19 Q420.424 2959.78 414.613 2959.78 Q408.803 2959.78 405.725 2955.19 Q402.669 2950.59 402.669 2941.86 Q402.669 2933.11 405.725 2928.53 Q408.803 2923.92 414.613 2923.92 Z" fill="#000000" fill-rule="nonzero" fill-opacity="1" /><path clip-path="url(#clip520)" d="M444.775 2927.62 Q441.164 2927.62 439.335 2931.19 Q437.53 2934.73 437.53 2941.86 Q437.53 2948.97 439.335 2952.53 Q441.164 2956.07 444.775 2956.07 Q448.41 2956.07 450.215 2952.53 Q452.044 2948.97 452.044 2941.86 Q452.044 2934.73 450.215 2931.19 Q448.41 2927.62 444.775 2927.62 M444.775 2923.92 Q450.585 2923.92 453.641 2928.53 Q456.72 2933.11 456.72 2941.86 Q456.72 2950.59 453.641 2955.19 Q450.585 2959.78 444.775 2959.78 Q438.965 2959.78 435.886 2955.19 Q432.831 2950.59 432.831 2941.86 Q432.831 2933.11 435.886 2928.53 Q438.965 2923.92 444.775 2923.92 Z" fill="#000000" fill-rule="nonzero" fill-opacity="1" /><path clip-path="url(#clip520)" d="M474.937 2927.62 Q471.326 2927.62 469.497 2931.19 Q467.692 2934.73 467.692 2941.86 Q467.692 2948.97 469.497 2952.53 Q471.326 2956.07 474.937 2956.07 Q478.571 2956.07 480.377 2952.53 Q482.206 2948.97 482.206 2941.86 Q482.206 2934.73 480.377 2931.19 Q478.571 2927.62 474.937 2927.62 M474.937 2923.92 Q480.747 2923.92 483.803 2928.53 Q486.882 2933.11 486.882 2941.86 Q486.882 2950.59 483.803 2955.19 Q480.747 2959.78 474.937 2959.78 Q469.127 2959.78 466.048 2955.19 Q462.993 2950.59 462.993 2941.86 Q462.993 2933.11 466.048 2928.53 Q469.127 2923.92 474.937 2923.92 Z" fill="#000000" fill-rule="nonzero" fill-opacity="1" /><path clip-path="url(#clip520)" d="M1678.73 2928.62 L1666.92 2947.07 L1678.73 2947.07 L1678.73 2928.62 M1677.5 2924.54 L1683.38 2924.54 L1683.38 2947.07 L1688.31 2947.07 L1688.31 2950.96 L1683.38 2950.96 L1683.38 2959.1 L1678.73 2959.1 L1678.73 2950.96 L1663.13 2950.96 L1663.13 2946.44 L1677.5 2924.54 Z" fill="#000000" fill-rule="nonzero" fill-opacity="1" /><path clip-path="url(#clip520)" d="M1706.04 2927.62 Q1702.43 2927.62 1700.6 2931.19 Q1698.8 2934.73 1698.8 2941.86 Q1698.8 2948.97 1700.6 2952.53 Q1702.43 2956.07 1706.04 2956.07 Q1709.68 2956.07 1711.48 2952.53 Q1713.31 2948.97 1713.31 2941.86 Q1713.31 2934.73 1711.48 2931.19 Q1709.68 2927.62 1706.04 2927.62 M1706.04 2923.92 Q1711.85 2923.92 1714.91 2928.53 Q1717.99 2933.11 1717.99 2941.86 Q1717.99 2950.59 1714.91 2955.19 Q1711.85 2959.78 1706.04 2959.78 Q1700.23 2959.78 1697.15 2955.19 Q1694.1 2950.59 1694.1 2941.86 Q1694.1 2933.11 1697.15 2928.53 Q1700.23 2923.92 1706.04 2923.92 Z" fill="#000000" fill-rule="nonzero" fill-opacity="1" /><path clip-path="url(#clip520)" d="M1736.2 2927.62 Q1732.59 2927.62 1730.76 2931.19 Q1728.96 2934.73 1728.96 2941.86 Q1728.96 2948.97 1730.76 2952.53 Q1732.59 2956.07 1736.2 2956.07 Q1739.84 2956.07 1741.64 2952.53 Q1743.47 2948.97 1743.47 2941.86 Q1743.47 2934.73 1741.64 2931.19 Q1739.84 2927.62 1736.2 2927.62 M1736.2 2923.92 Q1742.01 2923.92 1745.07 2928.53 Q1748.15 2933.11 1748.15 2941.86 Q1748.15 2950.59 1745.07 2955.19 Q1742.01 2959.78 1736.2 2959.78 Q1730.39 2959.78 1727.32 2955.19 Q1724.26 2950.59 1724.26 2941.86 Q1724.26 2933.11 1727.32 2928.53 Q1730.39 2923.92 1736.2 2923.92 Z" fill="#000000" fill-rule="nonzero" fill-opacity="1" /><path clip-path="url(#clip520)" d="M1766.37 2927.62 Q1762.76 2927.62 1760.93 2931.19 Q1759.12 2934.73 1759.12 2941.86 Q1759.12 2948.97 1760.93 2952.53 Q1762.76 2956.07 1766.37 2956.07 Q1770 2956.07 1771.81 2952.53 Q1773.63 2948.97 1773.63 2941.86 Q1773.63 2934.73 1771.81 2931.19 Q1770 2927.62 1766.37 2927.62 M1766.37 2923.92 Q1772.18 2923.92 1775.23 2928.53 Q1778.31 2933.11 1778.31 2941.86 Q1778.31 2950.59 1775.23 2955.19 Q1772.18 2959.78 1766.37 2959.78 Q1760.56 2959.78 1757.48 2955.19 Q1754.42 2950.59 1754.42 2941.86 Q1754.42 2933.11 1757.48 2928.53 Q1760.56 2923.92 1766.37 2923.92 Z" fill="#000000" fill-rule="nonzero" fill-opacity="1" /><path clip-path="url(#clip520)" d="M2956.04 2924.54 L2974.39 2924.54 L2974.39 2928.48 L2960.32 2928.48 L2960.32 2936.95 Q2961.34 2936.6 2962.36 2936.44 Q2963.37 2936.26 2964.39 2936.26 Q2970.18 2936.26 2973.56 2939.43 Q2976.94 2942.6 2976.94 2948.02 Q2976.94 2953.59 2973.47 2956.7 Q2969.99 2959.78 2963.68 2959.78 Q2961.5 2959.78 2959.23 2959.4 Q2956.99 2959.03 2954.58 2958.29 L2954.58 2953.59 Q2956.66 2954.73 2958.88 2955.28 Q2961.11 2955.84 2963.58 2955.84 Q2967.59 2955.84 2969.93 2953.73 Q2972.26 2951.63 2972.26 2948.02 Q2972.26 2944.4 2969.93 2942.3 Q2967.59 2940.19 2963.58 2940.19 Q2961.71 2940.19 2959.83 2940.61 Q2957.98 2941.03 2956.04 2941.9 L2956.04 2924.54 Z" fill="#000000" fill-rule="nonzero" fill-opacity="1" /><path clip-path="url(#clip520)" d="M2996.15 2927.62 Q2992.54 2927.62 2990.71 2931.19 Q2988.91 2934.73 2988.91 2941.86 Q2988.91 2948.97 2990.71 2952.53 Q2992.54 2956.07 2996.15 2956.07 Q2999.79 2956.07 3001.59 2952.53 Q3003.42 2948.97 3003.42 2941.86 Q3003.42 2934.73 3001.59 2931.19 Q2999.79 2927.62 2996.15 2927.62 M2996.15 2923.92 Q3001.96 2923.92 3005.02 2928.53 Q3008.1 2933.11 3008.1 2941.86 Q3008.1 2950.59 3005.02 2955.19 Q3001.96 2959.78 2996.15 2959.78 Q2990.34 2959.78 2987.26 2955.19 Q2984.21 2950.59 2984.21 2941.86 Q2984.21 2933.11 2987.26 2928.53 Q2990.34 2923.92 2996.15 2923.92 Z" fill="#000000" fill-rule="nonzero" fill-opacity="1" /><path clip-path="url(#clip520)" d="M3026.31 2927.62 Q3022.7 2927.62 3020.87 2931.19 Q3019.07 2934.73 3019.07 2941.86 Q3019.07 2948.97 3020.87 2952.53 Q3022.7 2956.07 3026.31 2956.07 Q3029.95 2956.07 3031.75 2952.53 Q3033.58 2948.97 3033.58 2941.86 Q3033.58 2934.73 3031.75 2931.19 Q3029.95 2927.62 3026.31 2927.62 M3026.31 2923.92 Q3032.12 2923.92 3035.18 2928.53 Q3038.26 2933.11 3038.26 2941.86 Q3038.26 2950.59 3035.18 2955.19 Q3032.12 2959.78 3026.31 2959.78 Q3020.5 2959.78 3017.42 2955.19 Q3014.37 2950.59 3014.37 2941.86 Q3014.37 2933.11 3017.42 2928.53 Q3020.5 2923.92 3026.31 2923.92 Z" fill="#000000" fill-rule="nonzero" fill-opacity="1" /><path clip-path="url(#clip520)" d="M3056.48 2927.62 Q3052.86 2927.62 3051.04 2931.19 Q3049.23 2934.73 3049.23 2941.86 Q3049.23 2948.97 3051.04 2952.53 Q3052.86 2956.07 3056.48 2956.07 Q3060.11 2956.07 3061.92 2952.53 Q3063.74 2948.97 3063.74 2941.86 Q3063.74 2934.73 3061.92 2931.19 Q3060.11 2927.62 3056.48 2927.62 M3056.48 2923.92 Q3062.29 2923.92 3065.34 2928.53 Q3068.42 2933.11 3068.42 2941.86 Q3068.42 2950.59 3065.34 2955.19 Q3062.29 2959.78 3056.48 2959.78 Q3050.67 2959.78 3047.59 2955.19 Q3044.53 2950.59 3044.53 2941.86 Q3044.53 2933.11 3047.59 2928.53 Q3050.67 2923.92 3056.48 2923.92 Z" fill="#000000" fill-rule="nonzero" fill-opacity="1" /><path clip-path="url(#clip520)" d="M4257.52 2939.96 Q4254.37 2939.96 4252.52 2942.11 Q4250.69 2944.27 4250.69 2948.02 Q4250.69 2951.74 4252.52 2953.92 Q4254.37 2956.07 4257.52 2956.07 Q4260.67 2956.07 4262.5 2953.92 Q4264.35 2951.74 4264.35 2948.02 Q4264.35 2944.27 4262.5 2942.11 Q4260.67 2939.96 4257.52 2939.96 M4266.81 2925.31 L4266.81 2929.57 Q4265.05 2928.73 4263.24 2928.29 Q4261.46 2927.85 4259.7 2927.85 Q4255.07 2927.85 4252.62 2930.98 Q4250.19 2934.1 4249.84 2940.42 Q4251.2 2938.41 4253.26 2937.34 Q4255.32 2936.26 4257.8 2936.26 Q4263.01 2936.26 4266.02 2939.43 Q4269.05 2942.58 4269.05 2948.02 Q4269.05 2953.34 4265.9 2956.56 Q4262.75 2959.78 4257.52 2959.78 Q4251.53 2959.78 4248.36 2955.19 Q4245.19 2950.59 4245.19 2941.86 Q4245.19 2933.66 4249.07 2928.8 Q4252.96 2923.92 4259.51 2923.92 Q4261.27 2923.92 4263.06 2924.27 Q4264.86 2924.61 4266.81 2925.31 Z" fill="#000000" fill-rule="nonzero" fill-opacity="1" /><path clip-path="url(#clip520)" d="M4287.11 2927.62 Q4283.5 2927.62 4281.67 2931.19 Q4279.86 2934.73 4279.86 2941.86 Q4279.86 2948.97 4281.67 2952.53 Q4283.5 2956.07 4287.11 2956.07 Q4290.74 2956.07 4292.55 2952.53 Q4294.37 2948.97 4294.37 2941.86 Q4294.37 2934.73 4292.55 2931.19 Q4290.74 2927.62 4287.11 2927.62 M4287.11 2923.92 Q4292.92 2923.92 4295.97 2928.53 Q4299.05 2933.11 4299.05 2941.86 Q4299.05 2950.59 4295.97 2955.19 Q4292.92 2959.78 4287.11 2959.78 Q4281.3 2959.78 4278.22 2955.19 Q4275.16 2950.59 4275.16 2941.86 Q4275.16 2933.11 4278.22 2928.53 Q4281.3 2923.92 4287.11 2923.92 Z" fill="#000000" fill-rule="nonzero" fill-opacity="1" /><path clip-path="url(#clip520)" d="M4317.27 2927.62 Q4313.66 2927.62 4311.83 2931.19 Q4310.02 2934.73 4310.02 2941.86 Q4310.02 2948.97 4311.83 2952.53 Q4313.66 2956.07 4317.27 2956.07 Q4320.9 2956.07 4322.71 2952.53 Q4324.54 2948.97 4324.54 2941.86 Q4324.54 2934.73 4322.71 2931.19 Q4320.9 2927.62 4317.27 2927.62 M4317.27 2923.92 Q4323.08 2923.92 4326.13 2928.53 Q4329.21 2933.11 4329.21 2941.86 Q4329.21 2950.59 4326.13 2955.19 Q4323.08 2959.78 4317.27 2959.78 Q4311.46 2959.78 4308.38 2955.19 Q4305.32 2950.59 4305.32 2941.86 Q4305.32 2933.11 4308.38 2928.53 Q4311.46 2923.92 4317.27 2923.92 Z" fill="#000000" fill-rule="nonzero" fill-opacity="1" /><path clip-path="url(#clip520)" d="M4347.43 2927.62 Q4343.82 2927.62 4341.99 2931.19 Q4340.18 2934.73 4340.18 2941.86 Q4340.18 2948.97 4341.99 2952.53 Q4343.82 2956.07 4347.43 2956.07 Q4351.06 2956.07 4352.87 2952.53 Q4354.7 2948.97 4354.7 2941.86 Q4354.7 2934.73 4352.87 2931.19 Q4351.06 2927.62 4347.43 2927.62 M4347.43 2923.92 Q4353.24 2923.92 4356.3 2928.53 Q4359.37 2933.11 4359.37 2941.86 Q4359.37 2950.59 4356.3 2955.19 Q4353.24 2959.78 4347.43 2959.78 Q4341.62 2959.78 4338.54 2955.19 Q4335.49 2950.59 4335.49 2941.86 Q4335.49 2933.11 4338.54 2928.53 Q4341.62 2923.92 4347.43 2923.92 Z" fill="#000000" fill-rule="nonzero" fill-opacity="1" /><polyline clip-path="url(#clip520)" style="stroke:#000000; stroke-linecap:round; stroke-linejoin:round; stroke-width:4; stroke-opacity:1; fill:none" points="166.696,2875.9 166.696,47.2441 "/>
<polyline clip-path="url(#clip520)" style="stroke:#000000; stroke-linecap:round; stroke-linejoin:round; stroke-width:4; stroke-opacity:1; fill:none" points="4952.76,2875.9 4952.76,47.2441 "/>
<polyline clip-path="url(#clip520)" style="stroke:#000000; stroke-linecap:round; stroke-linejoin:round; stroke-width:4; stroke-opacity:1; fill:none" points="166.696,2875.9 185.593,2875.9 "/>
<polyline clip-path="url(#clip520)" style="stroke:#000000; stroke-linecap:round; stroke-linejoin:round; stroke-width:4; stroke-opacity:1; fill:none" points="166.696,2150.61 185.593,2150.61 "/>
<polyline clip-path="url(#clip520)" style="stroke:#000000; stroke-linecap:round; stroke-linejoin:round; stroke-width:4; stroke-opacity:1; fill:none" points="166.696,1425.31 185.593,1425.31 "/>
<polyline clip-path="url(#clip520)" style="stroke:#000000; stroke-linecap:round; stroke-linejoin:round; stroke-width:4; stroke-opacity:1; fill:none" points="166.696,700.012 185.593,700.012 "/>
<polyline clip-path="url(#clip520)" style="stroke:#000000; stroke-linecap:round; stroke-linejoin:round; stroke-width:4; stroke-opacity:1; fill:none" points="4952.76,2875.9 4933.86,2875.9 "/>
<polyline clip-path="url(#clip520)" style="stroke:#000000; stroke-linecap:round; stroke-linejoin:round; stroke-width:4; stroke-opacity:1; fill:none" points="4952.76,2150.61 4933.86,2150.61 "/>
<polyline clip-path="url(#clip520)" style="stroke:#000000; stroke-linecap:round; stroke-linejoin:round; stroke-width:4; stroke-opacity:1; fill:none" points="4952.76,1425.31 4933.86,1425.31 "/>
<polyline clip-path="url(#clip520)" style="stroke:#000000; stroke-linecap:round; stroke-linejoin:round; stroke-width:4; stroke-opacity:1; fill:none" points="4952.76,700.012 4933.86,700.012 "/>
<path clip-path="url(#clip520)" d="M79.7512 2861.7 Q76.1401 2861.7 74.3114 2865.27 Q72.5058 2868.81 72.5058 2875.94 Q72.5058 2883.05 74.3114 2886.61 Q76.1401 2890.15 79.7512 2890.15 Q83.3854 2890.15 85.1909 2886.61 Q87.0196 2883.05 87.0196 2875.94 Q87.0196 2868.81 85.1909 2865.27 Q83.3854 2861.7 79.7512 2861.7 M79.7512 2858 Q85.5613 2858 88.6169 2862.61 Q91.6955 2867.19 91.6955 2875.94 Q91.6955 2884.67 88.6169 2889.27 Q85.5613 2893.86 79.7512 2893.86 Q73.941 2893.86 70.8623 2889.27 Q67.8068 2884.67 67.8068 2875.94 Q67.8068 2867.19 70.8623 2862.61 Q73.941 2858 79.7512 2858 Z" fill="#000000" fill-rule="nonzero" fill-opacity="1" /><path clip-path="url(#clip520)" d="M40.3995 2163.95 L48.0384 2163.95 L48.0384 2137.59 L39.7282 2139.25 L39.7282 2134.99 L47.9921 2133.33 L52.668 2133.33 L52.668 2163.95 L60.3068 2163.95 L60.3068 2167.89 L40.3995 2167.89 L40.3995 2163.95 Z" fill="#000000" fill-rule="nonzero" fill-opacity="1" /><path clip-path="url(#clip520)" d="M79.7512 2136.41 Q76.1401 2136.41 74.3114 2139.97 Q72.5058 2143.51 72.5058 2150.64 Q72.5058 2157.75 74.3114 2161.31 Q76.1401 2164.85 79.7512 2164.85 Q83.3854 2164.85 85.1909 2161.31 Q87.0196 2157.75 87.0196 2150.64 Q87.0196 2143.51 85.1909 2139.97 Q83.3854 2136.41 79.7512 2136.41 M79.7512 2132.7 Q85.5613 2132.7 88.6169 2137.31 Q91.6955 2141.89 91.6955 2150.64 Q91.6955 2159.37 88.6169 2163.97 Q85.5613 2168.56 79.7512 2168.56 Q73.941 2168.56 70.8623 2163.97 Q67.8068 2159.37 67.8068 2150.64 Q67.8068 2141.89 70.8623 2137.31 Q73.941 2132.7 79.7512 2132.7 Z" fill="#000000" fill-rule="nonzero" fill-opacity="1" /><path clip-path="url(#clip520)" d="M43.6171 1438.65 L59.9365 1438.65 L59.9365 1442.59 L37.9921 1442.59 L37.9921 1438.65 Q40.6541 1435.9 45.2375 1431.27 Q49.8439 1426.62 51.0245 1425.27 Q53.2698 1422.75 54.1494 1421.02 Q55.0522 1419.26 55.0522 1417.57 Q55.0522 1414.81 53.1078 1413.08 Q51.1865 1411.34 48.0847 1411.34 Q45.8856 1411.34 43.4319 1412.1 Q41.0014 1412.87 38.2236 1414.42 L38.2236 1409.7 Q41.0477 1408.56 43.5014 1407.98 Q45.955 1407.4 47.9921 1407.4 Q53.3624 1407.4 56.5568 1410.09 Q59.7513 1412.77 59.7513 1417.27 Q59.7513 1419.39 58.9411 1421.32 Q58.1541 1423.21 56.0476 1425.81 Q55.4689 1426.48 52.367 1429.7 Q49.2652 1432.89 43.6171 1438.65 Z" fill="#000000" fill-rule="nonzero" fill-opacity="1" /><path clip-path="url(#clip520)" d="M79.7512 1411.11 Q76.1401 1411.11 74.3114 1414.67 Q72.5058 1418.21 72.5058 1425.34 Q72.5058 1432.45 74.3114 1436.02 Q76.1401 1439.56 79.7512 1439.56 Q83.3854 1439.56 85.1909 1436.02 Q87.0196 1432.45 87.0196 1425.34 Q87.0196 1418.21 85.1909 1414.67 Q83.3854 1411.11 79.7512 1411.11 M79.7512 1407.4 Q85.5613 1407.4 88.6169 1412.01 Q91.6955 1416.59 91.6955 1425.34 Q91.6955 1434.07 88.6169 1438.68 Q85.5613 1443.26 79.7512 1443.26 Q73.941 1443.26 70.8623 1438.68 Q67.8068 1434.07 67.8068 1425.34 Q67.8068 1416.59 70.8623 1412.01 Q73.941 1407.4 79.7512 1407.4 Z" fill="#000000" fill-rule="nonzero" fill-opacity="1" /><path clip-path="url(#clip520)" d="M53.7559 698.658 Q57.1124 699.375 58.9874 701.644 Q60.8855 703.912 60.8855 707.245 Q60.8855 712.361 57.367 715.162 Q53.8485 717.963 47.3671 717.963 Q45.1912 717.963 42.8764 717.523 Q40.5847 717.107 38.131 716.25 L38.131 711.736 Q40.0754 712.87 42.3903 713.449 Q44.7051 714.028 47.2282 714.028 Q51.6263 714.028 53.918 712.292 Q56.2328 710.556 56.2328 707.245 Q56.2328 704.19 54.08 702.477 Q51.9504 700.741 48.131 700.741 L44.1032 700.741 L44.1032 696.898 L48.3161 696.898 Q51.7652 696.898 53.5939 695.533 Q55.4226 694.144 55.4226 691.551 Q55.4226 688.889 53.5245 687.477 Q51.6495 686.042 48.131 686.042 Q46.2097 686.042 44.0106 686.459 Q41.8115 686.875 39.1727 687.755 L39.1727 683.588 Q41.8347 682.847 44.1495 682.477 Q46.4875 682.107 48.5476 682.107 Q53.8717 682.107 56.9735 684.537 Q60.0753 686.945 60.0753 691.065 Q60.0753 693.935 58.4318 695.926 Q56.7883 697.894 53.7559 698.658 Z" fill="#000000" fill-rule="nonzero" fill-opacity="1" /><path clip-path="url(#clip520)" d="M79.7512 685.81 Q76.1401 685.81 74.3114 689.375 Q72.5058 692.917 72.5058 700.046 Q72.5058 707.153 74.3114 710.718 Q76.1401 714.259 79.7512 714.259 Q83.3854 714.259 85.1909 710.718 Q87.0196 707.153 87.0196 700.046 Q87.0196 692.917 85.1909 689.375 Q83.3854 685.81 79.7512 685.81 M79.7512 682.107 Q85.5613 682.107 88.6169 686.713 Q91.6955 691.297 91.6955 700.046 Q91.6955 708.773 88.6169 713.38 Q85.5613 717.963 79.7512 717.963 Q73.941 717.963 70.8623 713.38 Q67.8068 708.773 67.8068 700.046 Q67.8068 691.297 70.8623 686.713 Q73.941 682.107 79.7512 682.107 Z" fill="#000000" fill-rule="nonzero" fill-opacity="1" /><path clip-path="url(#clip522)" d="M429.937 2875.9 L429.937 2875.9 L559.015 2875.9 L559.015 2875.9 L429.937 2875.9 L429.937 2875.9  Z" fill="#0000ff" fill-rule="evenodd" fill-opacity="1"/>
<polyline clip-path="url(#clip522)" style="stroke:#000000; stroke-linecap:round; stroke-linejoin:round; stroke-width:4; stroke-opacity:1; fill:none" points="429.937,2875.9 429.937,2875.9 559.015,2875.9 429.937,2875.9 "/>
<path clip-path="url(#clip522)" d="M559.015 2875.9 L559.015 2875.9 L688.094 2875.9 L688.094 2875.9 L559.015 2875.9 L559.015 2875.9  Z" fill="#0000ff" fill-rule="evenodd" fill-opacity="1"/>
<polyline clip-path="url(#clip522)" style="stroke:#000000; stroke-linecap:round; stroke-linejoin:round; stroke-width:4; stroke-opacity:1; fill:none" points="559.015,2875.9 559.015,2875.9 688.094,2875.9 559.015,2875.9 "/>
<path clip-path="url(#clip522)" d="M688.094 2803.37 L688.094 2875.9 L817.172 2875.9 L817.172 2803.37 L688.094 2803.37 L688.094 2803.37  Z" fill="#0000ff" fill-rule="evenodd" fill-opacity="1"/>
<polyline clip-path="url(#clip522)" style="stroke:#000000; stroke-linecap:round; stroke-linejoin:round; stroke-width:4; stroke-opacity:1; fill:none" points="688.094,2803.37 688.094,2875.9 817.172,2875.9 817.172,2803.37 688.094,2803.37 "/>
<path clip-path="url(#clip522)" d="M817.172 2730.84 L817.172 2875.9 L946.25 2875.9 L946.25 2730.84 L817.172 2730.84 L817.172 2730.84  Z" fill="#0000ff" fill-rule="evenodd" fill-opacity="1"/>
<polyline clip-path="url(#clip522)" style="stroke:#000000; stroke-linecap:round; stroke-linejoin:round; stroke-width:4; stroke-opacity:1; fill:none" points="817.172,2730.84 817.172,2875.9 946.25,2875.9 946.25,2730.84 817.172,2730.84 "/>
<path clip-path="url(#clip522)" d="M946.25 2585.78 L946.25 2875.9 L1075.33 2875.9 L1075.33 2585.78 L946.25 2585.78 L946.25 2585.78  Z" fill="#0000ff" fill-rule="evenodd" fill-opacity="1"/>
<polyline clip-path="url(#clip522)" style="stroke:#000000; stroke-linecap:round; stroke-linejoin:round; stroke-width:4; stroke-opacity:1; fill:none" points="946.25,2585.78 946.25,2875.9 1075.33,2875.9 1075.33,2585.78 946.25,2585.78 "/>
<path clip-path="url(#clip522)" d="M1075.33 2440.73 L1075.33 2875.9 L1204.41 2875.9 L1204.41 2440.73 L1075.33 2440.73 L1075.33 2440.73  Z" fill="#0000ff" fill-rule="evenodd" fill-opacity="1"/>
<polyline clip-path="url(#clip522)" style="stroke:#000000; stroke-linecap:round; stroke-linejoin:round; stroke-width:4; stroke-opacity:1; fill:none" points="1075.33,2440.73 1075.33,2875.9 1204.41,2875.9 1204.41,2440.73 1075.33,2440.73 "/>
<path clip-path="url(#clip522)" d="M1204.41 2513.26 L1204.41 2875.9 L1333.48 2875.9 L1333.48 2513.26 L1204.41 2513.26 L1204.41 2513.26  Z" fill="#0000ff" fill-rule="evenodd" fill-opacity="1"/>
<polyline clip-path="url(#clip522)" style="stroke:#000000; stroke-linecap:round; stroke-linejoin:round; stroke-width:4; stroke-opacity:1; fill:none" points="1204.41,2513.26 1204.41,2875.9 1333.48,2875.9 1333.48,2513.26 1204.41,2513.26 "/>
<path clip-path="url(#clip522)" d="M1333.48 2078.08 L1333.48 2875.9 L1462.56 2875.9 L1462.56 2078.08 L1333.48 2078.08 L1333.48 2078.08  Z" fill="#0000ff" fill-rule="evenodd" fill-opacity="1"/>
<polyline clip-path="url(#clip522)" style="stroke:#000000; stroke-linecap:round; stroke-linejoin:round; stroke-width:4; stroke-opacity:1; fill:none" points="1333.48,2078.08 1333.48,2875.9 1462.56,2875.9 1462.56,2078.08 1333.48,2078.08 "/>
<path clip-path="url(#clip522)" d="M1462.56 2295.67 L1462.56 2875.9 L1591.64 2875.9 L1591.64 2295.67 L1462.56 2295.67 L1462.56 2295.67  Z" fill="#0000ff" fill-rule="evenodd" fill-opacity="1"/>
<polyline clip-path="url(#clip522)" style="stroke:#000000; stroke-linecap:round; stroke-linejoin:round; stroke-width:4; stroke-opacity:1; fill:none" points="1462.56,2295.67 1462.56,2875.9 1591.64,2875.9 1591.64,2295.67 1462.56,2295.67 "/>
<path clip-path="url(#clip522)" d="M1591.64 1642.9 L1591.64 2875.9 L1720.72 2875.9 L1720.72 1642.9 L1591.64 1642.9 L1591.64 1642.9  Z" fill="#0000ff" fill-rule="evenodd" fill-opacity="1"/>
<polyline clip-path="url(#clip522)" style="stroke:#000000; stroke-linecap:round; stroke-linejoin:round; stroke-width:4; stroke-opacity:1; fill:none" points="1591.64,1642.9 1591.64,2875.9 1720.72,2875.9 1720.72,1642.9 1591.64,1642.9 "/>
<path clip-path="url(#clip522)" d="M1720.72 2005.55 L1720.72 2875.9 L1849.8 2875.9 L1849.8 2005.55 L1720.72 2005.55 L1720.72 2005.55  Z" fill="#0000ff" fill-rule="evenodd" fill-opacity="1"/>
<polyline clip-path="url(#clip522)" style="stroke:#000000; stroke-linecap:round; stroke-linejoin:round; stroke-width:4; stroke-opacity:1; fill:none" points="1720.72,2005.55 1720.72,2875.9 1849.8,2875.9 1849.8,2005.55 1720.72,2005.55 "/>
<path clip-path="url(#clip522)" d="M1849.8 2295.67 L1849.8 2875.9 L1978.87 2875.9 L1978.87 2295.67 L1849.8 2295.67 L1849.8 2295.67  Z" fill="#0000ff" fill-rule="evenodd" fill-opacity="1"/>
<polyline clip-path="url(#clip522)" style="stroke:#000000; stroke-linecap:round; stroke-linejoin:round; stroke-width:4; stroke-opacity:1; fill:none" points="1849.8,2295.67 1849.8,2875.9 1978.87,2875.9 1978.87,2295.67 1849.8,2295.67 "/>
<path clip-path="url(#clip522)" d="M1978.87 2368.2 L1978.87 2875.9 L2107.95 2875.9 L2107.95 2368.2 L1978.87 2368.2 L1978.87 2368.2  Z" fill="#0000ff" fill-rule="evenodd" fill-opacity="1"/>
<polyline clip-path="url(#clip522)" style="stroke:#000000; stroke-linecap:round; stroke-linejoin:round; stroke-width:4; stroke-opacity:1; fill:none" points="1978.87,2368.2 1978.87,2875.9 2107.95,2875.9 2107.95,2368.2 1978.87,2368.2 "/>
<path clip-path="url(#clip522)" d="M2107.95 2368.2 L2107.95 2875.9 L2237.03 2875.9 L2237.03 2368.2 L2107.95 2368.2 L2107.95 2368.2  Z" fill="#0000ff" fill-rule="evenodd" fill-opacity="1"/>
<polyline clip-path="url(#clip522)" style="stroke:#000000; stroke-linecap:round; stroke-linejoin:round; stroke-width:4; stroke-opacity:1; fill:none" points="2107.95,2368.2 2107.95,2875.9 2237.03,2875.9 2237.03,2368.2 2107.95,2368.2 "/>
<path clip-path="url(#clip522)" d="M2237.03 2295.67 L2237.03 2875.9 L2366.11 2875.9 L2366.11 2295.67 L2237.03 2295.67 L2237.03 2295.67  Z" fill="#0000ff" fill-rule="evenodd" fill-opacity="1"/>
<polyline clip-path="url(#clip522)" style="stroke:#000000; stroke-linecap:round; stroke-linejoin:round; stroke-width:4; stroke-opacity:1; fill:none" points="2237.03,2295.67 2237.03,2875.9 2366.11,2875.9 2366.11,2295.67 2237.03,2295.67 "/>
<path clip-path="url(#clip522)" d="M2366.11 2658.31 L2366.11 2875.9 L2495.19 2875.9 L2495.19 2658.31 L2366.11 2658.31 L2366.11 2658.31  Z" fill="#0000ff" fill-rule="evenodd" fill-opacity="1"/>
<polyline clip-path="url(#clip522)" style="stroke:#000000; stroke-linecap:round; stroke-linejoin:round; stroke-width:4; stroke-opacity:1; fill:none" points="2366.11,2658.31 2366.11,2875.9 2495.19,2875.9 2495.19,2658.31 2366.11,2658.31 "/>
<path clip-path="url(#clip522)" d="M2495.19 2585.78 L2495.19 2875.9 L2624.26 2875.9 L2624.26 2585.78 L2495.19 2585.78 L2495.19 2585.78  Z" fill="#0000ff" fill-rule="evenodd" fill-opacity="1"/>
<polyline clip-path="url(#clip522)" style="stroke:#000000; stroke-linecap:round; stroke-linejoin:round; stroke-width:4; stroke-opacity:1; fill:none" points="2495.19,2585.78 2495.19,2875.9 2624.26,2875.9 2624.26,2585.78 2495.19,2585.78 "/>
<path clip-path="url(#clip522)" d="M2624.26 2585.78 L2624.26 2875.9 L2753.34 2875.9 L2753.34 2585.78 L2624.26 2585.78 L2624.26 2585.78  Z" fill="#0000ff" fill-rule="evenodd" fill-opacity="1"/>
<polyline clip-path="url(#clip522)" style="stroke:#000000; stroke-linecap:round; stroke-linejoin:round; stroke-width:4; stroke-opacity:1; fill:none" points="2624.26,2585.78 2624.26,2875.9 2753.34,2875.9 2753.34,2585.78 2624.26,2585.78 "/>
<path clip-path="url(#clip522)" d="M2753.34 2803.37 L2753.34 2875.9 L2882.42 2875.9 L2882.42 2803.37 L2753.34 2803.37 L2753.34 2803.37  Z" fill="#0000ff" fill-rule="evenodd" fill-opacity="1"/>
<polyline clip-path="url(#clip522)" style="stroke:#000000; stroke-linecap:round; stroke-linejoin:round; stroke-width:4; stroke-opacity:1; fill:none" points="2753.34,2803.37 2753.34,2875.9 2882.42,2875.9 2882.42,2803.37 2753.34,2803.37 "/>
<path clip-path="url(#clip522)" d="M2882.42 2803.37 L2882.42 2875.9 L3011.5 2875.9 L3011.5 2803.37 L2882.42 2803.37 L2882.42 2803.37  Z" fill="#0000ff" fill-rule="evenodd" fill-opacity="1"/>
<polyline clip-path="url(#clip522)" style="stroke:#000000; stroke-linecap:round; stroke-linejoin:round; stroke-width:4; stroke-opacity:1; fill:none" points="2882.42,2803.37 2882.42,2875.9 3011.5,2875.9 3011.5,2803.37 2882.42,2803.37 "/>
<path clip-path="url(#clip522)" d="M3011.5 2513.26 L3011.5 2875.9 L3140.58 2875.9 L3140.58 2513.26 L3011.5 2513.26 L3011.5 2513.26  Z" fill="#0000ff" fill-rule="evenodd" fill-opacity="1"/>
<polyline clip-path="url(#clip522)" style="stroke:#000000; stroke-linecap:round; stroke-linejoin:round; stroke-width:4; stroke-opacity:1; fill:none" points="3011.5,2513.26 3011.5,2875.9 3140.58,2875.9 3140.58,2513.26 3011.5,2513.26 "/>
<path clip-path="url(#clip522)" d="M3140.58 2658.31 L3140.58 2875.9 L3269.66 2875.9 L3269.66 2658.31 L3140.58 2658.31 L3140.58 2658.31  Z" fill="#0000ff" fill-rule="evenodd" fill-opacity="1"/>
<polyline clip-path="url(#clip522)" style="stroke:#000000; stroke-linecap:round; stroke-linejoin:round; stroke-width:4; stroke-opacity:1; fill:none" points="3140.58,2658.31 3140.58,2875.9 3269.66,2875.9 3269.66,2658.31 3140.58,2658.31 "/>
<path clip-path="url(#clip522)" d="M3269.66 2513.26 L3269.66 2875.9 L3398.73 2875.9 L3398.73 2513.26 L3269.66 2513.26 L3269.66 2513.26  Z" fill="#0000ff" fill-rule="evenodd" fill-opacity="1"/>
<polyline clip-path="url(#clip522)" style="stroke:#000000; stroke-linecap:round; stroke-linejoin:round; stroke-width:4; stroke-opacity:1; fill:none" points="3269.66,2513.26 3269.66,2875.9 3398.73,2875.9 3398.73,2513.26 3269.66,2513.26 "/>
<path clip-path="url(#clip522)" d="M3398.73 2368.2 L3398.73 2875.9 L3527.81 2875.9 L3527.81 2368.2 L3398.73 2368.2 L3398.73 2368.2  Z" fill="#0000ff" fill-rule="evenodd" fill-opacity="1"/>
<polyline clip-path="url(#clip522)" style="stroke:#000000; stroke-linecap:round; stroke-linejoin:round; stroke-width:4; stroke-opacity:1; fill:none" points="3398.73,2368.2 3398.73,2875.9 3527.81,2875.9 3527.81,2368.2 3398.73,2368.2 "/>
<path clip-path="url(#clip522)" d="M3527.81 2440.73 L3527.81 2875.9 L3656.89 2875.9 L3656.89 2440.73 L3527.81 2440.73 L3527.81 2440.73  Z" fill="#0000ff" fill-rule="evenodd" fill-opacity="1"/>
<polyline clip-path="url(#clip522)" style="stroke:#000000; stroke-linecap:round; stroke-linejoin:round; stroke-width:4; stroke-opacity:1; fill:none" points="3527.81,2440.73 3527.81,2875.9 3656.89,2875.9 3656.89,2440.73 3527.81,2440.73 "/>
<path clip-path="url(#clip522)" d="M3656.89 2078.08 L3656.89 2875.9 L3785.97 2875.9 L3785.97 2078.08 L3656.89 2078.08 L3656.89 2078.08  Z" fill="#0000ff" fill-rule="evenodd" fill-opacity="1"/>
<polyline clip-path="url(#clip522)" style="stroke:#000000; stroke-linecap:round; stroke-linejoin:round; stroke-width:4; stroke-opacity:1; fill:none" points="3656.89,2078.08 3656.89,2875.9 3785.97,2875.9 3785.97,2078.08 3656.89,2078.08 "/>
<path clip-path="url(#clip522)" d="M3785.97 2513.26 L3785.97 2875.9 L3915.05 2875.9 L3915.05 2513.26 L3785.97 2513.26 L3785.97 2513.26  Z" fill="#0000ff" fill-rule="evenodd" fill-opacity="1"/>
<polyline clip-path="url(#clip522)" style="stroke:#000000; stroke-linecap:round; stroke-linejoin:round; stroke-width:4; stroke-opacity:1; fill:none" points="3785.97,2513.26 3785.97,2875.9 3915.05,2875.9 3915.05,2513.26 3785.97,2513.26 "/>
<path clip-path="url(#clip522)" d="M3915.05 2440.73 L3915.05 2875.9 L4044.12 2875.9 L4044.12 2440.73 L3915.05 2440.73 L3915.05 2440.73  Z" fill="#0000ff" fill-rule="evenodd" fill-opacity="1"/>
<polyline clip-path="url(#clip522)" style="stroke:#000000; stroke-linecap:round; stroke-linejoin:round; stroke-width:4; stroke-opacity:1; fill:none" points="3915.05,2440.73 3915.05,2875.9 4044.12,2875.9 4044.12,2440.73 3915.05,2440.73 "/>
<path clip-path="url(#clip522)" d="M4044.12 2513.26 L4044.12 2875.9 L4173.2 2875.9 L4173.2 2513.26 L4044.12 2513.26 L4044.12 2513.26  Z" fill="#0000ff" fill-rule="evenodd" fill-opacity="1"/>
<polyline clip-path="url(#clip522)" style="stroke:#000000; stroke-linecap:round; stroke-linejoin:round; stroke-width:4; stroke-opacity:1; fill:none" points="4044.12,2513.26 4044.12,2875.9 4173.2,2875.9 4173.2,2513.26 4044.12,2513.26 "/>
<path clip-path="url(#clip522)" d="M4173.2 2730.84 L4173.2 2875.9 L4302.28 2875.9 L4302.28 2730.84 L4173.2 2730.84 L4173.2 2730.84  Z" fill="#0000ff" fill-rule="evenodd" fill-opacity="1"/>
<polyline clip-path="url(#clip522)" style="stroke:#000000; stroke-linecap:round; stroke-linejoin:round; stroke-width:4; stroke-opacity:1; fill:none" points="4173.2,2730.84 4173.2,2875.9 4302.28,2875.9 4302.28,2730.84 4173.2,2730.84 "/>
<path clip-path="url(#clip522)" d="M4302.28 2658.31 L4302.28 2875.9 L4431.36 2875.9 L4431.36 2658.31 L4302.28 2658.31 L4302.28 2658.31  Z" fill="#0000ff" fill-rule="evenodd" fill-opacity="1"/>
<polyline clip-path="url(#clip522)" style="stroke:#000000; stroke-linecap:round; stroke-linejoin:round; stroke-width:4; stroke-opacity:1; fill:none" points="4302.28,2658.31 4302.28,2875.9 4431.36,2875.9 4431.36,2658.31 4302.28,2658.31 "/>
<path clip-path="url(#clip522)" d="M4431.36 2875.9 L4431.36 2875.9 L4560.44 2875.9 L4560.44 2875.9 L4431.36 2875.9 L4431.36 2875.9  Z" fill="#0000ff" fill-rule="evenodd" fill-opacity="1"/>
<polyline clip-path="url(#clip522)" style="stroke:#000000; stroke-linecap:round; stroke-linejoin:round; stroke-width:4; stroke-opacity:1; fill:none" points="4431.36,2875.9 4431.36,2875.9 4560.44,2875.9 4431.36,2875.9 "/>
<path clip-path="url(#clip522)" d="M4560.44 2875.9 L4560.44 2875.9 L4689.51 2875.9 L4689.51 2875.9 L4560.44 2875.9 L4560.44 2875.9  Z" fill="#0000ff" fill-rule="evenodd" fill-opacity="1"/>
<polyline clip-path="url(#clip522)" style="stroke:#000000; stroke-linecap:round; stroke-linejoin:round; stroke-width:4; stroke-opacity:1; fill:none" points="4560.44,2875.9 4560.44,2875.9 4689.51,2875.9 4560.44,2875.9 "/>
<circle clip-path="url(#clip522)" style="fill:#0000ff; stroke:none; fill-opacity:0" cx="494.476" cy="2875.9" r="2"/>
<circle clip-path="url(#clip522)" style="fill:#0000ff; stroke:none; fill-opacity:0" cx="623.555" cy="2875.9" r="2"/>
<circle clip-path="url(#clip522)" style="fill:#0000ff; stroke:none; fill-opacity:0" cx="752.633" cy="2803.37" r="2"/>
<circle clip-path="url(#clip522)" style="fill:#0000ff; stroke:none; fill-opacity:0" cx="881.711" cy="2730.84" r="2"/>
<circle clip-path="url(#clip522)" style="fill:#0000ff; stroke:none; fill-opacity:0" cx="1010.79" cy="2585.78" r="2"/>
<circle clip-path="url(#clip522)" style="fill:#0000ff; stroke:none; fill-opacity:0" cx="1139.87" cy="2440.73" r="2"/>
<circle clip-path="url(#clip522)" style="fill:#0000ff; stroke:none; fill-opacity:0" cx="1268.94" cy="2513.26" r="2"/>
<circle clip-path="url(#clip522)" style="fill:#0000ff; stroke:none; fill-opacity:0" cx="1398.02" cy="2078.08" r="2"/>
<circle clip-path="url(#clip522)" style="fill:#0000ff; stroke:none; fill-opacity:0" cx="1527.1" cy="2295.67" r="2"/>
<circle clip-path="url(#clip522)" style="fill:#0000ff; stroke:none; fill-opacity:0" cx="1656.18" cy="1642.9" r="2"/>
<circle clip-path="url(#clip522)" style="fill:#0000ff; stroke:none; fill-opacity:0" cx="1785.26" cy="2005.55" r="2"/>
<circle clip-path="url(#clip522)" style="fill:#0000ff; stroke:none; fill-opacity:0" cx="1914.34" cy="2295.67" r="2"/>
<circle clip-path="url(#clip522)" style="fill:#0000ff; stroke:none; fill-opacity:0" cx="2043.41" cy="2368.2" r="2"/>
<circle clip-path="url(#clip522)" style="fill:#0000ff; stroke:none; fill-opacity:0" cx="2172.49" cy="2368.2" r="2"/>
<circle clip-path="url(#clip522)" style="fill:#0000ff; stroke:none; fill-opacity:0" cx="2301.57" cy="2295.67" r="2"/>
<circle clip-path="url(#clip522)" style="fill:#0000ff; stroke:none; fill-opacity:0" cx="2430.65" cy="2658.31" r="2"/>
<circle clip-path="url(#clip522)" style="fill:#0000ff; stroke:none; fill-opacity:0" cx="2559.73" cy="2585.78" r="2"/>
<circle clip-path="url(#clip522)" style="fill:#0000ff; stroke:none; fill-opacity:0" cx="2688.8" cy="2585.78" r="2"/>
<circle clip-path="url(#clip522)" style="fill:#0000ff; stroke:none; fill-opacity:0" cx="2817.88" cy="2803.37" r="2"/>
<circle clip-path="url(#clip522)" style="fill:#0000ff; stroke:none; fill-opacity:0" cx="2946.96" cy="2803.37" r="2"/>
<circle clip-path="url(#clip522)" style="fill:#0000ff; stroke:none; fill-opacity:0" cx="3076.04" cy="2513.26" r="2"/>
<circle clip-path="url(#clip522)" style="fill:#0000ff; stroke:none; fill-opacity:0" cx="3205.12" cy="2658.31" r="2"/>
<circle clip-path="url(#clip522)" style="fill:#0000ff; stroke:none; fill-opacity:0" cx="3334.19" cy="2513.26" r="2"/>
<circle clip-path="url(#clip522)" style="fill:#0000ff; stroke:none; fill-opacity:0" cx="3463.27" cy="2368.2" r="2"/>
<circle clip-path="url(#clip522)" style="fill:#0000ff; stroke:none; fill-opacity:0" cx="3592.35" cy="2440.73" r="2"/>
<circle clip-path="url(#clip522)" style="fill:#0000ff; stroke:none; fill-opacity:0" cx="3721.43" cy="2078.08" r="2"/>
<circle clip-path="url(#clip522)" style="fill:#0000ff; stroke:none; fill-opacity:0" cx="3850.51" cy="2513.26" r="2"/>
<circle clip-path="url(#clip522)" style="fill:#0000ff; stroke:none; fill-opacity:0" cx="3979.58" cy="2440.73" r="2"/>
<circle clip-path="url(#clip522)" style="fill:#0000ff; stroke:none; fill-opacity:0" cx="4108.66" cy="2513.26" r="2"/>
<circle clip-path="url(#clip522)" style="fill:#0000ff; stroke:none; fill-opacity:0" cx="4237.74" cy="2730.84" r="2"/>
<circle clip-path="url(#clip522)" style="fill:#0000ff; stroke:none; fill-opacity:0" cx="4366.82" cy="2658.31" r="2"/>
<circle clip-path="url(#clip522)" style="fill:#0000ff; stroke:none; fill-opacity:0" cx="4495.9" cy="2875.9" r="2"/>
<circle clip-path="url(#clip522)" style="fill:#0000ff; stroke:none; fill-opacity:0" cx="4624.98" cy="2875.9" r="2"/>
<path clip-path="url(#clip522)" d="M429.937 2875.9 L429.937 2875.9 L559.015 2875.9 L559.015 2875.9 L429.937 2875.9 L429.937 2875.9  Z" fill="#ff0000" fill-rule="evenodd" fill-opacity="0.5"/>
<polyline clip-path="url(#clip522)" style="stroke:#000000; stroke-linecap:round; stroke-linejoin:round; stroke-width:4; stroke-opacity:0.5; fill:none" points="429.937,2875.9 429.937,2875.9 559.015,2875.9 429.937,2875.9 "/>
<path clip-path="url(#clip522)" d="M559.015 2875.9 L559.015 2875.9 L688.094 2875.9 L688.094 2875.9 L559.015 2875.9 L559.015 2875.9  Z" fill="#ff0000" fill-rule="evenodd" fill-opacity="0.5"/>
<polyline clip-path="url(#clip522)" style="stroke:#000000; stroke-linecap:round; stroke-linejoin:round; stroke-width:4; stroke-opacity:0.5; fill:none" points="559.015,2875.9 559.015,2875.9 688.094,2875.9 559.015,2875.9 "/>
<path clip-path="url(#clip522)" d="M688.094 2875.9 L688.094 2875.9 L817.172 2875.9 L817.172 2875.9 L688.094 2875.9 L688.094 2875.9  Z" fill="#ff0000" fill-rule="evenodd" fill-opacity="0.5"/>
<polyline clip-path="url(#clip522)" style="stroke:#000000; stroke-linecap:round; stroke-linejoin:round; stroke-width:4; stroke-opacity:0.5; fill:none" points="688.094,2875.9 688.094,2875.9 817.172,2875.9 688.094,2875.9 "/>
<path clip-path="url(#clip522)" d="M817.172 2875.9 L817.172 2875.9 L946.25 2875.9 L946.25 2875.9 L817.172 2875.9 L817.172 2875.9  Z" fill="#ff0000" fill-rule="evenodd" fill-opacity="0.5"/>
<polyline clip-path="url(#clip522)" style="stroke:#000000; stroke-linecap:round; stroke-linejoin:round; stroke-width:4; stroke-opacity:0.5; fill:none" points="817.172,2875.9 817.172,2875.9 946.25,2875.9 817.172,2875.9 "/>
<path clip-path="url(#clip522)" d="M946.25 2875.9 L946.25 2875.9 L1075.33 2875.9 L1075.33 2875.9 L946.25 2875.9 L946.25 2875.9  Z" fill="#ff0000" fill-rule="evenodd" fill-opacity="0.5"/>
<polyline clip-path="url(#clip522)" style="stroke:#000000; stroke-linecap:round; stroke-linejoin:round; stroke-width:4; stroke-opacity:0.5; fill:none" points="946.25,2875.9 946.25,2875.9 1075.33,2875.9 946.25,2875.9 "/>
<path clip-path="url(#clip522)" d="M1075.33 2875.9 L1075.33 2875.9 L1204.41 2875.9 L1204.41 2875.9 L1075.33 2875.9 L1075.33 2875.9  Z" fill="#ff0000" fill-rule="evenodd" fill-opacity="0.5"/>
<polyline clip-path="url(#clip522)" style="stroke:#000000; stroke-linecap:round; stroke-linejoin:round; stroke-width:4; stroke-opacity:0.5; fill:none" points="1075.33,2875.9 1075.33,2875.9 1204.41,2875.9 1075.33,2875.9 "/>
<path clip-path="url(#clip522)" d="M1204.41 2875.9 L1204.41 2875.9 L1333.48 2875.9 L1333.48 2875.9 L1204.41 2875.9 L1204.41 2875.9  Z" fill="#ff0000" fill-rule="evenodd" fill-opacity="0.5"/>
<polyline clip-path="url(#clip522)" style="stroke:#000000; stroke-linecap:round; stroke-linejoin:round; stroke-width:4; stroke-opacity:0.5; fill:none" points="1204.41,2875.9 1204.41,2875.9 1333.48,2875.9 1204.41,2875.9 "/>
<path clip-path="url(#clip522)" d="M1333.48 2875.9 L1333.48 2875.9 L1462.56 2875.9 L1462.56 2875.9 L1333.48 2875.9 L1333.48 2875.9  Z" fill="#ff0000" fill-rule="evenodd" fill-opacity="0.5"/>
<polyline clip-path="url(#clip522)" style="stroke:#000000; stroke-linecap:round; stroke-linejoin:round; stroke-width:4; stroke-opacity:0.5; fill:none" points="1333.48,2875.9 1333.48,2875.9 1462.56,2875.9 1333.48,2875.9 "/>
<path clip-path="url(#clip522)" d="M1462.56 192.304 L1462.56 2875.9 L1591.64 2875.9 L1591.64 192.304 L1462.56 192.304 L1462.56 192.304  Z" fill="#ff0000" fill-rule="evenodd" fill-opacity="0.5"/>
<polyline clip-path="url(#clip522)" style="stroke:#000000; stroke-linecap:round; stroke-linejoin:round; stroke-width:4; stroke-opacity:0.5; fill:none" points="1462.56,192.304 1462.56,2875.9 1591.64,2875.9 1591.64,192.304 1462.56,192.304 "/>
<path clip-path="url(#clip522)" d="M1591.64 1642.9 L1591.64 2875.9 L1720.72 2875.9 L1720.72 1642.9 L1591.64 1642.9 L1591.64 1642.9  Z" fill="#ff0000" fill-rule="evenodd" fill-opacity="0.5"/>
<polyline clip-path="url(#clip522)" style="stroke:#000000; stroke-linecap:round; stroke-linejoin:round; stroke-width:4; stroke-opacity:0.5; fill:none" points="1591.64,1642.9 1591.64,2875.9 1720.72,2875.9 1720.72,1642.9 1591.64,1642.9 "/>
<path clip-path="url(#clip522)" d="M1720.72 2005.55 L1720.72 2875.9 L1849.8 2875.9 L1849.8 2005.55 L1720.72 2005.55 L1720.72 2005.55  Z" fill="#ff0000" fill-rule="evenodd" fill-opacity="0.5"/>
<polyline clip-path="url(#clip522)" style="stroke:#000000; stroke-linecap:round; stroke-linejoin:round; stroke-width:4; stroke-opacity:0.5; fill:none" points="1720.72,2005.55 1720.72,2875.9 1849.8,2875.9 1849.8,2005.55 1720.72,2005.55 "/>
<path clip-path="url(#clip522)" d="M1849.8 2295.67 L1849.8 2875.9 L1978.87 2875.9 L1978.87 2295.67 L1849.8 2295.67 L1849.8 2295.67  Z" fill="#ff0000" fill-rule="evenodd" fill-opacity="0.5"/>
<polyline clip-path="url(#clip522)" style="stroke:#000000; stroke-linecap:round; stroke-linejoin:round; stroke-width:4; stroke-opacity:0.5; fill:none" points="1849.8,2295.67 1849.8,2875.9 1978.87,2875.9 1978.87,2295.67 1849.8,2295.67 "/>
<path clip-path="url(#clip522)" d="M1978.87 2368.2 L1978.87 2875.9 L2107.95 2875.9 L2107.95 2368.2 L1978.87 2368.2 L1978.87 2368.2  Z" fill="#ff0000" fill-rule="evenodd" fill-opacity="0.5"/>
<polyline clip-path="url(#clip522)" style="stroke:#000000; stroke-linecap:round; stroke-linejoin:round; stroke-width:4; stroke-opacity:0.5; fill:none" points="1978.87,2368.2 1978.87,2875.9 2107.95,2875.9 2107.95,2368.2 1978.87,2368.2 "/>
<path clip-path="url(#clip522)" d="M2107.95 2368.2 L2107.95 2875.9 L2237.03 2875.9 L2237.03 2368.2 L2107.95 2368.2 L2107.95 2368.2  Z" fill="#ff0000" fill-rule="evenodd" fill-opacity="0.5"/>
<polyline clip-path="url(#clip522)" style="stroke:#000000; stroke-linecap:round; stroke-linejoin:round; stroke-width:4; stroke-opacity:0.5; fill:none" points="2107.95,2368.2 2107.95,2875.9 2237.03,2875.9 2237.03,2368.2 2107.95,2368.2 "/>
<path clip-path="url(#clip522)" d="M2237.03 2295.67 L2237.03 2875.9 L2366.11 2875.9 L2366.11 2295.67 L2237.03 2295.67 L2237.03 2295.67  Z" fill="#ff0000" fill-rule="evenodd" fill-opacity="0.5"/>
<polyline clip-path="url(#clip522)" style="stroke:#000000; stroke-linecap:round; stroke-linejoin:round; stroke-width:4; stroke-opacity:0.5; fill:none" points="2237.03,2295.67 2237.03,2875.9 2366.11,2875.9 2366.11,2295.67 2237.03,2295.67 "/>
<path clip-path="url(#clip522)" d="M2366.11 2658.31 L2366.11 2875.9 L2495.19 2875.9 L2495.19 2658.31 L2366.11 2658.31 L2366.11 2658.31  Z" fill="#ff0000" fill-rule="evenodd" fill-opacity="0.5"/>
<polyline clip-path="url(#clip522)" style="stroke:#000000; stroke-linecap:round; stroke-linejoin:round; stroke-width:4; stroke-opacity:0.5; fill:none" points="2366.11,2658.31 2366.11,2875.9 2495.19,2875.9 2495.19,2658.31 2366.11,2658.31 "/>
<path clip-path="url(#clip522)" d="M2495.19 2585.78 L2495.19 2875.9 L2624.26 2875.9 L2624.26 2585.78 L2495.19 2585.78 L2495.19 2585.78  Z" fill="#ff0000" fill-rule="evenodd" fill-opacity="0.5"/>
<polyline clip-path="url(#clip522)" style="stroke:#000000; stroke-linecap:round; stroke-linejoin:round; stroke-width:4; stroke-opacity:0.5; fill:none" points="2495.19,2585.78 2495.19,2875.9 2624.26,2875.9 2624.26,2585.78 2495.19,2585.78 "/>
<path clip-path="url(#clip522)" d="M2624.26 2585.78 L2624.26 2875.9 L2753.34 2875.9 L2753.34 2585.78 L2624.26 2585.78 L2624.26 2585.78  Z" fill="#ff0000" fill-rule="evenodd" fill-opacity="0.5"/>
<polyline clip-path="url(#clip522)" style="stroke:#000000; stroke-linecap:round; stroke-linejoin:round; stroke-width:4; stroke-opacity:0.5; fill:none" points="2624.26,2585.78 2624.26,2875.9 2753.34,2875.9 2753.34,2585.78 2624.26,2585.78 "/>
<path clip-path="url(#clip522)" d="M2753.34 2803.37 L2753.34 2875.9 L2882.42 2875.9 L2882.42 2803.37 L2753.34 2803.37 L2753.34 2803.37  Z" fill="#ff0000" fill-rule="evenodd" fill-opacity="0.5"/>
<polyline clip-path="url(#clip522)" style="stroke:#000000; stroke-linecap:round; stroke-linejoin:round; stroke-width:4; stroke-opacity:0.5; fill:none" points="2753.34,2803.37 2753.34,2875.9 2882.42,2875.9 2882.42,2803.37 2753.34,2803.37 "/>
<path clip-path="url(#clip522)" d="M2882.42 2803.37 L2882.42 2875.9 L3011.5 2875.9 L3011.5 2803.37 L2882.42 2803.37 L2882.42 2803.37  Z" fill="#ff0000" fill-rule="evenodd" fill-opacity="0.5"/>
<polyline clip-path="url(#clip522)" style="stroke:#000000; stroke-linecap:round; stroke-linejoin:round; stroke-width:4; stroke-opacity:0.5; fill:none" points="2882.42,2803.37 2882.42,2875.9 3011.5,2875.9 3011.5,2803.37 2882.42,2803.37 "/>
<path clip-path="url(#clip522)" d="M3011.5 2513.26 L3011.5 2875.9 L3140.58 2875.9 L3140.58 2513.26 L3011.5 2513.26 L3011.5 2513.26  Z" fill="#ff0000" fill-rule="evenodd" fill-opacity="0.5"/>
<polyline clip-path="url(#clip522)" style="stroke:#000000; stroke-linecap:round; stroke-linejoin:round; stroke-width:4; stroke-opacity:0.5; fill:none" points="3011.5,2513.26 3011.5,2875.9 3140.58,2875.9 3140.58,2513.26 3011.5,2513.26 "/>
<path clip-path="url(#clip522)" d="M3140.58 2658.31 L3140.58 2875.9 L3269.66 2875.9 L3269.66 2658.31 L3140.58 2658.31 L3140.58 2658.31  Z" fill="#ff0000" fill-rule="evenodd" fill-opacity="0.5"/>
<polyline clip-path="url(#clip522)" style="stroke:#000000; stroke-linecap:round; stroke-linejoin:round; stroke-width:4; stroke-opacity:0.5; fill:none" points="3140.58,2658.31 3140.58,2875.9 3269.66,2875.9 3269.66,2658.31 3140.58,2658.31 "/>
<path clip-path="url(#clip522)" d="M3269.66 2513.26 L3269.66 2875.9 L3398.73 2875.9 L3398.73 2513.26 L3269.66 2513.26 L3269.66 2513.26  Z" fill="#ff0000" fill-rule="evenodd" fill-opacity="0.5"/>
<polyline clip-path="url(#clip522)" style="stroke:#000000; stroke-linecap:round; stroke-linejoin:round; stroke-width:4; stroke-opacity:0.5; fill:none" points="3269.66,2513.26 3269.66,2875.9 3398.73,2875.9 3398.73,2513.26 3269.66,2513.26 "/>
<path clip-path="url(#clip522)" d="M3398.73 2368.2 L3398.73 2875.9 L3527.81 2875.9 L3527.81 2368.2 L3398.73 2368.2 L3398.73 2368.2  Z" fill="#ff0000" fill-rule="evenodd" fill-opacity="0.5"/>
<polyline clip-path="url(#clip522)" style="stroke:#000000; stroke-linecap:round; stroke-linejoin:round; stroke-width:4; stroke-opacity:0.5; fill:none" points="3398.73,2368.2 3398.73,2875.9 3527.81,2875.9 3527.81,2368.2 3398.73,2368.2 "/>
<path clip-path="url(#clip522)" d="M3527.81 47.2441 L3527.81 2875.9 L3656.89 2875.9 L3656.89 47.2441 L3527.81 47.2441 L3527.81 47.2441  Z" fill="#ff0000" fill-rule="evenodd" fill-opacity="0.5"/>
<polyline clip-path="url(#clip522)" style="stroke:#000000; stroke-linecap:round; stroke-linejoin:round; stroke-width:4; stroke-opacity:0.5; fill:none" points="3527.81,47.2441 3527.81,2875.9 3656.89,2875.9 3656.89,47.2441 3527.81,47.2441 "/>
<path clip-path="url(#clip522)" d="M3656.89 2875.9 L3656.89 2875.9 L3785.97 2875.9 L3785.97 2875.9 L3656.89 2875.9 L3656.89 2875.9  Z" fill="#ff0000" fill-rule="evenodd" fill-opacity="0.5"/>
<polyline clip-path="url(#clip522)" style="stroke:#000000; stroke-linecap:round; stroke-linejoin:round; stroke-width:4; stroke-opacity:0.5; fill:none" points="3656.89,2875.9 3656.89,2875.9 3785.97,2875.9 3656.89,2875.9 "/>
<path clip-path="url(#clip522)" d="M3785.97 2875.9 L3785.97 2875.9 L3915.05 2875.9 L3915.05 2875.9 L3785.97 2875.9 L3785.97 2875.9  Z" fill="#ff0000" fill-rule="evenodd" fill-opacity="0.5"/>
<polyline clip-path="url(#clip522)" style="stroke:#000000; stroke-linecap:round; stroke-linejoin:round; stroke-width:4; stroke-opacity:0.5; fill:none" points="3785.97,2875.9 3785.97,2875.9 3915.05,2875.9 3785.97,2875.9 "/>
<path clip-path="url(#clip522)" d="M3915.05 2875.9 L3915.05 2875.9 L4044.12 2875.9 L4044.12 2875.9 L3915.05 2875.9 L3915.05 2875.9  Z" fill="#ff0000" fill-rule="evenodd" fill-opacity="0.5"/>
<polyline clip-path="url(#clip522)" style="stroke:#000000; stroke-linecap:round; stroke-linejoin:round; stroke-width:4; stroke-opacity:0.5; fill:none" points="3915.05,2875.9 3915.05,2875.9 4044.12,2875.9 3915.05,2875.9 "/>
<path clip-path="url(#clip522)" d="M4044.12 2875.9 L4044.12 2875.9 L4173.2 2875.9 L4173.2 2875.9 L4044.12 2875.9 L4044.12 2875.9  Z" fill="#ff0000" fill-rule="evenodd" fill-opacity="0.5"/>
<polyline clip-path="url(#clip522)" style="stroke:#000000; stroke-linecap:round; stroke-linejoin:round; stroke-width:4; stroke-opacity:0.5; fill:none" points="4044.12,2875.9 4044.12,2875.9 4173.2,2875.9 4044.12,2875.9 "/>
<path clip-path="url(#clip522)" d="M4173.2 2875.9 L4173.2 2875.9 L4302.28 2875.9 L4302.28 2875.9 L4173.2 2875.9 L4173.2 2875.9  Z" fill="#ff0000" fill-rule="evenodd" fill-opacity="0.5"/>
<polyline clip-path="url(#clip522)" style="stroke:#000000; stroke-linecap:round; stroke-linejoin:round; stroke-width:4; stroke-opacity:0.5; fill:none" points="4173.2,2875.9 4173.2,2875.9 4302.28,2875.9 4173.2,2875.9 "/>
<path clip-path="url(#clip522)" d="M4302.28 2875.9 L4302.28 2875.9 L4431.36 2875.9 L4431.36 2875.9 L4302.28 2875.9 L4302.28 2875.9  Z" fill="#ff0000" fill-rule="evenodd" fill-opacity="0.5"/>
<polyline clip-path="url(#clip522)" style="stroke:#000000; stroke-linecap:round; stroke-linejoin:round; stroke-width:4; stroke-opacity:0.5; fill:none" points="4302.28,2875.9 4302.28,2875.9 4431.36,2875.9 4302.28,2875.9 "/>
<path clip-path="url(#clip522)" d="M4431.36 2875.9 L4431.36 2875.9 L4560.44 2875.9 L4560.44 2875.9 L4431.36 2875.9 L4431.36 2875.9  Z" fill="#ff0000" fill-rule="evenodd" fill-opacity="0.5"/>
<polyline clip-path="url(#clip522)" style="stroke:#000000; stroke-linecap:round; stroke-linejoin:round; stroke-width:4; stroke-opacity:0.5; fill:none" points="4431.36,2875.9 4431.36,2875.9 4560.44,2875.9 4431.36,2875.9 "/>
<path clip-path="url(#clip522)" d="M4560.44 2875.9 L4560.44 2875.9 L4689.51 2875.9 L4689.51 2875.9 L4560.44 2875.9 L4560.44 2875.9  Z" fill="#ff0000" fill-rule="evenodd" fill-opacity="0.5"/>
<polyline clip-path="url(#clip522)" style="stroke:#000000; stroke-linecap:round; stroke-linejoin:round; stroke-width:4; stroke-opacity:0.5; fill:none" points="4560.44,2875.9 4560.44,2875.9 4689.51,2875.9 4560.44,2875.9 "/>
<circle clip-path="url(#clip522)" style="fill:#ff0000; stroke:none; fill-opacity:0" cx="494.476" cy="2875.9" r="2"/>
<circle clip-path="url(#clip522)" style="fill:#ff0000; stroke:none; fill-opacity:0" cx="623.555" cy="2875.9" r="2"/>
<circle clip-path="url(#clip522)" style="fill:#ff0000; stroke:none; fill-opacity:0" cx="752.633" cy="2875.9" r="2"/>
<circle clip-path="url(#clip522)" style="fill:#ff0000; stroke:none; fill-opacity:0" cx="881.711" cy="2875.9" r="2"/>
<circle clip-path="url(#clip522)" style="fill:#ff0000; stroke:none; fill-opacity:0" cx="1010.79" cy="2875.9" r="2"/>
<circle clip-path="url(#clip522)" style="fill:#ff0000; stroke:none; fill-opacity:0" cx="1139.87" cy="2875.9" r="2"/>
<circle clip-path="url(#clip522)" style="fill:#ff0000; stroke:none; fill-opacity:0" cx="1268.94" cy="2875.9" r="2"/>
<circle clip-path="url(#clip522)" style="fill:#ff0000; stroke:none; fill-opacity:0" cx="1398.02" cy="2875.9" r="2"/>
<circle clip-path="url(#clip522)" style="fill:#ff0000; stroke:none; fill-opacity:0" cx="1527.1" cy="192.304" r="2"/>
<circle clip-path="url(#clip522)" style="fill:#ff0000; stroke:none; fill-opacity:0" cx="1656.18" cy="1642.9" r="2"/>
<circle clip-path="url(#clip522)" style="fill:#ff0000; stroke:none; fill-opacity:0" cx="1785.26" cy="2005.55" r="2"/>
<circle clip-path="url(#clip522)" style="fill:#ff0000; stroke:none; fill-opacity:0" cx="1914.34" cy="2295.67" r="2"/>
<circle clip-path="url(#clip522)" style="fill:#ff0000; stroke:none; fill-opacity:0" cx="2043.41" cy="2368.2" r="2"/>
<circle clip-path="url(#clip522)" style="fill:#ff0000; stroke:none; fill-opacity:0" cx="2172.49" cy="2368.2" r="2"/>
<circle clip-path="url(#clip522)" style="fill:#ff0000; stroke:none; fill-opacity:0" cx="2301.57" cy="2295.67" r="2"/>
<circle clip-path="url(#clip522)" style="fill:#ff0000; stroke:none; fill-opacity:0" cx="2430.65" cy="2658.31" r="2"/>
<circle clip-path="url(#clip522)" style="fill:#ff0000; stroke:none; fill-opacity:0" cx="2559.73" cy="2585.78" r="2"/>
<circle clip-path="url(#clip522)" style="fill:#ff0000; stroke:none; fill-opacity:0" cx="2688.8" cy="2585.78" r="2"/>
<circle clip-path="url(#clip522)" style="fill:#ff0000; stroke:none; fill-opacity:0" cx="2817.88" cy="2803.37" r="2"/>
<circle clip-path="url(#clip522)" style="fill:#ff0000; stroke:none; fill-opacity:0" cx="2946.96" cy="2803.37" r="2"/>
<circle clip-path="url(#clip522)" style="fill:#ff0000; stroke:none; fill-opacity:0" cx="3076.04" cy="2513.26" r="2"/>
<circle clip-path="url(#clip522)" style="fill:#ff0000; stroke:none; fill-opacity:0" cx="3205.12" cy="2658.31" r="2"/>
<circle clip-path="url(#clip522)" style="fill:#ff0000; stroke:none; fill-opacity:0" cx="3334.19" cy="2513.26" r="2"/>
<circle clip-path="url(#clip522)" style="fill:#ff0000; stroke:none; fill-opacity:0" cx="3463.27" cy="2368.2" r="2"/>
<circle clip-path="url(#clip522)" style="fill:#ff0000; stroke:none; fill-opacity:0" cx="3592.35" cy="47.2441" r="2"/>
<circle clip-path="url(#clip522)" style="fill:#ff0000; stroke:none; fill-opacity:0" cx="3721.43" cy="2875.9" r="2"/>
<circle clip-path="url(#clip522)" style="fill:#ff0000; stroke:none; fill-opacity:0" cx="3850.51" cy="2875.9" r="2"/>
<circle clip-path="url(#clip522)" style="fill:#ff0000; stroke:none; fill-opacity:0" cx="3979.58" cy="2875.9" r="2"/>
<circle clip-path="url(#clip522)" style="fill:#ff0000; stroke:none; fill-opacity:0" cx="4108.66" cy="2875.9" r="2"/>
<circle clip-path="url(#clip522)" style="fill:#ff0000; stroke:none; fill-opacity:0" cx="4237.74" cy="2875.9" r="2"/>
<circle clip-path="url(#clip522)" style="fill:#ff0000; stroke:none; fill-opacity:0" cx="4366.82" cy="2875.9" r="2"/>
<circle clip-path="url(#clip522)" style="fill:#ff0000; stroke:none; fill-opacity:0" cx="4495.9" cy="2875.9" r="2"/>
<circle clip-path="url(#clip522)" style="fill:#ff0000; stroke:none; fill-opacity:0" cx="4624.98" cy="2875.9" r="2"/>
<path clip-path="url(#clip520)" d="M4051.1 297.053 L4793.22 297.053 L4793.22 141.533 L4051.1 141.533  Z" fill="#ffffff" fill-rule="evenodd" fill-opacity="1"/>
<polyline clip-path="url(#clip520)" style="stroke:#000000; stroke-linecap:round; stroke-linejoin:round; stroke-width:4; stroke-opacity:1; fill:none" points="4051.1,297.053 4793.22,297.053 4793.22,141.533 4051.1,141.533 4051.1,297.053 "/>
<path clip-path="url(#clip520)" d="M4104.28 214.109 L4423.35 214.109 L4423.35 172.637 L4104.28 172.637 L4104.28 214.109  Z" fill="#0000ff" fill-rule="evenodd" fill-opacity="1"/>
<polyline clip-path="url(#clip520)" style="stroke:#000000; stroke-linecap:round; stroke-linejoin:round; stroke-width:4; stroke-opacity:1; fill:none" points="4104.28,214.109 4423.35,214.109 4423.35,172.637 4104.28,172.637 4104.28,214.109 "/>
<path clip-path="url(#clip520)" d="M4495.44 188.662 L4495.44 174.634 L4499.7 174.634 L4499.7 210.653 L4495.44 210.653 L4495.44 206.764 Q4494.09 209.079 4492.03 210.213 Q4490 211.324 4487.13 211.324 Q4482.43 211.324 4479.46 207.574 Q4476.53 203.824 4476.53 197.713 Q4476.53 191.602 4479.46 187.852 Q4482.43 184.102 4487.13 184.102 Q4490 184.102 4492.03 185.236 Q4494.09 186.347 4495.44 188.662 M4480.92 197.713 Q4480.92 202.412 4482.84 205.097 Q4484.79 207.759 4488.17 207.759 Q4491.55 207.759 4493.49 205.097 Q4495.44 202.412 4495.44 197.713 Q4495.44 193.014 4493.49 190.352 Q4491.55 187.667 4488.17 187.667 Q4484.79 187.667 4482.84 190.352 Q4480.92 193.014 4480.92 197.713 Z" fill="#000000" fill-rule="nonzero" fill-opacity="1" /><path clip-path="url(#clip520)" d="M4508.47 184.727 L4512.73 184.727 L4512.73 210.653 L4508.47 210.653 L4508.47 184.727 M4508.47 174.634 L4512.73 174.634 L4512.73 180.028 L4508.47 180.028 L4508.47 174.634 Z" fill="#000000" fill-rule="nonzero" fill-opacity="1" /><path clip-path="url(#clip520)" d="M4538.17 185.491 L4538.17 189.519 Q4536.36 188.593 4534.42 188.13 Q4532.47 187.667 4530.39 187.667 Q4527.22 187.667 4525.62 188.639 Q4524.05 189.611 4524.05 191.556 Q4524.05 193.037 4525.18 193.894 Q4526.32 194.727 4529.74 195.491 L4531.2 195.815 Q4535.74 196.787 4537.64 198.569 Q4539.56 200.329 4539.56 203.5 Q4539.56 207.111 4536.69 209.218 Q4533.84 211.324 4528.84 211.324 Q4526.76 211.324 4524.49 210.907 Q4522.24 210.514 4519.74 209.704 L4519.74 205.306 Q4522.1 206.532 4524.4 207.157 Q4526.69 207.759 4528.93 207.759 Q4531.94 207.759 4533.56 206.741 Q4535.18 205.699 4535.18 203.824 Q4535.18 202.088 4534 201.162 Q4532.84 200.236 4528.89 199.38 L4527.4 199.032 Q4523.45 198.199 4521.69 196.486 Q4519.93 194.75 4519.93 191.741 Q4519.93 188.083 4522.52 186.093 Q4525.11 184.102 4529.88 184.102 Q4532.24 184.102 4534.33 184.449 Q4536.41 184.796 4538.17 185.491 Z" fill="#000000" fill-rule="nonzero" fill-opacity="1" /><path clip-path="url(#clip520)" d="M4550.55 177.366 L4550.55 184.727 L4559.33 184.727 L4559.33 188.037 L4550.55 188.037 L4550.55 202.111 Q4550.55 205.282 4551.41 206.185 Q4552.29 207.088 4554.95 207.088 L4559.33 207.088 L4559.33 210.653 L4554.95 210.653 Q4550.02 210.653 4548.14 208.824 Q4546.27 206.972 4546.27 202.111 L4546.27 188.037 L4543.15 188.037 L4543.15 184.727 L4546.27 184.727 L4546.27 177.366 L4550.55 177.366 Z" fill="#000000" fill-rule="nonzero" fill-opacity="1" /><path clip-path="url(#clip520)" d="M4579.95 188.708 Q4579.23 188.292 4578.38 188.107 Q4577.54 187.898 4576.52 187.898 Q4572.91 187.898 4570.97 190.259 Q4569.05 192.597 4569.05 196.995 L4569.05 210.653 L4564.77 210.653 L4564.77 184.727 L4569.05 184.727 L4569.05 188.755 Q4570.39 186.394 4572.54 185.259 Q4574.7 184.102 4577.77 184.102 Q4578.21 184.102 4578.75 184.171 Q4579.28 184.218 4579.93 184.333 L4579.95 188.708 Z" fill="#000000" fill-rule="nonzero" fill-opacity="1" /><path clip-path="url(#clip520)" d="M4584.42 184.727 L4588.68 184.727 L4588.68 210.653 L4584.42 210.653 L4584.42 184.727 M4584.42 174.634 L4588.68 174.634 L4588.68 180.028 L4584.42 180.028 L4584.42 174.634 Z" fill="#000000" fill-rule="nonzero" fill-opacity="1" /><path clip-path="url(#clip520)" d="M4616.2 197.713 Q4616.2 193.014 4614.26 190.352 Q4612.33 187.667 4608.95 187.667 Q4605.58 187.667 4603.63 190.352 Q4601.71 193.014 4601.71 197.713 Q4601.71 202.412 4603.63 205.097 Q4605.58 207.759 4608.95 207.759 Q4612.33 207.759 4614.26 205.097 Q4616.2 202.412 4616.2 197.713 M4601.71 188.662 Q4603.05 186.347 4605.09 185.236 Q4607.15 184.102 4610 184.102 Q4614.72 184.102 4617.66 187.852 Q4620.62 191.602 4620.62 197.713 Q4620.62 203.824 4617.66 207.574 Q4614.72 211.324 4610 211.324 Q4607.15 211.324 4605.09 210.213 Q4603.05 209.079 4601.71 206.764 L4601.71 210.653 L4597.43 210.653 L4597.43 174.634 L4601.71 174.634 L4601.71 188.662 Z" fill="#000000" fill-rule="nonzero" fill-opacity="1" /><path clip-path="url(#clip520)" d="M4627.24 200.421 L4627.24 184.727 L4631.5 184.727 L4631.5 200.259 Q4631.5 203.94 4632.94 205.792 Q4634.37 207.62 4637.24 207.62 Q4640.69 207.62 4642.68 205.421 Q4644.7 203.222 4644.7 199.426 L4644.7 184.727 L4648.95 184.727 L4648.95 210.653 L4644.7 210.653 L4644.7 206.671 Q4643.14 209.032 4641.08 210.19 Q4639.05 211.324 4636.34 211.324 Q4631.87 211.324 4629.56 208.546 Q4627.24 205.769 4627.24 200.421 M4637.96 184.102 L4637.96 184.102 Z" fill="#000000" fill-rule="nonzero" fill-opacity="1" /><path clip-path="url(#clip520)" d="M4661.94 177.366 L4661.94 184.727 L4670.71 184.727 L4670.71 188.037 L4661.94 188.037 L4661.94 202.111 Q4661.94 205.282 4662.8 206.185 Q4663.68 207.088 4666.34 207.088 L4670.71 207.088 L4670.71 210.653 L4666.34 210.653 Q4661.41 210.653 4659.53 208.824 Q4657.66 206.972 4657.66 202.111 L4657.66 188.037 L4654.53 188.037 L4654.53 184.727 L4657.66 184.727 L4657.66 177.366 L4661.94 177.366 Z" fill="#000000" fill-rule="nonzero" fill-opacity="1" /><path clip-path="url(#clip520)" d="M4676.32 184.727 L4680.57 184.727 L4680.57 210.653 L4676.32 210.653 L4676.32 184.727 M4676.32 174.634 L4680.57 174.634 L4680.57 180.028 L4676.32 180.028 L4676.32 174.634 Z" fill="#000000" fill-rule="nonzero" fill-opacity="1" /><path clip-path="url(#clip520)" d="M4699.53 187.713 Q4696.11 187.713 4694.12 190.398 Q4692.13 193.06 4692.13 197.713 Q4692.13 202.366 4694.09 205.051 Q4696.08 207.713 4699.53 207.713 Q4702.94 207.713 4704.93 205.028 Q4706.92 202.343 4706.92 197.713 Q4706.92 193.107 4704.93 190.421 Q4702.94 187.713 4699.53 187.713 M4699.53 184.102 Q4705.09 184.102 4708.26 187.713 Q4711.43 191.324 4711.43 197.713 Q4711.43 204.079 4708.26 207.713 Q4705.09 211.324 4699.53 211.324 Q4693.95 211.324 4690.78 207.713 Q4687.63 204.079 4687.63 197.713 Q4687.63 191.324 4690.78 187.713 Q4693.95 184.102 4699.53 184.102 Z" fill="#000000" fill-rule="nonzero" fill-opacity="1" /><path clip-path="url(#clip520)" d="M4740.04 195.005 L4740.04 210.653 L4735.78 210.653 L4735.78 195.144 Q4735.78 191.463 4734.35 189.634 Q4732.91 187.806 4730.04 187.806 Q4726.59 187.806 4724.6 190.005 Q4722.61 192.204 4722.61 196 L4722.61 210.653 L4718.33 210.653 L4718.33 184.727 L4722.61 184.727 L4722.61 188.755 Q4724.14 186.417 4726.2 185.259 Q4728.28 184.102 4730.99 184.102 Q4735.46 184.102 4737.75 186.88 Q4740.04 189.634 4740.04 195.005 Z" fill="#000000" fill-rule="nonzero" fill-opacity="1" /><path clip-path="url(#clip520)" d="M4104.28 265.949 L4423.35 265.949 L4423.35 224.477 L4104.28 224.477 L4104.28 265.949  Z" fill="#ff0000" fill-rule="evenodd" fill-opacity="0.5"/>
<polyline clip-path="url(#clip520)" style="stroke:#000000; stroke-linecap:round; stroke-linejoin:round; stroke-width:4; stroke-opacity:1; fill:none" points="4104.28,265.949 4423.35,265.949 4423.35,224.477 4104.28,224.477 4104.28,265.949 "/>
<path clip-path="url(#clip520)" d="M4476.53 236.567 L4480.78 236.567 L4486.11 256.798 L4491.41 236.567 L4496.43 236.567 L4501.76 256.798 L4507.06 236.567 L4511.32 236.567 L4504.53 262.493 L4499.51 262.493 L4493.93 241.243 L4488.33 262.493 L4483.31 262.493 L4476.53 236.567 Z" fill="#000000" fill-rule="nonzero" fill-opacity="1" /><path clip-path="url(#clip520)" d="M4517.77 236.567 L4522.03 236.567 L4522.03 262.493 L4517.77 262.493 L4517.77 236.567 M4517.77 226.474 L4522.03 226.474 L4522.03 231.868 L4517.77 231.868 L4517.77 226.474 Z" fill="#000000" fill-rule="nonzero" fill-opacity="1" /><path clip-path="url(#clip520)" d="M4552.5 246.845 L4552.5 262.493 L4548.24 262.493 L4548.24 246.984 Q4548.24 243.303 4546.8 241.474 Q4545.37 239.646 4542.5 239.646 Q4539.05 239.646 4537.06 241.845 Q4535.07 244.044 4535.07 247.84 L4535.07 262.493 L4530.78 262.493 L4530.78 236.567 L4535.07 236.567 L4535.07 240.595 Q4536.59 238.257 4538.65 237.099 Q4540.74 235.942 4543.45 235.942 Q4547.91 235.942 4550.21 238.72 Q4552.5 241.474 4552.5 246.845 Z" fill="#000000" fill-rule="nonzero" fill-opacity="1" /><path clip-path="url(#clip520)" d="M4577.52 237.331 L4577.52 241.359 Q4575.71 240.433 4573.77 239.97 Q4571.83 239.507 4569.74 239.507 Q4566.57 239.507 4564.97 240.479 Q4563.4 241.451 4563.4 243.396 Q4563.4 244.877 4564.53 245.734 Q4565.67 246.567 4569.09 247.331 L4570.55 247.655 Q4575.09 248.627 4576.99 250.409 Q4578.91 252.169 4578.91 255.34 Q4578.91 258.951 4576.04 261.058 Q4573.19 263.164 4568.19 263.164 Q4566.11 263.164 4563.84 262.747 Q4561.59 262.354 4559.09 261.544 L4559.09 257.146 Q4561.46 258.372 4563.75 258.997 Q4566.04 259.599 4568.28 259.599 Q4571.29 259.599 4572.91 258.581 Q4574.53 257.539 4574.53 255.664 Q4574.53 253.928 4573.35 253.002 Q4572.2 252.076 4568.24 251.22 L4566.76 250.872 Q4562.8 250.039 4561.04 248.326 Q4559.28 246.59 4559.28 243.581 Q4559.28 239.923 4561.87 237.933 Q4564.46 235.942 4569.23 235.942 Q4571.59 235.942 4573.68 236.289 Q4575.76 236.636 4577.52 237.331 Z" fill="#000000" fill-rule="nonzero" fill-opacity="1" /><path clip-path="url(#clip520)" d="M4595.74 239.553 Q4592.31 239.553 4590.32 242.238 Q4588.33 244.9 4588.33 249.553 Q4588.33 254.206 4590.3 256.891 Q4592.29 259.553 4595.74 259.553 Q4599.14 259.553 4601.13 256.868 Q4603.12 254.183 4603.12 249.553 Q4603.12 244.947 4601.13 242.261 Q4599.14 239.553 4595.74 239.553 M4595.74 235.942 Q4601.29 235.942 4604.46 239.553 Q4607.64 243.164 4607.64 249.553 Q4607.64 255.919 4604.46 259.553 Q4601.29 263.164 4595.74 263.164 Q4590.16 263.164 4586.99 259.553 Q4583.84 255.919 4583.84 249.553 Q4583.84 243.164 4586.99 239.553 Q4590.16 235.942 4595.74 235.942 Z" fill="#000000" fill-rule="nonzero" fill-opacity="1" /><path clip-path="url(#clip520)" d="M4629.72 240.548 Q4629 240.132 4628.14 239.947 Q4627.31 239.738 4626.29 239.738 Q4622.68 239.738 4620.74 242.099 Q4618.82 244.437 4618.82 248.835 L4618.82 262.493 L4614.53 262.493 L4614.53 236.567 L4618.82 236.567 L4618.82 240.595 Q4620.16 238.234 4622.31 237.099 Q4624.46 235.942 4627.54 235.942 Q4627.98 235.942 4628.51 236.011 Q4629.05 236.058 4629.7 236.173 L4629.72 240.548 Z" fill="#000000" fill-rule="nonzero" fill-opacity="1" /><path clip-path="url(#clip520)" d="M4634.19 236.567 L4638.45 236.567 L4638.45 262.493 L4634.19 262.493 L4634.19 236.567 M4634.19 226.474 L4638.45 226.474 L4638.45 231.868 L4634.19 231.868 L4634.19 226.474 Z" fill="#000000" fill-rule="nonzero" fill-opacity="1" /><path clip-path="url(#clip520)" d="M4645.51 236.567 L4665.74 236.567 L4665.74 240.456 L4649.72 259.09 L4665.74 259.09 L4665.74 262.493 L4644.93 262.493 L4644.93 258.604 L4660.95 239.97 L4645.51 239.97 L4645.51 236.567 Z" fill="#000000" fill-rule="nonzero" fill-opacity="1" /><path clip-path="url(#clip520)" d="M4694.42 248.465 L4694.42 250.548 L4674.83 250.548 Q4675.11 254.946 4677.47 257.261 Q4679.86 259.553 4684.09 259.553 Q4686.55 259.553 4688.84 258.951 Q4691.15 258.349 4693.42 257.146 L4693.42 261.173 Q4691.13 262.146 4688.72 262.655 Q4686.32 263.164 4683.84 263.164 Q4677.64 263.164 4674 259.553 Q4670.39 255.942 4670.39 249.784 Q4670.39 243.419 4673.82 239.692 Q4677.26 235.942 4683.1 235.942 Q4688.33 235.942 4691.36 239.322 Q4694.42 242.678 4694.42 248.465 M4690.16 247.215 Q4690.11 243.72 4688.19 241.636 Q4686.29 239.553 4683.14 239.553 Q4679.58 239.553 4677.43 241.567 Q4675.3 243.581 4674.97 247.238 L4690.16 247.215 Z" fill="#000000" fill-rule="nonzero" fill-opacity="1" /><path clip-path="url(#clip520)" d="M4718.47 240.502 L4718.47 226.474 L4722.73 226.474 L4722.73 262.493 L4718.47 262.493 L4718.47 258.604 Q4717.13 260.919 4715.07 262.053 Q4713.03 263.164 4710.16 263.164 Q4705.46 263.164 4702.5 259.414 Q4699.56 255.664 4699.56 249.553 Q4699.56 243.442 4702.5 239.692 Q4705.46 235.942 4710.16 235.942 Q4713.03 235.942 4715.07 237.076 Q4717.13 238.187 4718.47 240.502 M4703.95 249.553 Q4703.95 254.252 4705.88 256.937 Q4707.82 259.599 4711.2 259.599 Q4714.58 259.599 4716.52 256.937 Q4718.47 254.252 4718.47 249.553 Q4718.47 244.854 4716.52 242.192 Q4714.58 239.507 4711.2 239.507 Q4707.82 239.507 4705.88 242.192 Q4703.95 244.854 4703.95 249.553 Z" fill="#000000" fill-rule="nonzero" fill-opacity="1" /></svg>
