<?xml version="1.0" encoding="utf-8"?>
<svg xmlns="http://www.w3.org/2000/svg" xmlns:xlink="http://www.w3.org/1999/xlink" width="1250" height="750" viewBox="0 0 5000 3000">
<defs>
  <clipPath id="clip560">
    <rect x="0" y="0" width="5000" height="3000"/>
  </clipPath>
</defs>
<path clip-path="url(#clip560)" d="M0 3000 L5000 3000 L5000 0 L0 0  Z" fill="#ffffff" fill-rule="evenodd" fill-opacity="1"/>
<defs>
  <clipPath id="clip561">
    <rect x="1000" y="0" width="3501" height="3000"/>
  </clipPath>
</defs>
<path clip-path="url(#clip560)" d="M167.853 2875.9 L4952.76 2875.9 L4952.76 47.2441 L167.853 47.2441  Z" fill="#ffffff" fill-rule="evenodd" fill-opacity="1"/>
<defs>
  <clipPath id="clip562">
    <rect x="167" y="47" width="4786" height="2830"/>
  </clipPath>
</defs>
<polyline clip-path="url(#clip562)" style="stroke:#000000; stroke-linecap:round; stroke-linejoin:round; stroke-width:2; stroke-opacity:0.1; fill:none" points="785.91,2875.9 785.91,47.2441 "/>
<polyline clip-path="url(#clip562)" style="stroke:#000000; stroke-linecap:round; stroke-linejoin:round; stroke-width:2; stroke-opacity:0.1; fill:none" points="1968.84,2875.9 1968.84,47.2441 "/>
<polyline clip-path="url(#clip562)" style="stroke:#000000; stroke-linecap:round; stroke-linejoin:round; stroke-width:2; stroke-opacity:0.1; fill:none" points="3151.77,2875.9 3151.77,47.2441 "/>
<polyline clip-path="url(#clip562)" style="stroke:#000000; stroke-linecap:round; stroke-linejoin:round; stroke-width:2; stroke-opacity:0.1; fill:none" points="4334.7,2875.9 4334.7,47.2441 "/>
<polyline clip-path="url(#clip562)" style="stroke:#000000; stroke-linecap:round; stroke-linejoin:round; stroke-width:2; stroke-opacity:0.1; fill:none" points="785.91,2875.9 785.91,47.2441 "/>
<polyline clip-path="url(#clip562)" style="stroke:#000000; stroke-linecap:round; stroke-linejoin:round; stroke-width:2; stroke-opacity:0.1; fill:none" points="1968.84,2875.9 1968.84,47.2441 "/>
<polyline clip-path="url(#clip562)" style="stroke:#000000; stroke-linecap:round; stroke-linejoin:round; stroke-width:2; stroke-opacity:0.1; fill:none" points="3151.77,2875.9 3151.77,47.2441 "/>
<polyline clip-path="url(#clip562)" style="stroke:#000000; stroke-linecap:round; stroke-linejoin:round; stroke-width:2; stroke-opacity:0.1; fill:none" points="4334.7,2875.9 4334.7,47.2441 "/>
<polyline clip-path="url(#clip562)" style="stroke:#000000; stroke-linecap:round; stroke-linejoin:round; stroke-width:2; stroke-opacity:0.1; fill:none" points="167.853,2875.9 4952.76,2875.9 "/>
<polyline clip-path="url(#clip562)" style="stroke:#000000; stroke-linecap:round; stroke-linejoin:round; stroke-width:2; stroke-opacity:0.1; fill:none" points="167.853,2310.17 4952.76,2310.17 "/>
<polyline clip-path="url(#clip562)" style="stroke:#000000; stroke-linecap:round; stroke-linejoin:round; stroke-width:2; stroke-opacity:0.1; fill:none" points="167.853,1744.44 4952.76,1744.44 "/>
<polyline clip-path="url(#clip562)" style="stroke:#000000; stroke-linecap:round; stroke-linejoin:round; stroke-width:2; stroke-opacity:0.1; fill:none" points="167.853,1178.71 4952.76,1178.71 "/>
<polyline clip-path="url(#clip562)" style="stroke:#000000; stroke-linecap:round; stroke-linejoin:round; stroke-width:2; stroke-opacity:0.1; fill:none" points="167.853,612.976 4952.76,612.976 "/>
<polyline clip-path="url(#clip562)" style="stroke:#000000; stroke-linecap:round; stroke-linejoin:round; stroke-width:2; stroke-opacity:0.1; fill:none" points="167.853,47.2441 4952.76,47.2441 "/>
<polyline clip-path="url(#clip562)" style="stroke:#000000; stroke-linecap:round; stroke-linejoin:round; stroke-width:2; stroke-opacity:0.1; fill:none" points="167.853,2875.9 4952.76,2875.9 "/>
<polyline clip-path="url(#clip562)" style="stroke:#000000; stroke-linecap:round; stroke-linejoin:round; stroke-width:2; stroke-opacity:0.1; fill:none" points="167.853,2310.17 4952.76,2310.17 "/>
<polyline clip-path="url(#clip562)" style="stroke:#000000; stroke-linecap:round; stroke-linejoin:round; stroke-width:2; stroke-opacity:0.1; fill:none" points="167.853,1744.44 4952.76,1744.44 "/>
<polyline clip-path="url(#clip562)" style="stroke:#000000; stroke-linecap:round; stroke-linejoin:round; stroke-width:2; stroke-opacity:0.1; fill:none" points="167.853,1178.71 4952.76,1178.71 "/>
<polyline clip-path="url(#clip562)" style="stroke:#000000; stroke-linecap:round; stroke-linejoin:round; stroke-width:2; stroke-opacity:0.1; fill:none" points="167.853,612.976 4952.76,612.976 "/>
<polyline clip-path="url(#clip562)" style="stroke:#000000; stroke-linecap:round; stroke-linejoin:round; stroke-width:2; stroke-opacity:0.1; fill:none" points="167.853,47.2441 4952.76,47.2441 "/>
<polyline clip-path="url(#clip560)" style="stroke:#000000; stroke-linecap:round; stroke-linejoin:round; stroke-width:4; stroke-opacity:1; fill:none" points="167.853,2875.9 4952.76,2875.9 "/>
<polyline clip-path="url(#clip560)" style="stroke:#000000; stroke-linecap:round; stroke-linejoin:round; stroke-width:4; stroke-opacity:1; fill:none" points="167.853,47.2441 4952.76,47.2441 "/>
<polyline clip-path="url(#clip560)" style="stroke:#000000; stroke-linecap:round; stroke-linejoin:round; stroke-width:4; stroke-opacity:1; fill:none" points="785.91,2875.9 785.91,2857.01 "/>
<polyline clip-path="url(#clip560)" style="stroke:#000000; stroke-linecap:round; stroke-linejoin:round; stroke-width:4; stroke-opacity:1; fill:none" points="1968.84,2875.9 1968.84,2857.01 "/>
<polyline clip-path="url(#clip560)" style="stroke:#000000; stroke-linecap:round; stroke-linejoin:round; stroke-width:4; stroke-opacity:1; fill:none" points="3151.77,2875.9 3151.77,2857.01 "/>
<polyline clip-path="url(#clip560)" style="stroke:#000000; stroke-linecap:round; stroke-linejoin:round; stroke-width:4; stroke-opacity:1; fill:none" points="4334.7,2875.9 4334.7,2857.01 "/>
<polyline clip-path="url(#clip560)" style="stroke:#000000; stroke-linecap:round; stroke-linejoin:round; stroke-width:4; stroke-opacity:1; fill:none" points="785.91,47.2441 785.91,66.1417 "/>
<polyline clip-path="url(#clip560)" style="stroke:#000000; stroke-linecap:round; stroke-linejoin:round; stroke-width:4; stroke-opacity:1; fill:none" points="1968.84,47.2441 1968.84,66.1417 "/>
<polyline clip-path="url(#clip560)" style="stroke:#000000; stroke-linecap:round; stroke-linejoin:round; stroke-width:4; stroke-opacity:1; fill:none" points="3151.77,47.2441 3151.77,66.1417 "/>
<polyline clip-path="url(#clip560)" style="stroke:#000000; stroke-linecap:round; stroke-linejoin:round; stroke-width:4; stroke-opacity:1; fill:none" points="4334.7,47.2441 4334.7,66.1417 "/>
<path clip-path="url(#clip560)" d="M744.591 2940.47 Q747.947 2941.19 749.822 2943.46 Q751.72 2945.72 751.72 2949.06 Q751.72 2954.17 748.202 2956.97 Q744.683 2959.78 738.202 2959.78 Q736.026 2959.78 733.711 2959.34 Q731.42 2958.92 728.966 2958.06 L728.966 2953.55 Q730.91 2954.68 733.225 2955.26 Q735.54 2955.84 738.063 2955.84 Q742.461 2955.84 744.753 2954.1 Q747.068 2952.37 747.068 2949.06 Q747.068 2946 744.915 2944.29 Q742.785 2942.55 738.966 2942.55 L734.938 2942.55 L734.938 2938.71 L739.151 2938.71 Q742.6 2938.71 744.429 2937.34 Q746.257 2935.96 746.257 2933.36 Q746.257 2930.7 744.359 2929.29 Q742.484 2927.85 738.966 2927.85 Q737.045 2927.85 734.845 2928.27 Q732.646 2928.69 730.008 2929.57 L730.008 2925.4 Q732.67 2924.66 734.984 2924.29 Q737.322 2923.92 739.382 2923.92 Q744.707 2923.92 747.808 2926.35 Q750.91 2928.76 750.91 2932.88 Q750.91 2935.75 749.267 2937.74 Q747.623 2939.71 744.591 2940.47 Z" fill="#000000" fill-rule="nonzero" fill-opacity="1" /><path clip-path="url(#clip560)" d="M770.586 2927.62 Q766.975 2927.62 765.146 2931.19 Q763.341 2934.73 763.341 2941.86 Q763.341 2948.97 765.146 2952.53 Q766.975 2956.07 770.586 2956.07 Q774.22 2956.07 776.026 2952.53 Q777.854 2948.97 777.854 2941.86 Q777.854 2934.73 776.026 2931.19 Q774.22 2927.62 770.586 2927.62 M770.586 2923.92 Q776.396 2923.92 779.452 2928.53 Q782.53 2933.11 782.53 2941.86 Q782.53 2950.59 779.452 2955.19 Q776.396 2959.78 770.586 2959.78 Q764.776 2959.78 761.697 2955.19 Q758.642 2950.59 758.642 2941.86 Q758.642 2933.11 761.697 2928.53 Q764.776 2923.92 770.586 2923.92 Z" fill="#000000" fill-rule="nonzero" fill-opacity="1" /><path clip-path="url(#clip560)" d="M800.748 2927.62 Q797.137 2927.62 795.308 2931.19 Q793.503 2934.73 793.503 2941.86 Q793.503 2948.97 795.308 2952.53 Q797.137 2956.07 800.748 2956.07 Q804.382 2956.07 806.188 2952.53 Q808.016 2948.97 808.016 2941.86 Q808.016 2934.73 806.188 2931.19 Q804.382 2927.62 800.748 2927.62 M800.748 2923.92 Q806.558 2923.92 809.614 2928.53 Q812.692 2933.11 812.692 2941.86 Q812.692 2950.59 809.614 2955.19 Q806.558 2959.78 800.748 2959.78 Q794.938 2959.78 791.859 2955.19 Q788.804 2950.59 788.804 2941.86 Q788.804 2933.11 791.859 2928.53 Q794.938 2923.92 800.748 2923.92 Z" fill="#000000" fill-rule="nonzero" fill-opacity="1" /><path clip-path="url(#clip560)" d="M830.91 2927.62 Q827.299 2927.62 825.47 2931.19 Q823.664 2934.73 823.664 2941.86 Q823.664 2948.97 825.47 2952.53 Q827.299 2956.07 830.91 2956.07 Q834.544 2956.07 836.35 2952.53 Q838.178 2948.97 838.178 2941.86 Q838.178 2934.73 836.35 2931.19 Q834.544 2927.62 830.91 2927.62 M830.91 2923.92 Q836.72 2923.92 839.775 2928.53 Q842.854 2933.11 842.854 2941.86 Q842.854 2950.59 839.775 2955.19 Q836.72 2959.78 830.91 2959.78 Q825.1 2959.78 822.021 2955.19 Q818.965 2950.59 818.965 2941.86 Q818.965 2933.11 822.021 2928.53 Q825.1 2923.92 830.91 2923.92 Z" fill="#000000" fill-rule="nonzero" fill-opacity="1" /><path clip-path="url(#clip560)" d="M1926.85 2928.62 L1915.04 2947.07 L1926.85 2947.07 L1926.85 2928.62 M1925.62 2924.54 L1931.5 2924.54 L1931.5 2947.07 L1936.43 2947.07 L1936.43 2950.96 L1931.5 2950.96 L1931.5 2959.1 L1926.85 2959.1 L1926.85 2950.96 L1911.25 2950.96 L1911.25 2946.44 L1925.62 2924.54 Z" fill="#000000" fill-rule="nonzero" fill-opacity="1" /><path clip-path="url(#clip560)" d="M1954.16 2927.62 Q1950.55 2927.62 1948.72 2931.19 Q1946.92 2934.73 1946.92 2941.86 Q1946.92 2948.97 1948.72 2952.53 Q1950.55 2956.07 1954.16 2956.07 Q1957.8 2956.07 1959.6 2952.53 Q1961.43 2948.97 1961.43 2941.86 Q1961.43 2934.73 1959.6 2931.19 Q1957.8 2927.62 1954.16 2927.62 M1954.16 2923.92 Q1959.97 2923.92 1963.03 2928.53 Q1966.11 2933.11 1966.11 2941.86 Q1966.11 2950.59 1963.03 2955.19 Q1959.97 2959.78 1954.16 2959.78 Q1948.35 2959.78 1945.27 2955.19 Q1942.22 2950.59 1942.22 2941.86 Q1942.22 2933.11 1945.27 2928.53 Q1948.35 2923.92 1954.16 2923.92 Z" fill="#000000" fill-rule="nonzero" fill-opacity="1" /><path clip-path="url(#clip560)" d="M1984.33 2927.62 Q1980.71 2927.62 1978.89 2931.19 Q1977.08 2934.73 1977.08 2941.86 Q1977.08 2948.97 1978.89 2952.53 Q1980.71 2956.07 1984.33 2956.07 Q1987.96 2956.07 1989.77 2952.53 Q1991.59 2948.97 1991.59 2941.86 Q1991.59 2934.73 1989.77 2931.19 Q1987.96 2927.62 1984.33 2927.62 M1984.33 2923.92 Q1990.14 2923.92 1993.19 2928.53 Q1996.27 2933.11 1996.27 2941.86 Q1996.27 2950.59 1993.19 2955.19 Q1990.14 2959.78 1984.33 2959.78 Q1978.52 2959.78 1975.44 2955.19 Q1972.38 2950.59 1972.38 2941.86 Q1972.38 2933.11 1975.44 2928.53 Q1978.52 2923.92 1984.33 2923.92 Z" fill="#000000" fill-rule="nonzero" fill-opacity="1" /><path clip-path="url(#clip560)" d="M2014.49 2927.62 Q2010.88 2927.62 2009.05 2931.19 Q2007.24 2934.73 2007.24 2941.86 Q2007.24 2948.97 2009.05 2952.53 Q2010.88 2956.07 2014.49 2956.07 Q2018.12 2956.07 2019.93 2952.53 Q2021.76 2948.97 2021.76 2941.86 Q2021.76 2934.73 2019.93 2931.19 Q2018.12 2927.62 2014.49 2927.62 M2014.49 2923.92 Q2020.3 2923.92 2023.35 2928.53 Q2026.43 2933.11 2026.43 2941.86 Q2026.43 2950.59 2023.35 2955.19 Q2020.3 2959.78 2014.49 2959.78 Q2008.68 2959.78 2005.6 2955.19 Q2002.54 2950.59 2002.54 2941.86 Q2002.54 2933.11 2005.6 2928.53 Q2008.68 2923.92 2014.49 2923.92 Z" fill="#000000" fill-rule="nonzero" fill-opacity="1" /><path clip-path="url(#clip560)" d="M3096.31 2924.54 L3114.66 2924.54 L3114.66 2928.48 L3100.59 2928.48 L3100.59 2936.95 Q3101.61 2936.6 3102.63 2936.44 Q3103.64 2936.26 3104.66 2936.26 Q3110.45 2936.26 3113.83 2939.43 Q3117.21 2942.6 3117.21 2948.02 Q3117.21 2953.59 3113.74 2956.7 Q3110.26 2959.78 3103.95 2959.78 Q3101.77 2959.78 3099.5 2959.4 Q3097.26 2959.03 3094.85 2958.29 L3094.85 2953.59 Q3096.93 2954.73 3099.15 2955.28 Q3101.38 2955.84 3103.85 2955.84 Q3107.86 2955.84 3110.2 2953.73 Q3112.53 2951.63 3112.53 2948.02 Q3112.53 2944.4 3110.2 2942.3 Q3107.86 2940.19 3103.85 2940.19 Q3101.98 2940.19 3100.1 2940.61 Q3098.25 2941.03 3096.31 2941.9 L3096.31 2924.54 Z" fill="#000000" fill-rule="nonzero" fill-opacity="1" /><path clip-path="url(#clip560)" d="M3136.42 2927.62 Q3132.81 2927.62 3130.98 2931.19 Q3129.18 2934.73 3129.18 2941.86 Q3129.18 2948.97 3130.98 2952.53 Q3132.81 2956.07 3136.42 2956.07 Q3140.06 2956.07 3141.86 2952.53 Q3143.69 2948.97 3143.69 2941.86 Q3143.69 2934.73 3141.86 2931.19 Q3140.06 2927.62 3136.42 2927.62 M3136.42 2923.92 Q3142.23 2923.92 3145.29 2928.53 Q3148.37 2933.11 3148.37 2941.86 Q3148.37 2950.59 3145.29 2955.19 Q3142.23 2959.78 3136.42 2959.78 Q3130.61 2959.78 3127.53 2955.19 Q3124.48 2950.59 3124.48 2941.86 Q3124.48 2933.11 3127.53 2928.53 Q3130.61 2923.92 3136.42 2923.92 Z" fill="#000000" fill-rule="nonzero" fill-opacity="1" /><path clip-path="url(#clip560)" d="M3166.58 2927.62 Q3162.97 2927.62 3161.14 2931.19 Q3159.34 2934.73 3159.34 2941.86 Q3159.34 2948.97 3161.14 2952.53 Q3162.97 2956.07 3166.58 2956.07 Q3170.22 2956.07 3172.02 2952.53 Q3173.85 2948.97 3173.85 2941.86 Q3173.85 2934.73 3172.02 2931.19 Q3170.22 2927.62 3166.58 2927.62 M3166.58 2923.92 Q3172.39 2923.92 3175.45 2928.53 Q3178.53 2933.11 3178.53 2941.86 Q3178.53 2950.59 3175.45 2955.19 Q3172.39 2959.78 3166.58 2959.78 Q3160.77 2959.78 3157.7 2955.19 Q3154.64 2950.59 3154.64 2941.86 Q3154.64 2933.11 3157.7 2928.53 Q3160.77 2923.92 3166.58 2923.92 Z" fill="#000000" fill-rule="nonzero" fill-opacity="1" /><path clip-path="url(#clip560)" d="M3196.75 2927.62 Q3193.13 2927.62 3191.31 2931.19 Q3189.5 2934.73 3189.5 2941.86 Q3189.5 2948.97 3191.31 2952.53 Q3193.13 2956.07 3196.75 2956.07 Q3200.38 2956.07 3202.19 2952.53 Q3204.01 2948.97 3204.01 2941.86 Q3204.01 2934.73 3202.19 2931.19 Q3200.38 2927.62 3196.75 2927.62 M3196.75 2923.92 Q3202.56 2923.92 3205.61 2928.53 Q3208.69 2933.11 3208.69 2941.86 Q3208.69 2950.59 3205.61 2955.19 Q3202.56 2959.78 3196.75 2959.78 Q3190.94 2959.78 3187.86 2955.19 Q3184.8 2950.59 3184.8 2941.86 Q3184.8 2933.11 3187.86 2928.53 Q3190.94 2923.92 3196.75 2923.92 Z" fill="#000000" fill-rule="nonzero" fill-opacity="1" /><path clip-path="url(#clip560)" d="M4289.94 2939.96 Q4286.79 2939.96 4284.94 2942.11 Q4283.11 2944.27 4283.11 2948.02 Q4283.11 2951.74 4284.94 2953.92 Q4286.79 2956.07 4289.94 2956.07 Q4293.09 2956.07 4294.92 2953.92 Q4296.77 2951.74 4296.77 2948.02 Q4296.77 2944.27 4294.92 2942.11 Q4293.09 2939.96 4289.94 2939.96 M4299.22 2925.31 L4299.22 2929.57 Q4297.47 2928.73 4295.66 2928.29 Q4293.88 2927.85 4292.12 2927.85 Q4287.49 2927.85 4285.03 2930.98 Q4282.6 2934.1 4282.26 2940.42 Q4283.62 2938.41 4285.68 2937.34 Q4287.74 2936.26 4290.22 2936.26 Q4295.43 2936.26 4298.44 2939.43 Q4301.47 2942.58 4301.47 2948.02 Q4301.47 2953.34 4298.32 2956.56 Q4295.17 2959.78 4289.94 2959.78 Q4283.95 2959.78 4280.78 2955.19 Q4277.6 2950.59 4277.6 2941.86 Q4277.6 2933.66 4281.49 2928.8 Q4285.38 2923.92 4291.93 2923.92 Q4293.69 2923.92 4295.47 2924.27 Q4297.28 2924.61 4299.22 2925.31 Z" fill="#000000" fill-rule="nonzero" fill-opacity="1" /><path clip-path="url(#clip560)" d="M4319.53 2927.62 Q4315.91 2927.62 4314.09 2931.19 Q4312.28 2934.73 4312.28 2941.86 Q4312.28 2948.97 4314.09 2952.53 Q4315.91 2956.07 4319.53 2956.07 Q4323.16 2956.07 4324.97 2952.53 Q4326.79 2948.97 4326.79 2941.86 Q4326.79 2934.73 4324.97 2931.19 Q4323.16 2927.62 4319.53 2927.62 M4319.53 2923.92 Q4325.34 2923.92 4328.39 2928.53 Q4331.47 2933.11 4331.47 2941.86 Q4331.47 2950.59 4328.39 2955.19 Q4325.34 2959.78 4319.53 2959.78 Q4313.72 2959.78 4310.64 2955.19 Q4307.58 2950.59 4307.58 2941.86 Q4307.58 2933.11 4310.64 2928.53 Q4313.72 2923.92 4319.53 2923.92 Z" fill="#000000" fill-rule="nonzero" fill-opacity="1" /><path clip-path="url(#clip560)" d="M4349.69 2927.62 Q4346.08 2927.62 4344.25 2931.19 Q4342.44 2934.73 4342.44 2941.86 Q4342.44 2948.97 4344.25 2952.53 Q4346.08 2956.07 4349.69 2956.07 Q4353.32 2956.07 4355.13 2952.53 Q4356.96 2948.97 4356.96 2941.86 Q4356.96 2934.73 4355.13 2931.19 Q4353.32 2927.62 4349.69 2927.62 M4349.69 2923.92 Q4355.5 2923.92 4358.55 2928.53 Q4361.63 2933.11 4361.63 2941.86 Q4361.63 2950.59 4358.55 2955.19 Q4355.5 2959.78 4349.69 2959.78 Q4343.88 2959.78 4340.8 2955.19 Q4337.74 2950.59 4337.74 2941.86 Q4337.74 2933.11 4340.8 2928.53 Q4343.88 2923.92 4349.69 2923.92 Z" fill="#000000" fill-rule="nonzero" fill-opacity="1" /><path clip-path="url(#clip560)" d="M4379.85 2927.62 Q4376.24 2927.62 4374.41 2931.19 Q4372.6 2934.73 4372.6 2941.86 Q4372.6 2948.97 4374.41 2952.53 Q4376.24 2956.07 4379.85 2956.07 Q4383.48 2956.07 4385.29 2952.53 Q4387.12 2948.97 4387.12 2941.86 Q4387.12 2934.73 4385.29 2931.19 Q4383.48 2927.62 4379.85 2927.62 M4379.85 2923.92 Q4385.66 2923.92 4388.71 2928.53 Q4391.79 2933.11 4391.79 2941.86 Q4391.79 2950.59 4388.71 2955.19 Q4385.66 2959.78 4379.85 2959.78 Q4374.04 2959.78 4370.96 2955.19 Q4367.9 2950.59 4367.9 2941.86 Q4367.9 2933.11 4370.96 2928.53 Q4374.04 2923.92 4379.85 2923.92 Z" fill="#000000" fill-rule="nonzero" fill-opacity="1" /><polyline clip-path="url(#clip560)" style="stroke:#000000; stroke-linecap:round; stroke-linejoin:round; stroke-width:4; stroke-opacity:1; fill:none" points="167.853,2875.9 167.853,47.2441 "/>
<polyline clip-path="url(#clip560)" style="stroke:#000000; stroke-linecap:round; stroke-linejoin:round; stroke-width:4; stroke-opacity:1; fill:none" points="4952.76,2875.9 4952.76,47.2441 "/>
<polyline clip-path="url(#clip560)" style="stroke:#000000; stroke-linecap:round; stroke-linejoin:round; stroke-width:4; stroke-opacity:1; fill:none" points="167.853,2875.9 186.751,2875.9 "/>
<polyline clip-path="url(#clip560)" style="stroke:#000000; stroke-linecap:round; stroke-linejoin:round; stroke-width:4; stroke-opacity:1; fill:none" points="167.853,2310.17 186.751,2310.17 "/>
<polyline clip-path="url(#clip560)" style="stroke:#000000; stroke-linecap:round; stroke-linejoin:round; stroke-width:4; stroke-opacity:1; fill:none" points="167.853,1744.44 186.751,1744.44 "/>
<polyline clip-path="url(#clip560)" style="stroke:#000000; stroke-linecap:round; stroke-linejoin:round; stroke-width:4; stroke-opacity:1; fill:none" points="167.853,1178.71 186.751,1178.71 "/>
<polyline clip-path="url(#clip560)" style="stroke:#000000; stroke-linecap:round; stroke-linejoin:round; stroke-width:4; stroke-opacity:1; fill:none" points="167.853,612.976 186.751,612.976 "/>
<polyline clip-path="url(#clip560)" style="stroke:#000000; stroke-linecap:round; stroke-linejoin:round; stroke-width:4; stroke-opacity:1; fill:none" points="167.853,47.2441 186.751,47.2441 "/>
<polyline clip-path="url(#clip560)" style="stroke:#000000; stroke-linecap:round; stroke-linejoin:round; stroke-width:4; stroke-opacity:1; fill:none" points="4952.76,2875.9 4933.86,2875.9 "/>
<polyline clip-path="url(#clip560)" style="stroke:#000000; stroke-linecap:round; stroke-linejoin:round; stroke-width:4; stroke-opacity:1; fill:none" points="4952.76,2310.17 4933.86,2310.17 "/>
<polyline clip-path="url(#clip560)" style="stroke:#000000; stroke-linecap:round; stroke-linejoin:round; stroke-width:4; stroke-opacity:1; fill:none" points="4952.76,1744.44 4933.86,1744.44 "/>
<polyline clip-path="url(#clip560)" style="stroke:#000000; stroke-linecap:round; stroke-linejoin:round; stroke-width:4; stroke-opacity:1; fill:none" points="4952.76,1178.71 4933.86,1178.71 "/>
<polyline clip-path="url(#clip560)" style="stroke:#000000; stroke-linecap:round; stroke-linejoin:round; stroke-width:4; stroke-opacity:1; fill:none" points="4952.76,612.976 4933.86,612.976 "/>
<polyline clip-path="url(#clip560)" style="stroke:#000000; stroke-linecap:round; stroke-linejoin:round; stroke-width:4; stroke-opacity:1; fill:none" points="4952.76,47.2441 4933.86,47.2441 "/>
<path clip-path="url(#clip560)" d="M80.9086 2861.7 Q77.2975 2861.7 75.4688 2865.27 Q73.6632 2868.81 73.6632 2875.94 Q73.6632 2883.05 75.4688 2886.61 Q77.2975 2890.15 80.9086 2890.15 Q84.5428 2890.15 86.3483 2886.61 Q88.177 2883.05 88.177 2875.94 Q88.177 2868.81 86.3483 2865.27 Q84.5428 2861.7 80.9086 2861.7 M80.9086 2858 Q86.7187 2858 89.7743 2862.61 Q92.8529 2867.19 92.8529 2875.94 Q92.8529 2884.67 89.7743 2889.27 Q86.7187 2893.86 80.9086 2893.86 Q75.0984 2893.86 72.0197 2889.27 Q68.9642 2884.67 68.9642 2875.94 Q68.9642 2867.19 72.0197 2862.61 Q75.0984 2858 80.9086 2858 Z" fill="#000000" fill-rule="nonzero" fill-opacity="1" /><path clip-path="url(#clip560)" d="M41.5569 2323.52 L49.1958 2323.52 L49.1958 2297.15 L40.8856 2298.82 L40.8856 2294.56 L49.1495 2292.89 L53.8254 2292.89 L53.8254 2323.52 L61.4642 2323.52 L61.4642 2327.45 L41.5569 2327.45 L41.5569 2323.52 Z" fill="#000000" fill-rule="nonzero" fill-opacity="1" /><path clip-path="url(#clip560)" d="M80.9086 2295.97 Q77.2975 2295.97 75.4688 2299.54 Q73.6632 2303.08 73.6632 2310.21 Q73.6632 2317.31 75.4688 2320.88 Q77.2975 2324.42 80.9086 2324.42 Q84.5428 2324.42 86.3483 2320.88 Q88.177 2317.31 88.177 2310.21 Q88.177 2303.08 86.3483 2299.54 Q84.5428 2295.97 80.9086 2295.97 M80.9086 2292.27 Q86.7187 2292.27 89.7743 2296.87 Q92.8529 2301.46 92.8529 2310.21 Q92.8529 2318.93 89.7743 2323.54 Q86.7187 2328.12 80.9086 2328.12 Q75.0984 2328.12 72.0197 2323.54 Q68.9642 2318.93 68.9642 2310.21 Q68.9642 2301.46 72.0197 2296.87 Q75.0984 2292.27 80.9086 2292.27 Z" fill="#000000" fill-rule="nonzero" fill-opacity="1" /><path clip-path="url(#clip560)" d="M44.7745 1757.78 L61.0939 1757.78 L61.0939 1761.72 L39.1495 1761.72 L39.1495 1757.78 Q41.8115 1755.03 46.3949 1750.4 Q51.0013 1745.75 52.1819 1744.41 Q54.4272 1741.88 55.3068 1740.15 Q56.2096 1738.39 56.2096 1736.7 Q56.2096 1733.94 54.2652 1732.21 Q52.3439 1730.47 49.2421 1730.47 Q47.043 1730.47 44.5893 1731.23 Q42.1588 1732 39.381 1733.55 L39.381 1728.83 Q42.2051 1727.69 44.6588 1727.11 Q47.1124 1726.53 49.1495 1726.53 Q54.5198 1726.53 57.7142 1729.22 Q60.9087 1731.91 60.9087 1736.4 Q60.9087 1738.53 60.0985 1740.45 Q59.3115 1742.35 57.205 1744.94 Q56.6263 1745.61 53.5245 1748.83 Q50.4226 1752.02 44.7745 1757.78 Z" fill="#000000" fill-rule="nonzero" fill-opacity="1" /><path clip-path="url(#clip560)" d="M80.9086 1730.24 Q77.2975 1730.24 75.4688 1733.8 Q73.6632 1737.35 73.6632 1744.47 Q73.6632 1751.58 75.4688 1755.15 Q77.2975 1758.69 80.9086 1758.69 Q84.5428 1758.69 86.3483 1755.15 Q88.177 1751.58 88.177 1744.47 Q88.177 1737.35 86.3483 1733.8 Q84.5428 1730.24 80.9086 1730.24 M80.9086 1726.53 Q86.7187 1726.53 89.7743 1731.14 Q92.8529 1735.72 92.8529 1744.47 Q92.8529 1753.2 89.7743 1757.81 Q86.7187 1762.39 80.9086 1762.39 Q75.0984 1762.39 72.0197 1757.81 Q68.9642 1753.2 68.9642 1744.47 Q68.9642 1735.72 72.0197 1731.14 Q75.0984 1726.53 80.9086 1726.53 Z" fill="#000000" fill-rule="nonzero" fill-opacity="1" /><path clip-path="url(#clip560)" d="M54.9133 1177.35 Q58.2698 1178.07 60.1448 1180.34 Q62.0429 1182.61 62.0429 1185.94 Q62.0429 1191.06 58.5244 1193.86 Q55.0059 1196.66 48.5245 1196.66 Q46.3486 1196.66 44.0338 1196.22 Q41.7421 1195.8 39.2884 1194.95 L39.2884 1190.43 Q41.2328 1191.57 43.5477 1192.15 Q45.8625 1192.72 48.3856 1192.72 Q52.7837 1192.72 55.0754 1190.99 Q57.3902 1189.25 57.3902 1185.94 Q57.3902 1182.89 55.2374 1181.17 Q53.1078 1179.44 49.2884 1179.44 L45.2606 1179.44 L45.2606 1175.59 L49.4735 1175.59 Q52.9226 1175.59 54.7513 1174.23 Q56.58 1172.84 56.58 1170.25 Q56.58 1167.59 54.6819 1166.17 Q52.8069 1164.74 49.2884 1164.74 Q47.3671 1164.74 45.168 1165.15 Q42.969 1165.57 40.3301 1166.45 L40.3301 1162.28 Q42.9921 1161.54 45.3069 1161.17 Q47.6449 1160.8 49.705 1160.8 Q55.0291 1160.8 58.1309 1163.23 Q61.2327 1165.64 61.2327 1169.76 Q61.2327 1172.63 59.5892 1174.62 Q57.9457 1176.59 54.9133 1177.35 Z" fill="#000000" fill-rule="nonzero" fill-opacity="1" /><path clip-path="url(#clip560)" d="M80.9086 1164.51 Q77.2975 1164.51 75.4688 1168.07 Q73.6632 1171.61 73.6632 1178.74 Q73.6632 1185.85 75.4688 1189.41 Q77.2975 1192.96 80.9086 1192.96 Q84.5428 1192.96 86.3483 1189.41 Q88.177 1185.85 88.177 1178.74 Q88.177 1171.61 86.3483 1168.07 Q84.5428 1164.51 80.9086 1164.51 M80.9086 1160.8 Q86.7187 1160.8 89.7743 1165.41 Q92.8529 1169.99 92.8529 1178.74 Q92.8529 1187.47 89.7743 1192.08 Q86.7187 1196.66 80.9086 1196.66 Q75.0984 1196.66 72.0197 1192.08 Q68.9642 1187.47 68.9642 1178.74 Q68.9642 1169.99 72.0197 1165.41 Q75.0984 1160.8 80.9086 1160.8 Z" fill="#000000" fill-rule="nonzero" fill-opacity="1" /><path clip-path="url(#clip560)" d="M53.5939 599.77 L41.7884 618.219 L53.5939 618.219 L53.5939 599.77 M52.367 595.696 L58.2466 595.696 L58.2466 618.219 L63.1772 618.219 L63.1772 622.108 L58.2466 622.108 L58.2466 630.256 L53.5939 630.256 L53.5939 622.108 L37.9921 622.108 L37.9921 617.594 L52.367 595.696 Z" fill="#000000" fill-rule="nonzero" fill-opacity="1" /><path clip-path="url(#clip560)" d="M80.9086 598.775 Q77.2975 598.775 75.4688 602.34 Q73.6632 605.881 73.6632 613.011 Q73.6632 620.117 75.4688 623.682 Q77.2975 627.224 80.9086 627.224 Q84.5428 627.224 86.3483 623.682 Q88.177 620.117 88.177 613.011 Q88.177 605.881 86.3483 602.34 Q84.5428 598.775 80.9086 598.775 M80.9086 595.071 Q86.7187 595.071 89.7743 599.678 Q92.8529 604.261 92.8529 613.011 Q92.8529 621.738 89.7743 626.344 Q86.7187 630.927 80.9086 630.927 Q75.0984 630.927 72.0197 626.344 Q68.9642 621.738 68.9642 613.011 Q68.9642 604.261 72.0197 599.678 Q75.0984 595.071 80.9086 595.071 Z" fill="#000000" fill-rule="nonzero" fill-opacity="1" /><path clip-path="url(#clip560)" d="M40.793 29.9641 L59.1494 29.9641 L59.1494 33.8993 L45.0754 33.8993 L45.0754 42.3714 Q46.0939 42.0242 47.1124 41.8622 Q48.131 41.677 49.1495 41.677 Q54.9365 41.677 58.3161 44.8483 Q61.6957 48.0196 61.6957 53.4362 Q61.6957 59.0149 58.2235 62.1167 Q54.7513 65.1954 48.4319 65.1954 Q46.256 65.1954 43.9875 64.825 Q41.7421 64.4547 39.3347 63.7139 L39.3347 59.0149 Q41.418 60.1491 43.6402 60.7047 Q45.8625 61.2602 48.3393 61.2602 Q52.3439 61.2602 54.6819 59.1538 Q57.0198 57.0473 57.0198 53.4362 Q57.0198 49.8251 54.6819 47.7186 Q52.3439 45.6122 48.3393 45.6122 Q46.4643 45.6122 44.5893 46.0288 Q42.7375 46.4455 40.793 47.3251 L40.793 29.9641 Z" fill="#000000" fill-rule="nonzero" fill-opacity="1" /><path clip-path="url(#clip560)" d="M80.9086 33.0428 Q77.2975 33.0428 75.4688 36.6076 Q73.6632 40.1492 73.6632 47.2788 Q73.6632 54.3853 75.4688 57.9501 Q77.2975 61.4917 80.9086 61.4917 Q84.5428 61.4917 86.3483 57.9501 Q88.177 54.3853 88.177 47.2788 Q88.177 40.1492 86.3483 36.6076 Q84.5428 33.0428 80.9086 33.0428 M80.9086 29.3391 Q86.7187 29.3391 89.7743 33.9456 Q92.8529 38.5289 92.8529 47.2788 Q92.8529 56.0056 89.7743 60.6121 Q86.7187 65.1954 80.9086 65.1954 Q75.0984 65.1954 72.0197 60.6121 Q68.9642 56.0056 68.9642 47.2788 Q68.9642 38.5289 72.0197 33.9456 Q75.0984 29.3391 80.9086 29.3391 Z" fill="#000000" fill-rule="nonzero" fill-opacity="1" /><path clip-path="url(#clip562)" d="M431.031 2819.33 L431.031 2875.9 L549.324 2875.9 L549.324 2819.33 L431.031 2819.33 L431.031 2819.33  Z" fill="#0000ff" fill-rule="evenodd" fill-opacity="1"/>
<polyline clip-path="url(#clip562)" style="stroke:#000000; stroke-linecap:round; stroke-linejoin:round; stroke-width:4; stroke-opacity:1; fill:none" points="431.031,2819.33 431.031,2875.9 549.324,2875.9 549.324,2819.33 431.031,2819.33 "/>
<path clip-path="url(#clip562)" d="M549.324 2762.76 L549.324 2875.9 L667.617 2875.9 L667.617 2762.76 L549.324 2762.76 L549.324 2762.76  Z" fill="#0000ff" fill-rule="evenodd" fill-opacity="1"/>
<polyline clip-path="url(#clip562)" style="stroke:#000000; stroke-linecap:round; stroke-linejoin:round; stroke-width:4; stroke-opacity:1; fill:none" points="549.324,2762.76 549.324,2875.9 667.617,2875.9 667.617,2762.76 549.324,2762.76 "/>
<path clip-path="url(#clip562)" d="M667.617 2536.46 L667.617 2875.9 L785.91 2875.9 L785.91 2536.46 L667.617 2536.46 L667.617 2536.46  Z" fill="#0000ff" fill-rule="evenodd" fill-opacity="1"/>
<polyline clip-path="url(#clip562)" style="stroke:#000000; stroke-linecap:round; stroke-linejoin:round; stroke-width:4; stroke-opacity:1; fill:none" points="667.617,2536.46 667.617,2875.9 785.91,2875.9 785.91,2536.46 667.617,2536.46 "/>
<path clip-path="url(#clip562)" d="M785.91 2479.89 L785.91 2875.9 L904.203 2875.9 L904.203 2479.89 L785.91 2479.89 L785.91 2479.89  Z" fill="#0000ff" fill-rule="evenodd" fill-opacity="1"/>
<polyline clip-path="url(#clip562)" style="stroke:#000000; stroke-linecap:round; stroke-linejoin:round; stroke-width:4; stroke-opacity:1; fill:none" points="785.91,2479.89 785.91,2875.9 904.203,2875.9 904.203,2479.89 785.91,2479.89 "/>
<path clip-path="url(#clip562)" d="M904.203 2479.89 L904.203 2875.9 L1022.5 2875.9 L1022.5 2479.89 L904.203 2479.89 L904.203 2479.89  Z" fill="#0000ff" fill-rule="evenodd" fill-opacity="1"/>
<polyline clip-path="url(#clip562)" style="stroke:#000000; stroke-linecap:round; stroke-linejoin:round; stroke-width:4; stroke-opacity:1; fill:none" points="904.203,2479.89 904.203,2875.9 1022.5,2875.9 1022.5,2479.89 904.203,2479.89 "/>
<path clip-path="url(#clip562)" d="M1022.5 2253.6 L1022.5 2875.9 L1140.79 2875.9 L1140.79 2253.6 L1022.5 2253.6 L1022.5 2253.6  Z" fill="#0000ff" fill-rule="evenodd" fill-opacity="1"/>
<polyline clip-path="url(#clip562)" style="stroke:#000000; stroke-linecap:round; stroke-linejoin:round; stroke-width:4; stroke-opacity:1; fill:none" points="1022.5,2253.6 1022.5,2875.9 1140.79,2875.9 1140.79,2253.6 1022.5,2253.6 "/>
<path clip-path="url(#clip562)" d="M1140.79 1970.73 L1140.79 2875.9 L1259.08 2875.9 L1259.08 1970.73 L1140.79 1970.73 L1140.79 1970.73  Z" fill="#0000ff" fill-rule="evenodd" fill-opacity="1"/>
<polyline clip-path="url(#clip562)" style="stroke:#000000; stroke-linecap:round; stroke-linejoin:round; stroke-width:4; stroke-opacity:1; fill:none" points="1140.79,1970.73 1140.79,2875.9 1259.08,2875.9 1259.08,1970.73 1140.79,1970.73 "/>
<path clip-path="url(#clip562)" d="M1259.08 1687.87 L1259.08 2875.9 L1377.37 2875.9 L1377.37 1687.87 L1259.08 1687.87 L1259.08 1687.87  Z" fill="#0000ff" fill-rule="evenodd" fill-opacity="1"/>
<polyline clip-path="url(#clip562)" style="stroke:#000000; stroke-linecap:round; stroke-linejoin:round; stroke-width:4; stroke-opacity:1; fill:none" points="1259.08,1687.87 1259.08,2875.9 1377.37,2875.9 1377.37,1687.87 1259.08,1687.87 "/>
<path clip-path="url(#clip562)" d="M1377.37 1801.01 L1377.37 2875.9 L1495.67 2875.9 L1495.67 1801.01 L1377.37 1801.01 L1377.37 1801.01  Z" fill="#0000ff" fill-rule="evenodd" fill-opacity="1"/>
<polyline clip-path="url(#clip562)" style="stroke:#000000; stroke-linecap:round; stroke-linejoin:round; stroke-width:4; stroke-opacity:1; fill:none" points="1377.37,1801.01 1377.37,2875.9 1495.67,2875.9 1495.67,1801.01 1377.37,1801.01 "/>
<path clip-path="url(#clip562)" d="M1495.67 1970.73 L1495.67 2875.9 L1613.96 2875.9 L1613.96 1970.73 L1495.67 1970.73 L1495.67 1970.73  Z" fill="#0000ff" fill-rule="evenodd" fill-opacity="1"/>
<polyline clip-path="url(#clip562)" style="stroke:#000000; stroke-linecap:round; stroke-linejoin:round; stroke-width:4; stroke-opacity:1; fill:none" points="1495.67,1970.73 1495.67,2875.9 1613.96,2875.9 1613.96,1970.73 1495.67,1970.73 "/>
<path clip-path="url(#clip562)" d="M1613.96 1574.72 L1613.96 2875.9 L1732.25 2875.9 L1732.25 1574.72 L1613.96 1574.72 L1613.96 1574.72  Z" fill="#0000ff" fill-rule="evenodd" fill-opacity="1"/>
<polyline clip-path="url(#clip562)" style="stroke:#000000; stroke-linecap:round; stroke-linejoin:round; stroke-width:4; stroke-opacity:1; fill:none" points="1613.96,1574.72 1613.96,2875.9 1732.25,2875.9 1732.25,1574.72 1613.96,1574.72 "/>
<path clip-path="url(#clip562)" d="M1732.25 2027.31 L1732.25 2875.9 L1850.55 2875.9 L1850.55 2027.31 L1732.25 2027.31 L1732.25 2027.31  Z" fill="#0000ff" fill-rule="evenodd" fill-opacity="1"/>
<polyline clip-path="url(#clip562)" style="stroke:#000000; stroke-linecap:round; stroke-linejoin:round; stroke-width:4; stroke-opacity:1; fill:none" points="1732.25,2027.31 1732.25,2875.9 1850.55,2875.9 1850.55,2027.31 1732.25,2027.31 "/>
<path clip-path="url(#clip562)" d="M1850.55 1687.87 L1850.55 2875.9 L1968.84 2875.9 L1968.84 1687.87 L1850.55 1687.87 L1850.55 1687.87  Z" fill="#0000ff" fill-rule="evenodd" fill-opacity="1"/>
<polyline clip-path="url(#clip562)" style="stroke:#000000; stroke-linecap:round; stroke-linejoin:round; stroke-width:4; stroke-opacity:1; fill:none" points="1850.55,1687.87 1850.55,2875.9 1968.84,2875.9 1968.84,1687.87 1850.55,1687.87 "/>
<path clip-path="url(#clip562)" d="M1968.84 2197.03 L1968.84 2875.9 L2087.13 2875.9 L2087.13 2197.03 L1968.84 2197.03 L1968.84 2197.03  Z" fill="#0000ff" fill-rule="evenodd" fill-opacity="1"/>
<polyline clip-path="url(#clip562)" style="stroke:#000000; stroke-linecap:round; stroke-linejoin:round; stroke-width:4; stroke-opacity:1; fill:none" points="1968.84,2197.03 1968.84,2875.9 2087.13,2875.9 2087.13,2197.03 1968.84,2197.03 "/>
<path clip-path="url(#clip562)" d="M2087.13 2253.6 L2087.13 2875.9 L2205.43 2875.9 L2205.43 2253.6 L2087.13 2253.6 L2087.13 2253.6  Z" fill="#0000ff" fill-rule="evenodd" fill-opacity="1"/>
<polyline clip-path="url(#clip562)" style="stroke:#000000; stroke-linecap:round; stroke-linejoin:round; stroke-width:4; stroke-opacity:1; fill:none" points="2087.13,2253.6 2087.13,2875.9 2205.43,2875.9 2205.43,2253.6 2087.13,2253.6 "/>
<path clip-path="url(#clip562)" d="M2205.43 2253.6 L2205.43 2875.9 L2323.72 2875.9 L2323.72 2253.6 L2205.43 2253.6 L2205.43 2253.6  Z" fill="#0000ff" fill-rule="evenodd" fill-opacity="1"/>
<polyline clip-path="url(#clip562)" style="stroke:#000000; stroke-linecap:round; stroke-linejoin:round; stroke-width:4; stroke-opacity:1; fill:none" points="2205.43,2253.6 2205.43,2875.9 2323.72,2875.9 2323.72,2253.6 2205.43,2253.6 "/>
<path clip-path="url(#clip562)" d="M2323.72 2253.6 L2323.72 2875.9 L2442.01 2875.9 L2442.01 2253.6 L2323.72 2253.6 L2323.72 2253.6  Z" fill="#0000ff" fill-rule="evenodd" fill-opacity="1"/>
<polyline clip-path="url(#clip562)" style="stroke:#000000; stroke-linecap:round; stroke-linejoin:round; stroke-width:4; stroke-opacity:1; fill:none" points="2323.72,2253.6 2323.72,2875.9 2442.01,2875.9 2442.01,2253.6 2323.72,2253.6 "/>
<path clip-path="url(#clip562)" d="M2442.01 2083.88 L2442.01 2875.9 L2560.3 2875.9 L2560.3 2083.88 L2442.01 2083.88 L2442.01 2083.88  Z" fill="#0000ff" fill-rule="evenodd" fill-opacity="1"/>
<polyline clip-path="url(#clip562)" style="stroke:#000000; stroke-linecap:round; stroke-linejoin:round; stroke-width:4; stroke-opacity:1; fill:none" points="2442.01,2083.88 2442.01,2875.9 2560.3,2875.9 2560.3,2083.88 2442.01,2083.88 "/>
<path clip-path="url(#clip562)" d="M2560.3 2536.46 L2560.3 2875.9 L2678.6 2875.9 L2678.6 2536.46 L2560.3 2536.46 L2560.3 2536.46  Z" fill="#0000ff" fill-rule="evenodd" fill-opacity="1"/>
<polyline clip-path="url(#clip562)" style="stroke:#000000; stroke-linecap:round; stroke-linejoin:round; stroke-width:4; stroke-opacity:1; fill:none" points="2560.3,2536.46 2560.3,2875.9 2678.6,2875.9 2678.6,2536.46 2560.3,2536.46 "/>
<path clip-path="url(#clip562)" d="M2678.6 2140.45 L2678.6 2875.9 L2796.89 2875.9 L2796.89 2140.45 L2678.6 2140.45 L2678.6 2140.45  Z" fill="#0000ff" fill-rule="evenodd" fill-opacity="1"/>
<polyline clip-path="url(#clip562)" style="stroke:#000000; stroke-linecap:round; stroke-linejoin:round; stroke-width:4; stroke-opacity:1; fill:none" points="2678.6,2140.45 2678.6,2875.9 2796.89,2875.9 2796.89,2140.45 2678.6,2140.45 "/>
<path clip-path="url(#clip562)" d="M2796.89 2027.31 L2796.89 2875.9 L2915.18 2875.9 L2915.18 2027.31 L2796.89 2027.31 L2796.89 2027.31  Z" fill="#0000ff" fill-rule="evenodd" fill-opacity="1"/>
<polyline clip-path="url(#clip562)" style="stroke:#000000; stroke-linecap:round; stroke-linejoin:round; stroke-width:4; stroke-opacity:1; fill:none" points="2796.89,2027.31 2796.89,2875.9 2915.18,2875.9 2915.18,2027.31 2796.89,2027.31 "/>
<path clip-path="url(#clip562)" d="M2915.18 2310.17 L2915.18 2875.9 L3033.48 2875.9 L3033.48 2310.17 L2915.18 2310.17 L2915.18 2310.17  Z" fill="#0000ff" fill-rule="evenodd" fill-opacity="1"/>
<polyline clip-path="url(#clip562)" style="stroke:#000000; stroke-linecap:round; stroke-linejoin:round; stroke-width:4; stroke-opacity:1; fill:none" points="2915.18,2310.17 2915.18,2875.9 3033.48,2875.9 3033.48,2310.17 2915.18,2310.17 "/>
<path clip-path="url(#clip562)" d="M3033.48 2479.89 L3033.48 2875.9 L3151.77 2875.9 L3151.77 2479.89 L3033.48 2479.89 L3033.48 2479.89  Z" fill="#0000ff" fill-rule="evenodd" fill-opacity="1"/>
<polyline clip-path="url(#clip562)" style="stroke:#000000; stroke-linecap:round; stroke-linejoin:round; stroke-width:4; stroke-opacity:1; fill:none" points="3033.48,2479.89 3033.48,2875.9 3151.77,2875.9 3151.77,2479.89 3033.48,2479.89 "/>
<path clip-path="url(#clip562)" d="M3151.77 2366.75 L3151.77 2875.9 L3270.06 2875.9 L3270.06 2366.75 L3151.77 2366.75 L3151.77 2366.75  Z" fill="#0000ff" fill-rule="evenodd" fill-opacity="1"/>
<polyline clip-path="url(#clip562)" style="stroke:#000000; stroke-linecap:round; stroke-linejoin:round; stroke-width:4; stroke-opacity:1; fill:none" points="3151.77,2366.75 3151.77,2875.9 3270.06,2875.9 3270.06,2366.75 3151.77,2366.75 "/>
<path clip-path="url(#clip562)" d="M3270.06 2593.04 L3270.06 2875.9 L3388.36 2875.9 L3388.36 2593.04 L3270.06 2593.04 L3270.06 2593.04  Z" fill="#0000ff" fill-rule="evenodd" fill-opacity="1"/>
<polyline clip-path="url(#clip562)" style="stroke:#000000; stroke-linecap:round; stroke-linejoin:round; stroke-width:4; stroke-opacity:1; fill:none" points="3270.06,2593.04 3270.06,2875.9 3388.36,2875.9 3388.36,2593.04 3270.06,2593.04 "/>
<path clip-path="url(#clip562)" d="M3388.36 2479.89 L3388.36 2875.9 L3506.65 2875.9 L3506.65 2479.89 L3388.36 2479.89 L3388.36 2479.89  Z" fill="#0000ff" fill-rule="evenodd" fill-opacity="1"/>
<polyline clip-path="url(#clip562)" style="stroke:#000000; stroke-linecap:round; stroke-linejoin:round; stroke-width:4; stroke-opacity:1; fill:none" points="3388.36,2479.89 3388.36,2875.9 3506.65,2875.9 3506.65,2479.89 3388.36,2479.89 "/>
<path clip-path="url(#clip562)" d="M3506.65 2479.89 L3506.65 2875.9 L3624.94 2875.9 L3624.94 2479.89 L3506.65 2479.89 L3506.65 2479.89  Z" fill="#0000ff" fill-rule="evenodd" fill-opacity="1"/>
<polyline clip-path="url(#clip562)" style="stroke:#000000; stroke-linecap:round; stroke-linejoin:round; stroke-width:4; stroke-opacity:1; fill:none" points="3506.65,2479.89 3506.65,2875.9 3624.94,2875.9 3624.94,2479.89 3506.65,2479.89 "/>
<path clip-path="url(#clip562)" d="M3624.94 2536.46 L3624.94 2875.9 L3743.23 2875.9 L3743.23 2536.46 L3624.94 2536.46 L3624.94 2536.46  Z" fill="#0000ff" fill-rule="evenodd" fill-opacity="1"/>
<polyline clip-path="url(#clip562)" style="stroke:#000000; stroke-linecap:round; stroke-linejoin:round; stroke-width:4; stroke-opacity:1; fill:none" points="3624.94,2536.46 3624.94,2875.9 3743.23,2875.9 3743.23,2536.46 3624.94,2536.46 "/>
<path clip-path="url(#clip562)" d="M3743.23 2253.6 L3743.23 2875.9 L3861.53 2875.9 L3861.53 2253.6 L3743.23 2253.6 L3743.23 2253.6  Z" fill="#0000ff" fill-rule="evenodd" fill-opacity="1"/>
<polyline clip-path="url(#clip562)" style="stroke:#000000; stroke-linecap:round; stroke-linejoin:round; stroke-width:4; stroke-opacity:1; fill:none" points="3743.23,2253.6 3743.23,2875.9 3861.53,2875.9 3861.53,2253.6 3743.23,2253.6 "/>
<path clip-path="url(#clip562)" d="M3861.53 2593.04 L3861.53 2875.9 L3979.82 2875.9 L3979.82 2593.04 L3861.53 2593.04 L3861.53 2593.04  Z" fill="#0000ff" fill-rule="evenodd" fill-opacity="1"/>
<polyline clip-path="url(#clip562)" style="stroke:#000000; stroke-linecap:round; stroke-linejoin:round; stroke-width:4; stroke-opacity:1; fill:none" points="3861.53,2593.04 3861.53,2875.9 3979.82,2875.9 3979.82,2593.04 3861.53,2593.04 "/>
<path clip-path="url(#clip562)" d="M3979.82 2536.46 L3979.82 2875.9 L4098.11 2875.9 L4098.11 2536.46 L3979.82 2536.46 L3979.82 2536.46  Z" fill="#0000ff" fill-rule="evenodd" fill-opacity="1"/>
<polyline clip-path="url(#clip562)" style="stroke:#000000; stroke-linecap:round; stroke-linejoin:round; stroke-width:4; stroke-opacity:1; fill:none" points="3979.82,2536.46 3979.82,2875.9 4098.11,2875.9 4098.11,2536.46 3979.82,2536.46 "/>
<path clip-path="url(#clip562)" d="M4098.11 2593.04 L4098.11 2875.9 L4216.41 2875.9 L4216.41 2593.04 L4098.11 2593.04 L4098.11 2593.04  Z" fill="#0000ff" fill-rule="evenodd" fill-opacity="1"/>
<polyline clip-path="url(#clip562)" style="stroke:#000000; stroke-linecap:round; stroke-linejoin:round; stroke-width:4; stroke-opacity:1; fill:none" points="4098.11,2593.04 4098.11,2875.9 4216.41,2875.9 4216.41,2593.04 4098.11,2593.04 "/>
<path clip-path="url(#clip562)" d="M4216.41 2762.76 L4216.41 2875.9 L4334.7 2875.9 L4334.7 2762.76 L4216.41 2762.76 L4216.41 2762.76  Z" fill="#0000ff" fill-rule="evenodd" fill-opacity="1"/>
<polyline clip-path="url(#clip562)" style="stroke:#000000; stroke-linecap:round; stroke-linejoin:round; stroke-width:4; stroke-opacity:1; fill:none" points="4216.41,2762.76 4216.41,2875.9 4334.7,2875.9 4334.7,2762.76 4216.41,2762.76 "/>
<path clip-path="url(#clip562)" d="M4334.7 2706.18 L4334.7 2875.9 L4452.99 2875.9 L4452.99 2706.18 L4334.7 2706.18 L4334.7 2706.18  Z" fill="#0000ff" fill-rule="evenodd" fill-opacity="1"/>
<polyline clip-path="url(#clip562)" style="stroke:#000000; stroke-linecap:round; stroke-linejoin:round; stroke-width:4; stroke-opacity:1; fill:none" points="4334.7,2706.18 4334.7,2875.9 4452.99,2875.9 4452.99,2706.18 4334.7,2706.18 "/>
<path clip-path="url(#clip562)" d="M4452.99 2875.9 L4452.99 2875.9 L4571.28 2875.9 L4571.28 2875.9 L4452.99 2875.9 L4452.99 2875.9  Z" fill="#0000ff" fill-rule="evenodd" fill-opacity="1"/>
<polyline clip-path="url(#clip562)" style="stroke:#000000; stroke-linecap:round; stroke-linejoin:round; stroke-width:4; stroke-opacity:1; fill:none" points="4452.99,2875.9 4452.99,2875.9 4571.28,2875.9 4452.99,2875.9 "/>
<path clip-path="url(#clip562)" d="M4571.28 2875.9 L4571.28 2875.9 L4689.58 2875.9 L4689.58 2875.9 L4571.28 2875.9 L4571.28 2875.9  Z" fill="#0000ff" fill-rule="evenodd" fill-opacity="1"/>
<polyline clip-path="url(#clip562)" style="stroke:#000000; stroke-linecap:round; stroke-linejoin:round; stroke-width:4; stroke-opacity:1; fill:none" points="4571.28,2875.9 4571.28,2875.9 4689.58,2875.9 4571.28,2875.9 "/>
<circle clip-path="url(#clip562)" style="fill:#0000ff; stroke:none; fill-opacity:0" cx="490.178" cy="2819.33" r="2"/>
<circle clip-path="url(#clip562)" style="fill:#0000ff; stroke:none; fill-opacity:0" cx="608.471" cy="2762.76" r="2"/>
<circle clip-path="url(#clip562)" style="fill:#0000ff; stroke:none; fill-opacity:0" cx="726.764" cy="2536.46" r="2"/>
<circle clip-path="url(#clip562)" style="fill:#0000ff; stroke:none; fill-opacity:0" cx="845.056" cy="2479.89" r="2"/>
<circle clip-path="url(#clip562)" style="fill:#0000ff; stroke:none; fill-opacity:0" cx="963.349" cy="2479.89" r="2"/>
<circle clip-path="url(#clip562)" style="fill:#0000ff; stroke:none; fill-opacity:0" cx="1081.64" cy="2253.6" r="2"/>
<circle clip-path="url(#clip562)" style="fill:#0000ff; stroke:none; fill-opacity:0" cx="1199.94" cy="1970.73" r="2"/>
<circle clip-path="url(#clip562)" style="fill:#0000ff; stroke:none; fill-opacity:0" cx="1318.23" cy="1687.87" r="2"/>
<circle clip-path="url(#clip562)" style="fill:#0000ff; stroke:none; fill-opacity:0" cx="1436.52" cy="1801.01" r="2"/>
<circle clip-path="url(#clip562)" style="fill:#0000ff; stroke:none; fill-opacity:0" cx="1554.81" cy="1970.73" r="2"/>
<circle clip-path="url(#clip562)" style="fill:#0000ff; stroke:none; fill-opacity:0" cx="1673.11" cy="1574.72" r="2"/>
<circle clip-path="url(#clip562)" style="fill:#0000ff; stroke:none; fill-opacity:0" cx="1791.4" cy="2027.31" r="2"/>
<circle clip-path="url(#clip562)" style="fill:#0000ff; stroke:none; fill-opacity:0" cx="1909.69" cy="1687.87" r="2"/>
<circle clip-path="url(#clip562)" style="fill:#0000ff; stroke:none; fill-opacity:0" cx="2027.99" cy="2197.03" r="2"/>
<circle clip-path="url(#clip562)" style="fill:#0000ff; stroke:none; fill-opacity:0" cx="2146.28" cy="2253.6" r="2"/>
<circle clip-path="url(#clip562)" style="fill:#0000ff; stroke:none; fill-opacity:0" cx="2264.57" cy="2253.6" r="2"/>
<circle clip-path="url(#clip562)" style="fill:#0000ff; stroke:none; fill-opacity:0" cx="2382.86" cy="2253.6" r="2"/>
<circle clip-path="url(#clip562)" style="fill:#0000ff; stroke:none; fill-opacity:0" cx="2501.16" cy="2083.88" r="2"/>
<circle clip-path="url(#clip562)" style="fill:#0000ff; stroke:none; fill-opacity:0" cx="2619.45" cy="2536.46" r="2"/>
<circle clip-path="url(#clip562)" style="fill:#0000ff; stroke:none; fill-opacity:0" cx="2737.74" cy="2140.45" r="2"/>
<circle clip-path="url(#clip562)" style="fill:#0000ff; stroke:none; fill-opacity:0" cx="2856.04" cy="2027.31" r="2"/>
<circle clip-path="url(#clip562)" style="fill:#0000ff; stroke:none; fill-opacity:0" cx="2974.33" cy="2310.17" r="2"/>
<circle clip-path="url(#clip562)" style="fill:#0000ff; stroke:none; fill-opacity:0" cx="3092.62" cy="2479.89" r="2"/>
<circle clip-path="url(#clip562)" style="fill:#0000ff; stroke:none; fill-opacity:0" cx="3210.92" cy="2366.75" r="2"/>
<circle clip-path="url(#clip562)" style="fill:#0000ff; stroke:none; fill-opacity:0" cx="3329.21" cy="2593.04" r="2"/>
<circle clip-path="url(#clip562)" style="fill:#0000ff; stroke:none; fill-opacity:0" cx="3447.5" cy="2479.89" r="2"/>
<circle clip-path="url(#clip562)" style="fill:#0000ff; stroke:none; fill-opacity:0" cx="3565.79" cy="2479.89" r="2"/>
<circle clip-path="url(#clip562)" style="fill:#0000ff; stroke:none; fill-opacity:0" cx="3684.09" cy="2536.46" r="2"/>
<circle clip-path="url(#clip562)" style="fill:#0000ff; stroke:none; fill-opacity:0" cx="3802.38" cy="2253.6" r="2"/>
<circle clip-path="url(#clip562)" style="fill:#0000ff; stroke:none; fill-opacity:0" cx="3920.67" cy="2593.04" r="2"/>
<circle clip-path="url(#clip562)" style="fill:#0000ff; stroke:none; fill-opacity:0" cx="4038.97" cy="2536.46" r="2"/>
<circle clip-path="url(#clip562)" style="fill:#0000ff; stroke:none; fill-opacity:0" cx="4157.26" cy="2593.04" r="2"/>
<circle clip-path="url(#clip562)" style="fill:#0000ff; stroke:none; fill-opacity:0" cx="4275.55" cy="2762.76" r="2"/>
<circle clip-path="url(#clip562)" style="fill:#0000ff; stroke:none; fill-opacity:0" cx="4393.85" cy="2706.18" r="2"/>
<circle clip-path="url(#clip562)" style="fill:#0000ff; stroke:none; fill-opacity:0" cx="4512.14" cy="2875.9" r="2"/>
<circle clip-path="url(#clip562)" style="fill:#0000ff; stroke:none; fill-opacity:0" cx="4630.43" cy="2875.9" r="2"/>
<path clip-path="url(#clip562)" d="M431.031 2875.9 L431.031 2875.9 L549.324 2875.9 L549.324 2875.9 L431.031 2875.9 L431.031 2875.9  Z" fill="#ff0000" fill-rule="evenodd" fill-opacity="0.5"/>
<polyline clip-path="url(#clip562)" style="stroke:#000000; stroke-linecap:round; stroke-linejoin:round; stroke-width:4; stroke-opacity:0.5; fill:none" points="431.031,2875.9 431.031,2875.9 549.324,2875.9 431.031,2875.9 "/>
<path clip-path="url(#clip562)" d="M549.324 2875.9 L549.324 2875.9 L667.617 2875.9 L667.617 2875.9 L549.324 2875.9 L549.324 2875.9  Z" fill="#ff0000" fill-rule="evenodd" fill-opacity="0.5"/>
<polyline clip-path="url(#clip562)" style="stroke:#000000; stroke-linecap:round; stroke-linejoin:round; stroke-width:4; stroke-opacity:0.5; fill:none" points="549.324,2875.9 549.324,2875.9 667.617,2875.9 549.324,2875.9 "/>
<path clip-path="url(#clip562)" d="M667.617 2875.9 L667.617 2875.9 L785.91 2875.9 L785.91 2875.9 L667.617 2875.9 L667.617 2875.9  Z" fill="#ff0000" fill-rule="evenodd" fill-opacity="0.5"/>
<polyline clip-path="url(#clip562)" style="stroke:#000000; stroke-linecap:round; stroke-linejoin:round; stroke-width:4; stroke-opacity:0.5; fill:none" points="667.617,2875.9 667.617,2875.9 785.91,2875.9 667.617,2875.9 "/>
<path clip-path="url(#clip562)" d="M785.91 2875.9 L785.91 2875.9 L904.203 2875.9 L904.203 2875.9 L785.91 2875.9 L785.91 2875.9  Z" fill="#ff0000" fill-rule="evenodd" fill-opacity="0.5"/>
<polyline clip-path="url(#clip562)" style="stroke:#000000; stroke-linecap:round; stroke-linejoin:round; stroke-width:4; stroke-opacity:0.5; fill:none" points="785.91,2875.9 785.91,2875.9 904.203,2875.9 785.91,2875.9 "/>
<path clip-path="url(#clip562)" d="M904.203 2875.9 L904.203 2875.9 L1022.5 2875.9 L1022.5 2875.9 L904.203 2875.9 L904.203 2875.9  Z" fill="#ff0000" fill-rule="evenodd" fill-opacity="0.5"/>
<polyline clip-path="url(#clip562)" style="stroke:#000000; stroke-linecap:round; stroke-linejoin:round; stroke-width:4; stroke-opacity:0.5; fill:none" points="904.203,2875.9 904.203,2875.9 1022.5,2875.9 904.203,2875.9 "/>
<path clip-path="url(#clip562)" d="M1022.5 2875.9 L1022.5 2875.9 L1140.79 2875.9 L1140.79 2875.9 L1022.5 2875.9 L1022.5 2875.9  Z" fill="#ff0000" fill-rule="evenodd" fill-opacity="0.5"/>
<polyline clip-path="url(#clip562)" style="stroke:#000000; stroke-linecap:round; stroke-linejoin:round; stroke-width:4; stroke-opacity:0.5; fill:none" points="1022.5,2875.9 1022.5,2875.9 1140.79,2875.9 1022.5,2875.9 "/>
<path clip-path="url(#clip562)" d="M1140.79 47.2441 L1140.79 2875.9 L1259.08 2875.9 L1259.08 47.2441 L1140.79 47.2441 L1140.79 47.2441  Z" fill="#ff0000" fill-rule="evenodd" fill-opacity="0.5"/>
<polyline clip-path="url(#clip562)" style="stroke:#000000; stroke-linecap:round; stroke-linejoin:round; stroke-width:4; stroke-opacity:0.5; fill:none" points="1140.79,47.2441 1140.79,2875.9 1259.08,2875.9 1259.08,47.2441 1140.79,47.2441 "/>
<path clip-path="url(#clip562)" d="M1259.08 1687.87 L1259.08 2875.9 L1377.37 2875.9 L1377.37 1687.87 L1259.08 1687.87 L1259.08 1687.87  Z" fill="#ff0000" fill-rule="evenodd" fill-opacity="0.5"/>
<polyline clip-path="url(#clip562)" style="stroke:#000000; stroke-linecap:round; stroke-linejoin:round; stroke-width:4; stroke-opacity:0.5; fill:none" points="1259.08,1687.87 1259.08,2875.9 1377.37,2875.9 1377.37,1687.87 1259.08,1687.87 "/>
<path clip-path="url(#clip562)" d="M1377.37 1801.01 L1377.37 2875.9 L1495.67 2875.9 L1495.67 1801.01 L1377.37 1801.01 L1377.37 1801.01  Z" fill="#ff0000" fill-rule="evenodd" fill-opacity="0.5"/>
<polyline clip-path="url(#clip562)" style="stroke:#000000; stroke-linecap:round; stroke-linejoin:round; stroke-width:4; stroke-opacity:0.5; fill:none" points="1377.37,1801.01 1377.37,2875.9 1495.67,2875.9 1495.67,1801.01 1377.37,1801.01 "/>
<path clip-path="url(#clip562)" d="M1495.67 1970.73 L1495.67 2875.9 L1613.96 2875.9 L1613.96 1970.73 L1495.67 1970.73 L1495.67 1970.73  Z" fill="#ff0000" fill-rule="evenodd" fill-opacity="0.5"/>
<polyline clip-path="url(#clip562)" style="stroke:#000000; stroke-linecap:round; stroke-linejoin:round; stroke-width:4; stroke-opacity:0.5; fill:none" points="1495.67,1970.73 1495.67,2875.9 1613.96,2875.9 1613.96,1970.73 1495.67,1970.73 "/>
<path clip-path="url(#clip562)" d="M1613.96 1574.72 L1613.96 2875.9 L1732.25 2875.9 L1732.25 1574.72 L1613.96 1574.72 L1613.96 1574.72  Z" fill="#ff0000" fill-rule="evenodd" fill-opacity="0.5"/>
<polyline clip-path="url(#clip562)" style="stroke:#000000; stroke-linecap:round; stroke-linejoin:round; stroke-width:4; stroke-opacity:0.5; fill:none" points="1613.96,1574.72 1613.96,2875.9 1732.25,2875.9 1732.25,1574.72 1613.96,1574.72 "/>
<path clip-path="url(#clip562)" d="M1732.25 2027.31 L1732.25 2875.9 L1850.55 2875.9 L1850.55 2027.31 L1732.25 2027.31 L1732.25 2027.31  Z" fill="#ff0000" fill-rule="evenodd" fill-opacity="0.5"/>
<polyline clip-path="url(#clip562)" style="stroke:#000000; stroke-linecap:round; stroke-linejoin:round; stroke-width:4; stroke-opacity:0.5; fill:none" points="1732.25,2027.31 1732.25,2875.9 1850.55,2875.9 1850.55,2027.31 1732.25,2027.31 "/>
<path clip-path="url(#clip562)" d="M1850.55 1687.87 L1850.55 2875.9 L1968.84 2875.9 L1968.84 1687.87 L1850.55 1687.87 L1850.55 1687.87  Z" fill="#ff0000" fill-rule="evenodd" fill-opacity="0.5"/>
<polyline clip-path="url(#clip562)" style="stroke:#000000; stroke-linecap:round; stroke-linejoin:round; stroke-width:4; stroke-opacity:0.5; fill:none" points="1850.55,1687.87 1850.55,2875.9 1968.84,2875.9 1968.84,1687.87 1850.55,1687.87 "/>
<path clip-path="url(#clip562)" d="M1968.84 2197.03 L1968.84 2875.9 L2087.13 2875.9 L2087.13 2197.03 L1968.84 2197.03 L1968.84 2197.03  Z" fill="#ff0000" fill-rule="evenodd" fill-opacity="0.5"/>
<polyline clip-path="url(#clip562)" style="stroke:#000000; stroke-linecap:round; stroke-linejoin:round; stroke-width:4; stroke-opacity:0.5; fill:none" points="1968.84,2197.03 1968.84,2875.9 2087.13,2875.9 2087.13,2197.03 1968.84,2197.03 "/>
<path clip-path="url(#clip562)" d="M2087.13 2253.6 L2087.13 2875.9 L2205.43 2875.9 L2205.43 2253.6 L2087.13 2253.6 L2087.13 2253.6  Z" fill="#ff0000" fill-rule="evenodd" fill-opacity="0.5"/>
<polyline clip-path="url(#clip562)" style="stroke:#000000; stroke-linecap:round; stroke-linejoin:round; stroke-width:4; stroke-opacity:0.5; fill:none" points="2087.13,2253.6 2087.13,2875.9 2205.43,2875.9 2205.43,2253.6 2087.13,2253.6 "/>
<path clip-path="url(#clip562)" d="M2205.43 2253.6 L2205.43 2875.9 L2323.72 2875.9 L2323.72 2253.6 L2205.43 2253.6 L2205.43 2253.6  Z" fill="#ff0000" fill-rule="evenodd" fill-opacity="0.5"/>
<polyline clip-path="url(#clip562)" style="stroke:#000000; stroke-linecap:round; stroke-linejoin:round; stroke-width:4; stroke-opacity:0.5; fill:none" points="2205.43,2253.6 2205.43,2875.9 2323.72,2875.9 2323.72,2253.6 2205.43,2253.6 "/>
<path clip-path="url(#clip562)" d="M2323.72 2253.6 L2323.72 2875.9 L2442.01 2875.9 L2442.01 2253.6 L2323.72 2253.6 L2323.72 2253.6  Z" fill="#ff0000" fill-rule="evenodd" fill-opacity="0.5"/>
<polyline clip-path="url(#clip562)" style="stroke:#000000; stroke-linecap:round; stroke-linejoin:round; stroke-width:4; stroke-opacity:0.5; fill:none" points="2323.72,2253.6 2323.72,2875.9 2442.01,2875.9 2442.01,2253.6 2323.72,2253.6 "/>
<path clip-path="url(#clip562)" d="M2442.01 2083.88 L2442.01 2875.9 L2560.3 2875.9 L2560.3 2083.88 L2442.01 2083.88 L2442.01 2083.88  Z" fill="#ff0000" fill-rule="evenodd" fill-opacity="0.5"/>
<polyline clip-path="url(#clip562)" style="stroke:#000000; stroke-linecap:round; stroke-linejoin:round; stroke-width:4; stroke-opacity:0.5; fill:none" points="2442.01,2083.88 2442.01,2875.9 2560.3,2875.9 2560.3,2083.88 2442.01,2083.88 "/>
<path clip-path="url(#clip562)" d="M2560.3 2536.46 L2560.3 2875.9 L2678.6 2875.9 L2678.6 2536.46 L2560.3 2536.46 L2560.3 2536.46  Z" fill="#ff0000" fill-rule="evenodd" fill-opacity="0.5"/>
<polyline clip-path="url(#clip562)" style="stroke:#000000; stroke-linecap:round; stroke-linejoin:round; stroke-width:4; stroke-opacity:0.5; fill:none" points="2560.3,2536.46 2560.3,2875.9 2678.6,2875.9 2678.6,2536.46 2560.3,2536.46 "/>
<path clip-path="url(#clip562)" d="M2678.6 2140.45 L2678.6 2875.9 L2796.89 2875.9 L2796.89 2140.45 L2678.6 2140.45 L2678.6 2140.45  Z" fill="#ff0000" fill-rule="evenodd" fill-opacity="0.5"/>
<polyline clip-path="url(#clip562)" style="stroke:#000000; stroke-linecap:round; stroke-linejoin:round; stroke-width:4; stroke-opacity:0.5; fill:none" points="2678.6,2140.45 2678.6,2875.9 2796.89,2875.9 2796.89,2140.45 2678.6,2140.45 "/>
<path clip-path="url(#clip562)" d="M2796.89 2027.31 L2796.89 2875.9 L2915.18 2875.9 L2915.18 2027.31 L2796.89 2027.31 L2796.89 2027.31  Z" fill="#ff0000" fill-rule="evenodd" fill-opacity="0.5"/>
<polyline clip-path="url(#clip562)" style="stroke:#000000; stroke-linecap:round; stroke-linejoin:round; stroke-width:4; stroke-opacity:0.5; fill:none" points="2796.89,2027.31 2796.89,2875.9 2915.18,2875.9 2915.18,2027.31 2796.89,2027.31 "/>
<path clip-path="url(#clip562)" d="M2915.18 2310.17 L2915.18 2875.9 L3033.48 2875.9 L3033.48 2310.17 L2915.18 2310.17 L2915.18 2310.17  Z" fill="#ff0000" fill-rule="evenodd" fill-opacity="0.5"/>
<polyline clip-path="url(#clip562)" style="stroke:#000000; stroke-linecap:round; stroke-linejoin:round; stroke-width:4; stroke-opacity:0.5; fill:none" points="2915.18,2310.17 2915.18,2875.9 3033.48,2875.9 3033.48,2310.17 2915.18,2310.17 "/>
<path clip-path="url(#clip562)" d="M3033.48 2479.89 L3033.48 2875.9 L3151.77 2875.9 L3151.77 2479.89 L3033.48 2479.89 L3033.48 2479.89  Z" fill="#ff0000" fill-rule="evenodd" fill-opacity="0.5"/>
<polyline clip-path="url(#clip562)" style="stroke:#000000; stroke-linecap:round; stroke-linejoin:round; stroke-width:4; stroke-opacity:0.5; fill:none" points="3033.48,2479.89 3033.48,2875.9 3151.77,2875.9 3151.77,2479.89 3033.48,2479.89 "/>
<path clip-path="url(#clip562)" d="M3151.77 2366.75 L3151.77 2875.9 L3270.06 2875.9 L3270.06 2366.75 L3151.77 2366.75 L3151.77 2366.75  Z" fill="#ff0000" fill-rule="evenodd" fill-opacity="0.5"/>
<polyline clip-path="url(#clip562)" style="stroke:#000000; stroke-linecap:round; stroke-linejoin:round; stroke-width:4; stroke-opacity:0.5; fill:none" points="3151.77,2366.75 3151.77,2875.9 3270.06,2875.9 3270.06,2366.75 3151.77,2366.75 "/>
<path clip-path="url(#clip562)" d="M3270.06 2593.04 L3270.06 2875.9 L3388.36 2875.9 L3388.36 2593.04 L3270.06 2593.04 L3270.06 2593.04  Z" fill="#ff0000" fill-rule="evenodd" fill-opacity="0.5"/>
<polyline clip-path="url(#clip562)" style="stroke:#000000; stroke-linecap:round; stroke-linejoin:round; stroke-width:4; stroke-opacity:0.5; fill:none" points="3270.06,2593.04 3270.06,2875.9 3388.36,2875.9 3388.36,2593.04 3270.06,2593.04 "/>
<path clip-path="url(#clip562)" d="M3388.36 2479.89 L3388.36 2875.9 L3506.65 2875.9 L3506.65 2479.89 L3388.36 2479.89 L3388.36 2479.89  Z" fill="#ff0000" fill-rule="evenodd" fill-opacity="0.5"/>
<polyline clip-path="url(#clip562)" style="stroke:#000000; stroke-linecap:round; stroke-linejoin:round; stroke-width:4; stroke-opacity:0.5; fill:none" points="3388.36,2479.89 3388.36,2875.9 3506.65,2875.9 3506.65,2479.89 3388.36,2479.89 "/>
<path clip-path="url(#clip562)" d="M3506.65 2479.89 L3506.65 2875.9 L3624.94 2875.9 L3624.94 2479.89 L3506.65 2479.89 L3506.65 2479.89  Z" fill="#ff0000" fill-rule="evenodd" fill-opacity="0.5"/>
<polyline clip-path="url(#clip562)" style="stroke:#000000; stroke-linecap:round; stroke-linejoin:round; stroke-width:4; stroke-opacity:0.5; fill:none" points="3506.65,2479.89 3506.65,2875.9 3624.94,2875.9 3624.94,2479.89 3506.65,2479.89 "/>
<path clip-path="url(#clip562)" d="M3624.94 669.549 L3624.94 2875.9 L3743.23 2875.9 L3743.23 669.549 L3624.94 669.549 L3624.94 669.549  Z" fill="#ff0000" fill-rule="evenodd" fill-opacity="0.5"/>
<polyline clip-path="url(#clip562)" style="stroke:#000000; stroke-linecap:round; stroke-linejoin:round; stroke-width:4; stroke-opacity:0.5; fill:none" points="3624.94,669.549 3624.94,2875.9 3743.23,2875.9 3743.23,669.549 3624.94,669.549 "/>
<path clip-path="url(#clip562)" d="M3743.23 2875.9 L3743.23 2875.9 L3861.53 2875.9 L3861.53 2875.9 L3743.23 2875.9 L3743.23 2875.9  Z" fill="#ff0000" fill-rule="evenodd" fill-opacity="0.5"/>
<polyline clip-path="url(#clip562)" style="stroke:#000000; stroke-linecap:round; stroke-linejoin:round; stroke-width:4; stroke-opacity:0.5; fill:none" points="3743.23,2875.9 3743.23,2875.9 3861.53,2875.9 3743.23,2875.9 "/>
<path clip-path="url(#clip562)" d="M3861.53 2875.9 L3861.53 2875.9 L3979.82 2875.9 L3979.82 2875.9 L3861.53 2875.9 L3861.53 2875.9  Z" fill="#ff0000" fill-rule="evenodd" fill-opacity="0.5"/>
<polyline clip-path="url(#clip562)" style="stroke:#000000; stroke-linecap:round; stroke-linejoin:round; stroke-width:4; stroke-opacity:0.5; fill:none" points="3861.53,2875.9 3861.53,2875.9 3979.82,2875.9 3861.53,2875.9 "/>
<path clip-path="url(#clip562)" d="M3979.82 2875.9 L3979.82 2875.9 L4098.11 2875.9 L4098.11 2875.9 L3979.82 2875.9 L3979.82 2875.9  Z" fill="#ff0000" fill-rule="evenodd" fill-opacity="0.5"/>
<polyline clip-path="url(#clip562)" style="stroke:#000000; stroke-linecap:round; stroke-linejoin:round; stroke-width:4; stroke-opacity:0.5; fill:none" points="3979.82,2875.9 3979.82,2875.9 4098.11,2875.9 3979.82,2875.9 "/>
<path clip-path="url(#clip562)" d="M4098.11 2875.9 L4098.11 2875.9 L4216.41 2875.9 L4216.41 2875.9 L4098.11 2875.9 L4098.11 2875.9  Z" fill="#ff0000" fill-rule="evenodd" fill-opacity="0.5"/>
<polyline clip-path="url(#clip562)" style="stroke:#000000; stroke-linecap:round; stroke-linejoin:round; stroke-width:4; stroke-opacity:0.5; fill:none" points="4098.11,2875.9 4098.11,2875.9 4216.41,2875.9 4098.11,2875.9 "/>
<path clip-path="url(#clip562)" d="M4216.41 2875.9 L4216.41 2875.9 L4334.7 2875.9 L4334.7 2875.9 L4216.41 2875.9 L4216.41 2875.9  Z" fill="#ff0000" fill-rule="evenodd" fill-opacity="0.5"/>
<polyline clip-path="url(#clip562)" style="stroke:#000000; stroke-linecap:round; stroke-linejoin:round; stroke-width:4; stroke-opacity:0.5; fill:none" points="4216.41,2875.9 4216.41,2875.9 4334.7,2875.9 4216.41,2875.9 "/>
<path clip-path="url(#clip562)" d="M4334.7 2875.9 L4334.7 2875.9 L4452.99 2875.9 L4452.99 2875.9 L4334.7 2875.9 L4334.7 2875.9  Z" fill="#ff0000" fill-rule="evenodd" fill-opacity="0.5"/>
<polyline clip-path="url(#clip562)" style="stroke:#000000; stroke-linecap:round; stroke-linejoin:round; stroke-width:4; stroke-opacity:0.5; fill:none" points="4334.7,2875.9 4334.7,2875.9 4452.99,2875.9 4334.7,2875.9 "/>
<path clip-path="url(#clip562)" d="M4452.99 2875.9 L4452.99 2875.9 L4571.28 2875.9 L4571.28 2875.9 L4452.99 2875.9 L4452.99 2875.9  Z" fill="#ff0000" fill-rule="evenodd" fill-opacity="0.5"/>
<polyline clip-path="url(#clip562)" style="stroke:#000000; stroke-linecap:round; stroke-linejoin:round; stroke-width:4; stroke-opacity:0.5; fill:none" points="4452.99,2875.9 4452.99,2875.9 4571.28,2875.9 4452.99,2875.9 "/>
<path clip-path="url(#clip562)" d="M4571.28 2875.9 L4571.28 2875.9 L4689.58 2875.9 L4689.58 2875.9 L4571.28 2875.9 L4571.28 2875.9  Z" fill="#ff0000" fill-rule="evenodd" fill-opacity="0.5"/>
<polyline clip-path="url(#clip562)" style="stroke:#000000; stroke-linecap:round; stroke-linejoin:round; stroke-width:4; stroke-opacity:0.5; fill:none" points="4571.28,2875.9 4571.28,2875.9 4689.58,2875.9 4571.28,2875.9 "/>
<circle clip-path="url(#clip562)" style="fill:#ff0000; stroke:none; fill-opacity:0" cx="490.178" cy="2875.9" r="2"/>
<circle clip-path="url(#clip562)" style="fill:#ff0000; stroke:none; fill-opacity:0" cx="608.471" cy="2875.9" r="2"/>
<circle clip-path="url(#clip562)" style="fill:#ff0000; stroke:none; fill-opacity:0" cx="726.764" cy="2875.9" r="2"/>
<circle clip-path="url(#clip562)" style="fill:#ff0000; stroke:none; fill-opacity:0" cx="845.056" cy="2875.9" r="2"/>
<circle clip-path="url(#clip562)" style="fill:#ff0000; stroke:none; fill-opacity:0" cx="963.349" cy="2875.9" r="2"/>
<circle clip-path="url(#clip562)" style="fill:#ff0000; stroke:none; fill-opacity:0" cx="1081.64" cy="2875.9" r="2"/>
<circle clip-path="url(#clip562)" style="fill:#ff0000; stroke:none; fill-opacity:0" cx="1199.94" cy="47.2441" r="2"/>
<circle clip-path="url(#clip562)" style="fill:#ff0000; stroke:none; fill-opacity:0" cx="1318.23" cy="1687.87" r="2"/>
<circle clip-path="url(#clip562)" style="fill:#ff0000; stroke:none; fill-opacity:0" cx="1436.52" cy="1801.01" r="2"/>
<circle clip-path="url(#clip562)" style="fill:#ff0000; stroke:none; fill-opacity:0" cx="1554.81" cy="1970.73" r="2"/>
<circle clip-path="url(#clip562)" style="fill:#ff0000; stroke:none; fill-opacity:0" cx="1673.11" cy="1574.72" r="2"/>
<circle clip-path="url(#clip562)" style="fill:#ff0000; stroke:none; fill-opacity:0" cx="1791.4" cy="2027.31" r="2"/>
<circle clip-path="url(#clip562)" style="fill:#ff0000; stroke:none; fill-opacity:0" cx="1909.69" cy="1687.87" r="2"/>
<circle clip-path="url(#clip562)" style="fill:#ff0000; stroke:none; fill-opacity:0" cx="2027.99" cy="2197.03" r="2"/>
<circle clip-path="url(#clip562)" style="fill:#ff0000; stroke:none; fill-opacity:0" cx="2146.28" cy="2253.6" r="2"/>
<circle clip-path="url(#clip562)" style="fill:#ff0000; stroke:none; fill-opacity:0" cx="2264.57" cy="2253.6" r="2"/>
<circle clip-path="url(#clip562)" style="fill:#ff0000; stroke:none; fill-opacity:0" cx="2382.86" cy="2253.6" r="2"/>
<circle clip-path="url(#clip562)" style="fill:#ff0000; stroke:none; fill-opacity:0" cx="2501.16" cy="2083.88" r="2"/>
<circle clip-path="url(#clip562)" style="fill:#ff0000; stroke:none; fill-opacity:0" cx="2619.45" cy="2536.46" r="2"/>
<circle clip-path="url(#clip562)" style="fill:#ff0000; stroke:none; fill-opacity:0" cx="2737.74" cy="2140.45" r="2"/>
<circle clip-path="url(#clip562)" style="fill:#ff0000; stroke:none; fill-opacity:0" cx="2856.04" cy="2027.31" r="2"/>
<circle clip-path="url(#clip562)" style="fill:#ff0000; stroke:none; fill-opacity:0" cx="2974.33" cy="2310.17" r="2"/>
<circle clip-path="url(#clip562)" style="fill:#ff0000; stroke:none; fill-opacity:0" cx="3092.62" cy="2479.89" r="2"/>
<circle clip-path="url(#clip562)" style="fill:#ff0000; stroke:none; fill-opacity:0" cx="3210.92" cy="2366.75" r="2"/>
<circle clip-path="url(#clip562)" style="fill:#ff0000; stroke:none; fill-opacity:0" cx="3329.21" cy="2593.04" r="2"/>
<circle clip-path="url(#clip562)" style="fill:#ff0000; stroke:none; fill-opacity:0" cx="3447.5" cy="2479.89" r="2"/>
<circle clip-path="url(#clip562)" style="fill:#ff0000; stroke:none; fill-opacity:0" cx="3565.79" cy="2479.89" r="2"/>
<circle clip-path="url(#clip562)" style="fill:#ff0000; stroke:none; fill-opacity:0" cx="3684.09" cy="669.549" r="2"/>
<circle clip-path="url(#clip562)" style="fill:#ff0000; stroke:none; fill-opacity:0" cx="3802.38" cy="2875.9" r="2"/>
<circle clip-path="url(#clip562)" style="fill:#ff0000; stroke:none; fill-opacity:0" cx="3920.67" cy="2875.9" r="2"/>
<circle clip-path="url(#clip562)" style="fill:#ff0000; stroke:none; fill-opacity:0" cx="4038.97" cy="2875.9" r="2"/>
<circle clip-path="url(#clip562)" style="fill:#ff0000; stroke:none; fill-opacity:0" cx="4157.26" cy="2875.9" r="2"/>
<circle clip-path="url(#clip562)" style="fill:#ff0000; stroke:none; fill-opacity:0" cx="4275.55" cy="2875.9" r="2"/>
<circle clip-path="url(#clip562)" style="fill:#ff0000; stroke:none; fill-opacity:0" cx="4393.85" cy="2875.9" r="2"/>
<circle clip-path="url(#clip562)" style="fill:#ff0000; stroke:none; fill-opacity:0" cx="4512.14" cy="2875.9" r="2"/>
<circle clip-path="url(#clip562)" style="fill:#ff0000; stroke:none; fill-opacity:0" cx="4630.43" cy="2875.9" r="2"/>
<path clip-path="url(#clip560)" d="M4051.25 297.053 L4793.26 297.053 L4793.26 141.533 L4051.25 141.533  Z" fill="#ffffff" fill-rule="evenodd" fill-opacity="1"/>
<polyline clip-path="url(#clip560)" style="stroke:#000000; stroke-linecap:round; stroke-linejoin:round; stroke-width:4; stroke-opacity:1; fill:none" points="4051.25,297.053 4793.26,297.053 4793.26,141.533 4051.25,141.533 4051.25,297.053 "/>
<path clip-path="url(#clip560)" d="M4104.42 214.109 L4423.41 214.109 L4423.41 172.637 L4104.42 172.637 L4104.42 214.109  Z" fill="#0000ff" fill-rule="evenodd" fill-opacity="1"/>
<polyline clip-path="url(#clip560)" style="stroke:#000000; stroke-linecap:round; stroke-linejoin:round; stroke-width:4; stroke-opacity:1; fill:none" points="4104.42,214.109 4423.41,214.109 4423.41,172.637 4104.42,172.637 4104.42,214.109 "/>
<path clip-path="url(#clip560)" d="M4495.49 188.662 L4495.49 174.634 L4499.75 174.634 L4499.75 210.653 L4495.49 210.653 L4495.49 206.764 Q4494.15 209.079 4492.09 210.213 Q4490.05 211.324 4487.18 211.324 Q4482.48 211.324 4479.52 207.574 Q4476.58 203.824 4476.58 197.713 Q4476.58 191.602 4479.52 187.852 Q4482.48 184.102 4487.18 184.102 Q4490.05 184.102 4492.09 185.236 Q4494.15 186.347 4495.49 188.662 M4480.97 197.713 Q4480.97 202.412 4482.9 205.097 Q4484.84 207.759 4488.22 207.759 Q4491.6 207.759 4493.54 205.097 Q4495.49 202.412 4495.49 197.713 Q4495.49 193.014 4493.54 190.352 Q4491.6 187.667 4488.22 187.667 Q4484.84 187.667 4482.9 190.352 Q4480.97 193.014 4480.97 197.713 Z" fill="#000000" fill-rule="nonzero" fill-opacity="1" /><path clip-path="url(#clip560)" d="M4508.52 184.727 L4512.78 184.727 L4512.78 210.653 L4508.52 210.653 L4508.52 184.727 M4508.52 174.634 L4512.78 174.634 L4512.78 180.028 L4508.52 180.028 L4508.52 174.634 Z" fill="#000000" fill-rule="nonzero" fill-opacity="1" /><path clip-path="url(#clip560)" d="M4538.22 185.491 L4538.22 189.519 Q4536.41 188.593 4534.47 188.13 Q4532.53 187.667 4530.44 187.667 Q4527.27 187.667 4525.67 188.639 Q4524.1 189.611 4524.1 191.556 Q4524.1 193.037 4525.23 193.894 Q4526.37 194.727 4529.79 195.491 L4531.25 195.815 Q4535.79 196.787 4537.69 198.569 Q4539.61 200.329 4539.61 203.5 Q4539.61 207.111 4536.74 209.218 Q4533.89 211.324 4528.89 211.324 Q4526.81 211.324 4524.54 210.907 Q4522.29 210.514 4519.79 209.704 L4519.79 205.306 Q4522.15 206.532 4524.45 207.157 Q4526.74 207.759 4528.98 207.759 Q4531.99 207.759 4533.61 206.741 Q4535.23 205.699 4535.23 203.824 Q4535.23 202.088 4534.05 201.162 Q4532.9 200.236 4528.94 199.38 L4527.46 199.032 Q4523.5 198.199 4521.74 196.486 Q4519.98 194.75 4519.98 191.741 Q4519.98 188.083 4522.57 186.093 Q4525.16 184.102 4529.93 184.102 Q4532.29 184.102 4534.38 184.449 Q4536.46 184.796 4538.22 185.491 Z" fill="#000000" fill-rule="nonzero" fill-opacity="1" /><path clip-path="url(#clip560)" d="M4550.6 177.366 L4550.6 184.727 L4559.38 184.727 L4559.38 188.037 L4550.6 188.037 L4550.6 202.111 Q4550.6 205.282 4551.46 206.185 Q4552.34 207.088 4555 207.088 L4559.38 207.088 L4559.38 210.653 L4555 210.653 Q4550.07 210.653 4548.2 208.824 Q4546.32 206.972 4546.32 202.111 L4546.32 188.037 L4543.2 188.037 L4543.2 184.727 L4546.32 184.727 L4546.32 177.366 L4550.6 177.366 Z" fill="#000000" fill-rule="nonzero" fill-opacity="1" /><path clip-path="url(#clip560)" d="M4580 188.708 Q4579.28 188.292 4578.43 188.107 Q4577.59 187.898 4576.58 187.898 Q4572.96 187.898 4571.02 190.259 Q4569.1 192.597 4569.1 196.995 L4569.1 210.653 L4564.82 210.653 L4564.82 184.727 L4569.1 184.727 L4569.1 188.755 Q4570.44 186.394 4572.59 185.259 Q4574.75 184.102 4577.83 184.102 Q4578.27 184.102 4578.8 184.171 Q4579.33 184.218 4579.98 184.333 L4580 188.708 Z" fill="#000000" fill-rule="nonzero" fill-opacity="1" /><path clip-path="url(#clip560)" d="M4584.47 184.727 L4588.73 184.727 L4588.73 210.653 L4584.47 210.653 L4584.47 184.727 M4584.47 174.634 L4588.73 174.634 L4588.73 180.028 L4584.47 180.028 L4584.47 174.634 Z" fill="#000000" fill-rule="nonzero" fill-opacity="1" /><path clip-path="url(#clip560)" d="M4616.25 197.713 Q4616.25 193.014 4614.31 190.352 Q4612.39 187.667 4609.01 187.667 Q4605.63 187.667 4603.68 190.352 Q4601.76 193.014 4601.76 197.713 Q4601.76 202.412 4603.68 205.097 Q4605.63 207.759 4609.01 207.759 Q4612.39 207.759 4614.31 205.097 Q4616.25 202.412 4616.25 197.713 M4601.76 188.662 Q4603.1 186.347 4605.14 185.236 Q4607.2 184.102 4610.05 184.102 Q4614.77 184.102 4617.71 187.852 Q4620.67 191.602 4620.67 197.713 Q4620.67 203.824 4617.71 207.574 Q4614.77 211.324 4610.05 211.324 Q4607.2 211.324 4605.14 210.213 Q4603.1 209.079 4601.76 206.764 L4601.76 210.653 L4597.48 210.653 L4597.48 174.634 L4601.76 174.634 L4601.76 188.662 Z" fill="#000000" fill-rule="nonzero" fill-opacity="1" /><path clip-path="url(#clip560)" d="M4627.29 200.421 L4627.29 184.727 L4631.55 184.727 L4631.55 200.259 Q4631.55 203.94 4632.99 205.792 Q4634.42 207.62 4637.29 207.62 Q4640.74 207.62 4642.73 205.421 Q4644.75 203.222 4644.75 199.426 L4644.75 184.727 L4649.01 184.727 L4649.01 210.653 L4644.75 210.653 L4644.75 206.671 Q4643.2 209.032 4641.14 210.19 Q4639.1 211.324 4636.39 211.324 Q4631.92 211.324 4629.61 208.546 Q4627.29 205.769 4627.29 200.421 M4638.01 184.102 L4638.01 184.102 Z" fill="#000000" fill-rule="nonzero" fill-opacity="1" /><path clip-path="url(#clip560)" d="M4661.99 177.366 L4661.99 184.727 L4670.77 184.727 L4670.77 188.037 L4661.99 188.037 L4661.99 202.111 Q4661.99 205.282 4662.85 206.185 Q4663.73 207.088 4666.39 207.088 L4670.77 207.088 L4670.77 210.653 L4666.39 210.653 Q4661.46 210.653 4659.58 208.824 Q4657.71 206.972 4657.71 202.111 L4657.71 188.037 L4654.58 188.037 L4654.58 184.727 L4657.71 184.727 L4657.71 177.366 L4661.99 177.366 Z" fill="#000000" fill-rule="nonzero" fill-opacity="1" /><path clip-path="url(#clip560)" d="M4676.37 184.727 L4680.63 184.727 L4680.63 210.653 L4676.37 210.653 L4676.37 184.727 M4676.37 174.634 L4680.63 174.634 L4680.63 180.028 L4676.37 180.028 L4676.37 174.634 Z" fill="#000000" fill-rule="nonzero" fill-opacity="1" /><path clip-path="url(#clip560)" d="M4699.58 187.713 Q4696.16 187.713 4694.17 190.398 Q4692.18 193.06 4692.18 197.713 Q4692.18 202.366 4694.14 205.051 Q4696.14 207.713 4699.58 207.713 Q4702.99 207.713 4704.98 205.028 Q4706.97 202.343 4706.97 197.713 Q4706.97 193.107 4704.98 190.421 Q4702.99 187.713 4699.58 187.713 M4699.58 184.102 Q4705.14 184.102 4708.31 187.713 Q4711.48 191.324 4711.48 197.713 Q4711.48 204.079 4708.31 207.713 Q4705.14 211.324 4699.58 211.324 Q4694.01 211.324 4690.83 207.713 Q4687.69 204.079 4687.69 197.713 Q4687.69 191.324 4690.83 187.713 Q4694.01 184.102 4699.58 184.102 Z" fill="#000000" fill-rule="nonzero" fill-opacity="1" /><path clip-path="url(#clip560)" d="M4740.09 195.005 L4740.09 210.653 L4735.83 210.653 L4735.83 195.144 Q4735.83 191.463 4734.4 189.634 Q4732.96 187.806 4730.09 187.806 Q4726.64 187.806 4724.65 190.005 Q4722.66 192.204 4722.66 196 L4722.66 210.653 L4718.38 210.653 L4718.38 184.727 L4722.66 184.727 L4722.66 188.755 Q4724.19 186.417 4726.25 185.259 Q4728.33 184.102 4731.04 184.102 Q4735.51 184.102 4737.8 186.88 Q4740.09 189.634 4740.09 195.005 Z" fill="#000000" fill-rule="nonzero" fill-opacity="1" /><path clip-path="url(#clip560)" d="M4104.42 265.949 L4423.41 265.949 L4423.41 224.477 L4104.42 224.477 L4104.42 265.949  Z" fill="#ff0000" fill-rule="evenodd" fill-opacity="0.5"/>
<polyline clip-path="url(#clip560)" style="stroke:#000000; stroke-linecap:round; stroke-linejoin:round; stroke-width:4; stroke-opacity:1; fill:none" points="4104.42,265.949 4423.41,265.949 4423.41,224.477 4104.42,224.477 4104.42,265.949 "/>
<path clip-path="url(#clip560)" d="M4476.58 236.567 L4480.84 236.567 L4486.16 256.798 L4491.46 236.567 L4496.48 236.567 L4501.81 256.798 L4507.11 236.567 L4511.37 236.567 L4504.59 262.493 L4499.56 262.493 L4493.98 241.243 L4488.38 262.493 L4483.36 262.493 L4476.58 236.567 Z" fill="#000000" fill-rule="nonzero" fill-opacity="1" /><path clip-path="url(#clip560)" d="M4517.83 236.567 L4522.09 236.567 L4522.09 262.493 L4517.83 262.493 L4517.83 236.567 M4517.83 226.474 L4522.09 226.474 L4522.09 231.868 L4517.83 231.868 L4517.83 226.474 Z" fill="#000000" fill-rule="nonzero" fill-opacity="1" /><path clip-path="url(#clip560)" d="M4552.55 246.845 L4552.55 262.493 L4548.29 262.493 L4548.29 246.984 Q4548.29 243.303 4546.85 241.474 Q4545.42 239.646 4542.55 239.646 Q4539.1 239.646 4537.11 241.845 Q4535.12 244.044 4535.12 247.84 L4535.12 262.493 L4530.84 262.493 L4530.84 236.567 L4535.12 236.567 L4535.12 240.595 Q4536.65 238.257 4538.71 237.099 Q4540.79 235.942 4543.5 235.942 Q4547.96 235.942 4550.26 238.72 Q4552.55 241.474 4552.55 246.845 Z" fill="#000000" fill-rule="nonzero" fill-opacity="1" /><path clip-path="url(#clip560)" d="M4577.57 237.331 L4577.57 241.359 Q4575.77 240.433 4573.82 239.97 Q4571.88 239.507 4569.79 239.507 Q4566.62 239.507 4565.03 240.479 Q4563.45 241.451 4563.45 243.396 Q4563.45 244.877 4564.59 245.734 Q4565.72 246.567 4569.15 247.331 L4570.6 247.655 Q4575.14 248.627 4577.04 250.409 Q4578.96 252.169 4578.96 255.34 Q4578.96 258.951 4576.09 261.058 Q4573.24 263.164 4568.24 263.164 Q4566.16 263.164 4563.89 262.747 Q4561.65 262.354 4559.15 261.544 L4559.15 257.146 Q4561.51 258.372 4563.8 258.997 Q4566.09 259.599 4568.34 259.599 Q4571.34 259.599 4572.96 258.581 Q4574.59 257.539 4574.59 255.664 Q4574.59 253.928 4573.4 253.002 Q4572.25 252.076 4568.29 251.22 L4566.81 250.872 Q4562.85 250.039 4561.09 248.326 Q4559.33 246.59 4559.33 243.581 Q4559.33 239.923 4561.92 237.933 Q4564.52 235.942 4569.28 235.942 Q4571.65 235.942 4573.73 236.289 Q4575.81 236.636 4577.57 237.331 Z" fill="#000000" fill-rule="nonzero" fill-opacity="1" /><path clip-path="url(#clip560)" d="M4595.79 239.553 Q4592.36 239.553 4590.37 242.238 Q4588.38 244.9 4588.38 249.553 Q4588.38 254.206 4590.35 256.891 Q4592.34 259.553 4595.79 259.553 Q4599.19 259.553 4601.18 256.868 Q4603.17 254.183 4603.17 249.553 Q4603.17 244.947 4601.18 242.261 Q4599.19 239.553 4595.79 239.553 M4595.79 235.942 Q4601.34 235.942 4604.52 239.553 Q4607.69 243.164 4607.69 249.553 Q4607.69 255.919 4604.52 259.553 Q4601.34 263.164 4595.79 263.164 Q4590.21 263.164 4587.04 259.553 Q4583.89 255.919 4583.89 249.553 Q4583.89 243.164 4587.04 239.553 Q4590.21 235.942 4595.79 235.942 Z" fill="#000000" fill-rule="nonzero" fill-opacity="1" /><path clip-path="url(#clip560)" d="M4629.77 240.548 Q4629.05 240.132 4628.2 239.947 Q4627.36 239.738 4626.34 239.738 Q4622.73 239.738 4620.79 242.099 Q4618.87 244.437 4618.87 248.835 L4618.87 262.493 L4614.58 262.493 L4614.58 236.567 L4618.87 236.567 L4618.87 240.595 Q4620.21 238.234 4622.36 237.099 Q4624.52 235.942 4627.59 235.942 Q4628.03 235.942 4628.57 236.011 Q4629.1 236.058 4629.75 236.173 L4629.77 240.548 Z" fill="#000000" fill-rule="nonzero" fill-opacity="1" /><path clip-path="url(#clip560)" d="M4634.24 236.567 L4638.5 236.567 L4638.5 262.493 L4634.24 262.493 L4634.24 236.567 M4634.24 226.474 L4638.5 226.474 L4638.5 231.868 L4634.24 231.868 L4634.24 226.474 Z" fill="#000000" fill-rule="nonzero" fill-opacity="1" /><path clip-path="url(#clip560)" d="M4645.56 236.567 L4665.79 236.567 L4665.79 240.456 L4649.77 259.09 L4665.79 259.09 L4665.79 262.493 L4644.98 262.493 L4644.98 258.604 L4661 239.97 L4645.56 239.97 L4645.56 236.567 Z" fill="#000000" fill-rule="nonzero" fill-opacity="1" /><path clip-path="url(#clip560)" d="M4694.47 248.465 L4694.47 250.548 L4674.89 250.548 Q4675.16 254.946 4677.52 257.261 Q4679.91 259.553 4684.14 259.553 Q4686.6 259.553 4688.89 258.951 Q4691.2 258.349 4693.47 257.146 L4693.47 261.173 Q4691.18 262.146 4688.77 262.655 Q4686.37 263.164 4683.89 263.164 Q4677.69 263.164 4674.05 259.553 Q4670.44 255.942 4670.44 249.784 Q4670.44 243.419 4673.87 239.692 Q4677.32 235.942 4683.15 235.942 Q4688.38 235.942 4691.41 239.322 Q4694.47 242.678 4694.47 248.465 M4690.21 247.215 Q4690.16 243.72 4688.24 241.636 Q4686.34 239.553 4683.2 239.553 Q4679.63 239.553 4677.48 241.567 Q4675.35 243.581 4675.02 247.238 L4690.21 247.215 Z" fill="#000000" fill-rule="nonzero" fill-opacity="1" /><path clip-path="url(#clip560)" d="M4718.52 240.502 L4718.52 226.474 L4722.78 226.474 L4722.78 262.493 L4718.52 262.493 L4718.52 258.604 Q4717.18 260.919 4715.12 262.053 Q4713.08 263.164 4710.21 263.164 Q4705.51 263.164 4702.55 259.414 Q4699.61 255.664 4699.61 249.553 Q4699.61 243.442 4702.55 239.692 Q4705.51 235.942 4710.21 235.942 Q4713.08 235.942 4715.12 237.076 Q4717.18 238.187 4718.52 240.502 M4704.01 249.553 Q4704.01 254.252 4705.93 256.937 Q4707.87 259.599 4711.25 259.599 Q4714.63 259.599 4716.58 256.937 Q4718.52 254.252 4718.52 249.553 Q4718.52 244.854 4716.58 242.192 Q4714.63 239.507 4711.25 239.507 Q4707.87 239.507 4705.93 242.192 Q4704.01 244.854 4704.01 249.553 Z" fill="#000000" fill-rule="nonzero" fill-opacity="1" /></svg>
